<?xml version="1.0" standalone="no"?>
<!DOCTYPE svg PUBLIC "-//W3C//DTD SVG 1.1//EN" "http://www.w3.org/Graphics/SVG/1.1/DTD/svg11.dtd" >
<svg xmlns="http://www.w3.org/2000/svg" xmlns:xlink="http://www.w3.org/1999/xlink" version="1.1">
<metadata>
Created by FontForge 20170924 at Thu May  2 10:01:16 2019
 By www-data
Copyright (c) 2019 by Dries Wiewauters. All rights reserved.
</metadata>
<defs>
<font id="NibPro-Bold" horiz-adv-x="730" >
  <font-face 
    font-family="Nib Pro"
    font-weight="700"
    font-stretch="normal"
    units-per-em="1000"
    panose-1="2 3 8 3 7 4 3 4 3 3"
    ascent="780"
    descent="-220"
    x-height="530"
    cap-height="725"
    bbox="-402 -322 1235 975"
    underline-thickness="60"
    underline-position="-170"
    unicode-range="U+000D-FB02"
  />
<missing-glyph horiz-adv-x="498" 
 />
    <glyph glyph-name="f_f" unicode="ff" horiz-adv-x="702" 
d="M109 100v359h-94v71h88q-11 14 -17 35t-6 43q0 42 23 77t62.5 55t88.5 20q50 0 81 -20t31 -52q0 -23 -16.5 -37.5t-42.5 -14.5q-14 0 -24 4t-26 12q-14 8 -24 12t-23 4q-29 0 -48 -17t-19 -44q0 -34 34 -55.5t88 -21.5h191q-11 14 -17.5 35t-6.5 44q0 43 21.5 77.5t60 54
t86.5 19.5q47 0 77.5 -20t30.5 -51q0 -23 -16 -38t-42 -15q-14 0 -25.5 4.5t-25.5 12.5t-23.5 11.5t-21.5 3.5q-27 0 -42.5 -16t-15.5 -43q0 -36 33.5 -57.5t87.5 -21.5h65v-71h-81v-374l71 -85h-256l45 100v359h-212v-374l71 -85h-256z" />
    <glyph glyph-name="f_f_i" unicode="ffi" horiz-adv-x="1059" 
d="M109 100v359h-94v71h88q-23 31 -23 76q0 44 22.5 79.5t63 55t91.5 19.5q52 0 83 -20t31 -52q0 -23 -16 -37.5t-42 -14.5q-23 0 -53 16q-17 8 -27 12t-23 4q-30 0 -48.5 -17t-18.5 -45q0 -35 32.5 -55.5t89.5 -20.5h191q-24 30 -24 76q0 44 23 79.5t63.5 55t90.5 19.5
q52 0 83 -20t31 -52q0 -23 -16 -37.5t-42 -14.5q-14 0 -25.5 4t-27.5 12q-15 8 -26 12t-24 4q-30 0 -48 -17t-18 -45q0 -35 32 -55.5t89 -20.5h337v-441l75 -89h-263l47 105v354h-212v-374l71 -85h-256l45 100v359h-212v-374l71 -85h-256zM939.5 736.5
q21.5 -22.5 21.5 -57.5q0 -34 -21.5 -56t-55.5 -22t-56 22t-22 56q0 35 22 57.5t56 22.5t55.5 -22.5z" />
    <glyph glyph-name="f_f_l" unicode="ffl" horiz-adv-x="1054" 
d="M109 100v359h-94v71h88q-23 31 -23 76q0 44 22.5 79.5t63 55t90.5 19.5q52 0 83.5 -20t31.5 -52q0 -23 -16 -37.5t-42 -14.5q-23 0 -53 16q-17 8 -27 12t-23 4q-30 0 -48.5 -17t-18.5 -45q0 -35 32.5 -55.5t89.5 -20.5h196q-24 30 -24 78q0 67 47 109.5t121 42.5
q49 0 78.5 -19.5t29.5 -51.5q0 -24 -15.5 -38.5t-41.5 -14.5q-14 0 -24.5 4t-27.5 13q-3 1 -11.5 5.5t-17 7t-16.5 2.5q-27 0 -42.5 -16t-15.5 -44q0 -37 31.5 -57.5t89.5 -20.5h66v-71h-81v-374l70 -85h-256l45 100v359h-217v-374l71 -85h-256zM808 105v536l-95 109h236
v-661l75 -89h-263z" />
    <glyph glyph-name="f_i" unicode="fi" horiz-adv-x="707" 
d="M109 100v359h-94v71h88q-23 31 -23 76q0 44 22.5 79.5t63 55t91.5 19.5q52 0 83 -20t31 -52q0 -23 -16 -37.5t-42 -14.5q-23 0 -53 16q-17 8 -27 12t-23 4q-30 0 -48.5 -17t-18.5 -45q0 -35 32.5 -55.5t89.5 -20.5h336v-441l75 -89h-262l47 105v354h-212v-374l71 -85
h-256zM587 736q22 -23 22 -57t-22 -56t-55 -22q-34 0 -56.5 22t-22.5 56t22.5 57t56.5 23q33 0 55 -23z" />
    <glyph glyph-name="f_l" unicode="fl" horiz-adv-x="706" 
d="M109 100v359h-94v71h88q-23 31 -23 78q0 67 47 109.5t120 42.5q50 0 79.5 -19.5t29.5 -51.5q0 -24 -15.5 -38.5t-41.5 -14.5q-14 0 -24.5 4t-27.5 13q-26 15 -45 15q-27 0 -43 -16t-16 -44q0 -37 32 -57.5t90 -20.5h65v-71h-81v-374l71 -85h-256zM461 105v536l-95 109
h235v-661l75 -89h-262z" />
    <glyph glyph-name=".notdef" horiz-adv-x="498" 
 />
    <glyph glyph-name="nonmarkingreturn" unicode="&#xd;" horiz-adv-x="498" 
 />
    <glyph glyph-name="space" unicode=" " horiz-adv-x="200" 
 />
    <glyph glyph-name="A" unicode="A" horiz-adv-x="689" 
d="M81 112l178 491l-66 122h184l215 -620l86 -105h-283l46 101l-29 81h-247l-29 -81l85 -101h-189zM393 237l-104 293l-104 -293h208z" />
    <glyph glyph-name="Aacute" unicode="&#xc1;" horiz-adv-x="689" 
d="M81 112l178 491l-66 122h184l215 -620l86 -105h-283l46 101l-29 81h-247l-29 -81l85 -101h-189zM393 237l-104 293l-104 -293h208zM198 807q53 13 92 42t62 69q12 20 24 28.5t27 8.5q21 0 34.5 -12.5t13.5 -33.5q0 -23 -23 -43q-39 -35 -94.5 -56t-135.5 -22v19z" />
    <glyph glyph-name="Abreve" unicode="&#x102;" horiz-adv-x="689" 
d="M81 112l178 491l-66 122h184l215 -620l86 -105h-283l46 101l-29 81h-247l-29 -81l85 -101h-189zM393 237l-104 293l-104 -293h208zM212 820.5q-41 37.5 -51 98.5l19 3q22 -39 54.5 -57.5t81.5 -18.5q50 0 82 18t53 58l19 -3q-10 -61 -51 -98.5t-103 -37.5
q-63 0 -104 37.5z" />
    <glyph glyph-name="Acircumflex" unicode="&#xc2;" horiz-adv-x="689" 
d="M81 112l178 491l-66 122h184l215 -620l86 -105h-283l46 101l-29 81h-247l-29 -81l85 -101h-189zM393 237l-104 293l-104 -293h208zM483 778q-43 8 -89 24t-78 36q-31 -20 -77 -36t-90 -24l-5 19q49 21 91.5 62.5t63.5 85.5h34q21 -44 64 -85.5t91 -62.5z" />
    <glyph glyph-name="Adieresis" unicode="&#xc4;" horiz-adv-x="689" 
d="M81 112l178 491l-66 122h184l215 -620l86 -105h-283l46 101l-29 81h-247l-29 -81l85 -101h-189zM393 237l-104 293l-104 -293h208zM174 809q-16 15 -16 38q0 24 15.5 38.5t38.5 14.5t37.5 -14.5t14.5 -38.5q0 -23 -14.5 -38t-37.5 -15q-22 0 -38 15zM384 809
q-16 15 -16 38q0 24 15.5 38.5t38.5 14.5t37.5 -14.5t14.5 -38.5q0 -23 -14.5 -38t-37.5 -15q-22 0 -38 15z" />
    <glyph glyph-name="Agrave" unicode="&#xc0;" horiz-adv-x="689" 
d="M81 112l178 491l-66 122h184l215 -620l86 -105h-283l46 101l-29 81h-247l-29 -81l85 -101h-189zM393 237l-104 293l-104 -293h208zM297.5 810q-55.5 21 -94.5 56q-23 20 -23 43q0 21 13.5 33.5t34.5 12.5q15 0 27 -9t23 -28q24 -40 63.5 -69t91.5 -42v-19
q-80 1 -135.5 22z" />
    <glyph glyph-name="Amacron" unicode="&#x100;" horiz-adv-x="689" 
d="M81 112l178 491l-66 122h184l215 -620l86 -105h-283l46 101l-29 81h-247l-29 -81l85 -101h-189zM393 237l-104 293l-104 -293h208zM164 857h307v-46h-307v46z" />
    <glyph glyph-name="Aogonek" unicode="&#x104;" horiz-adv-x="689" 
d="M548 -166.5q16 -24.5 48 -37.5l-5 -13q-65 -3 -103.5 27t-38.5 80q0 31 15 59.5t43 50.5h-112l46 101l-29 81h-247l-29 -81l85 -101h-189l49 112l178 491l-66 122h184l215 -620l86 -105h-117q-29 -46 -29 -103q0 -39 16 -63.5zM393 237l-104 293l-104 -293h208z" />
    <glyph glyph-name="Aring" unicode="&#xc5;" horiz-adv-x="689" 
d="M81 112l178 491l-66 122h184l215 -620l86 -105h-283l46 101l-29 81h-247l-29 -81l85 -101h-189zM393 237l-104 293l-104 -293h208zM243 800q-29 29 -29 72q0 44 29 73.5t72 29.5q44 0 73.5 -29.5t29.5 -73.5q0 -43 -29.5 -72t-73.5 -29q-43 0 -72 29zM368 820
q21 21 21 53t-21 52.5t-53 20.5q-31 0 -52 -20.5t-21 -52.5t20.5 -53t52.5 -21t53 21z" />
    <glyph glyph-name="Atilde" unicode="&#xc3;" horiz-adv-x="689" 
d="M81 112l178 491l-66 122h184l215 -620l86 -105h-283l46 101l-29 81h-247l-29 -81l85 -101h-189zM393 237l-104 293l-104 -293h208zM445 813.5q-23 -25.5 -68 -25.5q-23 0 -43 5t-48 14q-17 5 -33.5 9.5t-28.5 4.5q-37 0 -46 -35l-15 7q2 49 27.5 75t68.5 26q18 0 35.5 -4
t32 -8.5t19.5 -5.5q43 -15 63 -15q36 0 44 35l16 -7q-1 -50 -24 -75.5z" />
    <glyph glyph-name="AE" unicode="&#xc6;" horiz-adv-x="999" 
d="M105 120l348 531l-62 74h496v-187l-115 131h-148v-274h133l72 64v-185l-78 64h-127v-282h185l127 154v-210h-502l49 109v86h-264l-65 -99l55 -96h-200zM483 251v345l-227 -345h227z" />
    <glyph glyph-name="AEacute" unicode="&#x1fc;" horiz-adv-x="999" 
d="M105 120l348 531l-62 74h496v-187l-115 131h-148v-274h133l72 64v-185l-78 64h-127v-282h185l127 154v-210h-502l49 109v86h-264l-65 -99l55 -96h-200zM483 251v345l-227 -345h227zM437 807q53 13 92 42t62 69q12 20 24 28.5t27 8.5q21 0 34.5 -12.5t13.5 -33.5
q0 -23 -23 -43q-39 -35 -94.5 -56t-135.5 -22v19z" />
    <glyph glyph-name="B" unicode="B" horiz-adv-x="692" 
d="M116 109v522l-79 94h284q139 0 213.5 -44t74.5 -126q0 -55 -32.5 -94.5t-94.5 -61.5q168 -40 168 -190q0 -103 -81 -156t-239 -53h-264zM257 670v-249h41q165 0 165 128q0 61 -37.5 91t-113.5 30h-55zM257 365v-310h65q88 0 131 38t43 116q0 80 -46.5 118t-146.5 38h-46z
" />
    <glyph glyph-name="C" unicode="C" horiz-adv-x="695" 
d="M622 45q-56 -27 -120 -41.5t-126 -14.5q-159 0 -246.5 95t-87.5 268q0 118 41 205.5t116 135t173 47.5q49 0 92.5 -11t73.5 -31l69 32v-250l-56 93q-34 58 -78 87t-94 29q-88 0 -135 -83.5t-47 -241.5q0 -160 49 -242t144 -82q58 0 107 32t83 93l42 73v-193z" />
    <glyph glyph-name="Cacute" unicode="&#x106;" horiz-adv-x="695" 
d="M622 45q-56 -27 -120 -41.5t-126 -14.5q-159 0 -246.5 95t-87.5 268q0 118 41 205.5t116 135t173 47.5q49 0 92.5 -11t73.5 -31l69 32v-250l-56 93q-34 58 -78 87t-94 29q-88 0 -135 -83.5t-47 -241.5q0 -160 49 -242t144 -82q58 0 107 32t83 93l42 73v-193zM253 807
q53 13 92 42t62 69q12 20 24 28.5t27 8.5q21 0 34.5 -12.5t13.5 -33.5q0 -23 -23 -43q-39 -35 -94.5 -56t-135.5 -22v19z" />
    <glyph glyph-name="Ccaron" unicode="&#x10c;" horiz-adv-x="695" 
d="M622 45q-56 -27 -120 -41.5t-126 -14.5q-159 0 -246.5 95t-87.5 268q0 118 41 205.5t116 135t173 47.5q49 0 92.5 -11t73.5 -31l69 32v-250l-56 93q-34 58 -78 87t-94 29q-88 0 -135 -83.5t-47 -241.5q0 -160 49 -242t144 -82q58 0 107 32t83 93l42 73v-193zM544 918
q-49 -21 -92 -62t-64 -85h-34q-21 44 -64 85.5t-91 61.5l5 20q45 -9 90.5 -24.5t76.5 -35.5q32 20 77 35.5t90 24.5z" />
    <glyph glyph-name="Ccedilla" unicode="&#xc7;" horiz-adv-x="695" 
d="M512 5.5q-58 -14.5 -116 -16.5l-21 -43q49 -3 79 -27.5t30 -59.5q0 -40 -38 -64t-97 -24q-38 0 -77 10l3 15q22 -2 31 -2q40 0 63 14.5t23 43.5q0 26 -22.5 39.5t-60.5 15.5l43 83q-148 7 -229 101.5t-81 260.5q0 118 41 205.5t116 135t173 47.5q49 0 92.5 -11t73.5 -31
l69 32v-250l-56 93q-34 58 -78 87t-94 29q-88 0 -135 -83.5t-47 -241.5q0 -160 49 -242t144 -82q58 0 107 32t83 93l42 73v-193q-52 -25 -110 -39.5z" />
    <glyph glyph-name="Ccircumflex" unicode="&#x108;" horiz-adv-x="695" 
d="M622 45q-56 -27 -120 -41.5t-126 -14.5q-159 0 -246.5 95t-87.5 268q0 118 41 205.5t116 135t173 47.5q49 0 92.5 -11t73.5 -31l69 32v-250l-56 93q-34 58 -78 87t-94 29q-88 0 -135 -83.5t-47 -241.5q0 -160 49 -242t144 -82q58 0 107 32t83 93l42 73v-193zM538 778
q-43 8 -89 24t-78 36q-31 -20 -77 -36t-90 -24l-5 19q49 21 91.5 62.5t63.5 85.5h34q21 -44 64 -85.5t91 -62.5z" />
    <glyph glyph-name="Cdotaccent" unicode="&#x10a;" horiz-adv-x="695" 
d="M622 45q-56 -27 -120 -41.5t-126 -14.5q-159 0 -246.5 95t-87.5 268q0 118 41 205.5t116 135t173 47.5q49 0 92.5 -11t73.5 -31l69 32v-250l-56 93q-34 58 -78 87t-94 29q-88 0 -135 -83.5t-47 -241.5q0 -160 49 -242t144 -82q58 0 107 32t83 93l42 73v-193zM323.5 821.5
q-18.5 18.5 -18.5 46.5t18.5 46t47.5 18q28 0 46.5 -18t18.5 -46t-18.5 -46.5t-46.5 -18.5q-29 0 -47.5 18.5z" />
    <glyph glyph-name="D" unicode="D" horiz-adv-x="745" 
d="M116 109v522l-79 94h285q119 0 204.5 -44t131 -127.5t45.5 -199.5q0 -172 -98 -263t-284 -91h-255zM257 669v-613h64q111 0 169.5 78t58.5 224q0 148 -59.5 229.5t-167.5 81.5h-65z" />
    <glyph glyph-name="Eth" unicode="&#xd0;" horiz-adv-x="745" 
d="M116 109v227h-69v54h69v241l-79 94h285q119 0 204.5 -44t131 -127.5t45.5 -199.5q0 -172 -98 -263t-284 -91h-255zM257 669v-279h174v-54h-174v-280h64q111 0 169.5 78t58.5 224q0 148 -59.5 229.5t-167.5 81.5h-65z" />
    <glyph glyph-name="Dcaron" unicode="&#x10e;" horiz-adv-x="745" 
d="M116 109v522l-79 94h285q119 0 204.5 -44t131 -127.5t45.5 -199.5q0 -172 -98 -263t-284 -91h-255zM257 669v-613h64q111 0 169.5 78t58.5 224q0 148 -59.5 229.5t-167.5 81.5h-65zM525 918q-49 -21 -92 -62t-64 -85h-34q-21 44 -64 85.5t-91 61.5l5 20q45 -9 90.5 -24.5
t76.5 -35.5q32 20 77 35.5t90 24.5z" />
    <glyph glyph-name="Dcroat" unicode="&#x110;" horiz-adv-x="745" 
d="M116 109v227h-69v54h69v241l-79 94h285q119 0 204.5 -44t131 -127.5t45.5 -199.5q0 -172 -98 -263t-284 -91h-255zM257 669v-279h174v-54h-174v-280h64q111 0 169.5 78t58.5 224q0 148 -59.5 229.5t-167.5 81.5h-65z" />
    <glyph glyph-name="E" unicode="E" horiz-adv-x="641" 
d="M116 109v522l-79 94h492v-187l-115 131h-157v-274h135l72 64v-185l-78 64h-129v-282h195l126 154v-210h-512z" />
    <glyph glyph-name="Eacute" unicode="&#xc9;" horiz-adv-x="641" 
d="M116 109v522l-79 94h492v-187l-115 131h-157v-274h135l72 64v-185l-78 64h-129v-282h195l126 154v-210h-512zM200 807q53 13 92 42t62 69q12 20 24 28.5t27 8.5q21 0 34.5 -12.5t13.5 -33.5q0 -23 -23 -43q-39 -35 -94.5 -56t-135.5 -22v19z" />
    <glyph glyph-name="Ebreve" unicode="&#x114;" horiz-adv-x="641" 
d="M116 109v522l-79 94h492v-187l-115 131h-157v-274h135l72 64v-185l-78 64h-129v-282h195l126 154v-210h-512zM214 820.5q-41 37.5 -51 98.5l19 3q22 -39 54.5 -57.5t81.5 -18.5q50 0 82 18t53 58l19 -3q-10 -61 -51 -98.5t-103 -37.5q-63 0 -104 37.5z" />
    <glyph glyph-name="Ecaron" unicode="&#x11a;" horiz-adv-x="641" 
d="M116 109v522l-79 94h492v-187l-115 131h-157v-274h135l72 64v-185l-78 64h-129v-282h195l126 154v-210h-512zM490 918q-49 -21 -92 -62t-64 -85h-34q-21 44 -64 85.5t-91 61.5l5 20q45 -9 90.5 -24.5t76.5 -35.5q32 20 77 35.5t90 24.5z" />
    <glyph glyph-name="Ecircumflex" unicode="&#xca;" horiz-adv-x="641" 
d="M116 109v522l-79 94h492v-187l-115 131h-157v-274h135l72 64v-185l-78 64h-129v-282h195l126 154v-210h-512zM484 778q-43 8 -89 24t-78 36q-31 -20 -77 -36t-90 -24l-5 19q49 21 91.5 62.5t63.5 85.5h34q21 -44 64 -85.5t91 -62.5z" />
    <glyph glyph-name="Edieresis" unicode="&#xcb;" horiz-adv-x="641" 
d="M116 109v522l-79 94h492v-187l-115 131h-157v-274h135l72 64v-185l-78 64h-129v-282h195l126 154v-210h-512zM175 809q-16 15 -16 38q0 24 15.5 38.5t38.5 14.5t37.5 -14.5t14.5 -38.5q0 -23 -14.5 -38t-37.5 -15q-22 0 -38 15zM385 809q-16 15 -16 38q0 24 15.5 38.5
t38.5 14.5t37.5 -14.5t14.5 -38.5q0 -23 -14.5 -38t-37.5 -15q-22 0 -38 15z" />
    <glyph glyph-name="Edotaccent" unicode="&#x116;" horiz-adv-x="641" 
d="M116 109v522l-79 94h492v-187l-115 131h-157v-274h135l72 64v-185l-78 64h-129v-282h195l126 154v-210h-512zM270.5 821.5q-18.5 18.5 -18.5 46.5t18.5 46t47.5 18q28 0 46.5 -18t18.5 -46t-18.5 -46.5t-46.5 -18.5q-29 0 -47.5 18.5z" />
    <glyph glyph-name="Egrave" unicode="&#xc8;" horiz-adv-x="641" 
d="M116 109v522l-79 94h492v-187l-115 131h-157v-274h135l72 64v-185l-78 64h-129v-282h195l126 154v-210h-512zM298.5 810q-55.5 21 -94.5 56q-23 20 -23 43q0 21 13.5 33.5t34.5 12.5q15 0 27 -9t23 -28q24 -40 63.5 -69t91.5 -42v-19q-80 1 -135.5 22z" />
    <glyph glyph-name="Emacron" unicode="&#x112;" horiz-adv-x="641" 
d="M116 109v522l-79 94h492v-187l-115 131h-157v-274h135l72 64v-185l-78 64h-129v-282h195l126 154v-210h-512zM165 857h307v-46h-307v46z" />
    <glyph glyph-name="Eogonek" unicode="&#x118;" horiz-adv-x="641" 
d="M116 109v522l-79 94h492v-187l-115 131h-157v-274h135l72 64v-185l-78 64h-129v-282h195l126 154v-210q-30 -45 -30 -102q0 -77 64 -102l-5 -13q-64 -2 -103 27t-39 80q0 31 15 59.5t42 50.5h-456z" />
    <glyph glyph-name="F" unicode="F" horiz-adv-x="603" 
d="M116 109v522l-79 94h524v-200l-127 144h-177v-278h127l82 69v-196l-88 70h-121v-240l79 -94h-270z" />
    <glyph glyph-name="G" unicode="G" horiz-adv-x="770" 
d="M668 219v-230l-80 82q-74 -82 -207 -82q-99 0 -172 45.5t-112.5 129t-39.5 196.5q0 115 40.5 200.5t114.5 132.5t173 47q104 0 175 -47l72 42v-250l-69 95q-78 109 -168 109q-56 0 -97.5 -39t-63.5 -111.5t-22 -171.5q0 -152 52 -237t144 -85q43 0 79 18t60 51v119
l-99 98h269z" />
    <glyph glyph-name="Gbreve" unicode="&#x11e;" horiz-adv-x="770" 
d="M668 219v-230l-80 82q-74 -82 -207 -82q-99 0 -172 45.5t-112.5 129t-39.5 196.5q0 115 40.5 200.5t114.5 132.5t173 47q104 0 175 -47l72 42v-250l-69 95q-78 109 -168 109q-56 0 -97.5 -39t-63.5 -111.5t-22 -171.5q0 -152 52 -237t144 -85q43 0 79 18t60 51v119
l-99 98h269zM288 820.5q-41 37.5 -51 98.5l19 3q22 -39 54.5 -57.5t81.5 -18.5q50 0 82 18t53 58l19 -3q-10 -61 -51 -98.5t-103 -37.5q-63 0 -104 37.5z" />
    <glyph glyph-name="Gcircumflex" unicode="&#x11c;" horiz-adv-x="770" 
d="M668 219v-230l-80 82q-74 -82 -207 -82q-99 0 -172 45.5t-112.5 129t-39.5 196.5q0 115 40.5 200.5t114.5 132.5t173 47q104 0 175 -47l72 42v-250l-69 95q-78 109 -168 109q-56 0 -97.5 -39t-63.5 -111.5t-22 -171.5q0 -152 52 -237t144 -85q43 0 79 18t60 51v119
l-99 98h269zM559 778q-43 8 -89 24t-78 36q-31 -20 -77 -36t-90 -24l-5 19q49 21 91.5 62.5t63.5 85.5h34q21 -44 64 -85.5t91 -62.5z" />
    <glyph glyph-name="uni0122" unicode="&#x122;" horiz-adv-x="770" 
d="M668 219v-230l-80 82q-74 -82 -207 -82q-99 0 -172 45.5t-112.5 129t-39.5 196.5q0 115 40.5 200.5t114.5 132.5t173 47q104 0 175 -47l72 42v-250l-69 95q-78 109 -168 109q-56 0 -97.5 -39t-63.5 -111.5t-22 -171.5q0 -152 52 -237t144 -85q43 0 79 18t60 51v119
l-99 98h269zM347 -306q36 21 57 53.5t21 66.5h-14q-30 0 -50 19t-20 46q0 28 20 47t50 19q35 0 58 -27.5t23 -69.5q0 -55 -37 -101.5t-97 -68.5z" />
    <glyph glyph-name="Gdotaccent" unicode="&#x120;" horiz-adv-x="770" 
d="M668 219v-230l-80 82q-74 -82 -207 -82q-99 0 -172 45.5t-112.5 129t-39.5 196.5q0 115 40.5 200.5t114.5 132.5t173 47q104 0 175 -47l72 42v-250l-69 95q-78 109 -168 109q-56 0 -97.5 -39t-63.5 -111.5t-22 -171.5q0 -152 52 -237t144 -85q43 0 79 18t60 51v119
l-99 98h269zM344.5 821.5q-18.5 18.5 -18.5 46.5t18.5 46t47.5 18q28 0 46.5 -18t18.5 -46t-18.5 -46.5t-46.5 -18.5q-29 0 -47.5 18.5z" />
    <glyph glyph-name="H" unicode="H" horiz-adv-x="822" 
d="M116 109v522l-79 94h269l-49 -109v-217h308v232l-79 94h269l-49 -109v-522l79 -94h-269l49 109v234h-308v-249l79 -94h-270z" />
    <glyph glyph-name="Hbar" unicode="&#x126;" horiz-adv-x="822" 
d="M116 109v378h-100v47h100v97l-79 94h269l-49 -109v-82h308v97l-79 94h269l-49 -109v-82h100v-47h-100v-393l79 -94h-269l49 109v218h-308v-233l79 -94h-270zM565 384v103h-308v-103h308z" />
    <glyph glyph-name="Hcircumflex" unicode="&#x124;" horiz-adv-x="822" 
d="M116 109v522l-79 94h269l-49 -109v-217h308v232l-79 94h269l-49 -109v-522l79 -94h-269l49 109v234h-308v-249l79 -94h-270zM578 778q-43 8 -89 24t-78 36q-31 -20 -77 -36t-90 -24l-5 19q49 21 91.5 62.5t63.5 85.5h34q21 -44 64 -85.5t91 -62.5z" />
    <glyph glyph-name="I" unicode="I" horiz-adv-x="373" 
d="M116 109v522l-79 94h269l-49 -109v-522l79 -94h-270z" />
    <glyph glyph-name="IJ" unicode="&#x132;" horiz-adv-x="825" 
d="M116 109v522l-79 94h269l-49 -109v-522l79 -94h-270zM579 631l-79 94h269l-49 -109v-409q0 -102 -53 -160t-146 -58q-57 0 -93.5 22t-36.5 58q0 24 16.5 40t41.5 16q17 0 30 -7t30 -20q17 -12 27.5 -18t24.5 -6q23 0 35.5 16t12.5 44q0 16 -11 47q-9 30 -14 53.5t-5 60.5
v336z" />
    <glyph glyph-name="Iacute" unicode="&#xcd;" horiz-adv-x="373" 
d="M116 109v522l-79 94h269l-49 -109v-522l79 -94h-270zM68 807q53 13 92 42t62 69q12 20 24 28.5t27 8.5q21 0 34.5 -12.5t13.5 -33.5q0 -23 -23 -43q-39 -35 -94.5 -56t-135.5 -22v19z" />
    <glyph glyph-name="Ibreve" unicode="&#x12c;" horiz-adv-x="373" 
d="M116 109v522l-79 94h269l-49 -109v-522l79 -94h-270zM83 820.5q-41 37.5 -51 98.5l19 3q22 -39 54.5 -57.5t81.5 -18.5q50 0 82 18t53 58l19 -3q-10 -61 -51 -98.5t-103 -37.5q-63 0 -104 37.5z" />
    <glyph glyph-name="Icircumflex" unicode="&#xce;" horiz-adv-x="373" 
d="M116 109v522l-79 94h269l-49 -109v-522l79 -94h-270zM353 778q-43 8 -89 24t-78 36q-31 -20 -77 -36t-90 -24l-5 19q49 21 91.5 62.5t63.5 85.5h34q21 -44 64 -85.5t91 -62.5z" />
    <glyph glyph-name="Idieresis" unicode="&#xcf;" horiz-adv-x="373" 
d="M116 109v522l-79 94h269l-49 -109v-522l79 -94h-270zM117.5 896.5q15.5 -15.5 15.5 -39.5t-16 -39.5t-39 -15.5q-24 0 -40 15.5t-16 39.5q0 25 16 40t40 15t39.5 -15.5zM328.5 896.5q15.5 -15.5 15.5 -39.5t-15.5 -39.5t-39.5 -15.5q-23 0 -39.5 15.5t-16.5 39.5
q0 25 16.5 40t39.5 15q24 0 39.5 -15.5z" />
    <glyph glyph-name="Idotaccent" unicode="&#x130;" horiz-adv-x="373" 
d="M116 109v522l-79 94h269l-49 -109v-522l79 -94h-270zM139.5 821.5q-18.5 18.5 -18.5 46.5t18.5 46t47.5 18q28 0 46.5 -18t18.5 -46t-18.5 -46.5t-46.5 -18.5q-29 0 -47.5 18.5z" />
    <glyph glyph-name="Igrave" unicode="&#xcc;" horiz-adv-x="373" 
d="M116 109v522l-79 94h269l-49 -109v-522l79 -94h-270zM167.5 810q-55.5 21 -94.5 56q-23 20 -23 43q0 21 13.5 33.5t34.5 12.5q15 0 27 -9t23 -28q24 -40 63.5 -69t91.5 -42v-19q-80 1 -135.5 22z" />
    <glyph glyph-name="Imacron" unicode="&#x12a;" horiz-adv-x="373" 
d="M116 109v522l-79 94h269l-49 -109v-522l79 -94h-270zM34 857h307v-46h-307v46z" />
    <glyph glyph-name="Iogonek" unicode="&#x12e;" horiz-adv-x="373" 
d="M116 109v522l-79 94h269l-49 -109v-522l79 -94h-102q-30 -47 -30 -103q0 -77 64 -101l-5 -14q-65 -2 -103.5 27.5t-38.5 79.5q0 31 15 60t42 51h-112z" />
    <glyph glyph-name="Itilde" unicode="&#x128;" horiz-adv-x="373" 
d="M116 109v522l-79 94h269l-49 -109v-522l79 -94h-270zM315 813.5q-23 -25.5 -68 -25.5q-23 0 -43 5t-48 14q-17 5 -33.5 9.5t-28.5 4.5q-37 0 -46 -35l-15 7q2 49 27.5 75t68.5 26q18 0 35.5 -4t32 -8.5t19.5 -5.5q43 -15 63 -15q36 0 44 35l16 -7q-1 -50 -24 -75.5z" />
    <glyph glyph-name="J" unicode="J" horiz-adv-x="452" 
d="M206 631l-79 94h269l-49 -109v-409q0 -102 -53 -160t-146 -58q-57 0 -93.5 22t-36.5 58q0 24 16.5 40t41.5 16q17 0 30 -7t30 -20q17 -12 27.5 -18t24.5 -6q23 0 35.5 16t12.5 44q0 16 -11 47q-9 30 -14 53.5t-5 60.5v336z" />
    <glyph glyph-name="Jcircumflex" unicode="&#x134;" horiz-adv-x="452" 
d="M206 631l-79 94h269l-49 -109v-409q0 -102 -53 -160t-146 -58q-57 0 -93.5 22t-36.5 58q0 24 16.5 40t41.5 16q17 0 30 -7t30 -20q17 -12 27.5 -18t24.5 -6q23 0 35.5 16t12.5 44q0 16 -11 47q-9 30 -14 53.5t-5 60.5v336zM447 778q-43 8 -89 24t-78 36q-31 -20 -77 -36
t-90 -24l-5 19q49 21 91.5 62.5t63.5 85.5h34q21 -44 64 -85.5t91 -62.5z" />
    <glyph glyph-name="K" unicode="K" horiz-adv-x="706" 
d="M116 109v522l-79 94h269l-49 -109v-249l259 274l-57 84h207l-258 -273l287 -452h-240l22 83l-168 261l-52 -55v-195l79 -94h-270z" />
    <glyph glyph-name="uni0136" unicode="&#x136;" horiz-adv-x="706" 
d="M116 109v522l-79 94h269l-49 -109v-249l259 274l-57 84h207l-258 -273l287 -452h-240l22 83l-168 261l-52 -55v-195l79 -94h-270zM318 -306q36 21 57 53.5t21 66.5h-14q-30 0 -50 19t-20 46q0 28 20 47t50 19q35 0 58 -27.5t23 -69.5q0 -55 -37 -101.5t-97 -68.5z" />
    <glyph glyph-name="L" unicode="L" horiz-adv-x="588" 
d="M116 109v522l-79 94h269l-49 -109v-560h145l154 207v-263h-490z" />
    <glyph glyph-name="Lacute" unicode="&#x139;" horiz-adv-x="588" 
d="M116 109v522l-79 94h269l-49 -109v-560h145l154 207v-263h-490zM68 807q53 13 92 42t62 69q12 20 24 28.5t27 8.5q21 0 34.5 -12.5t13.5 -33.5q0 -23 -23 -43q-39 -35 -94.5 -56t-135.5 -22v19z" />
    <glyph glyph-name="Lcaron" unicode="&#x13d;" horiz-adv-x="588" 
d="M116 109v522l-79 94h269l-49 -109v-560h145l154 207v-263h-490zM400 474q36 21 57 53.5t21 66.5h-14q-30 0 -50 19t-20 46q0 28 20 47t50 19q35 0 58 -27.5t23 -69.5q0 -55 -37 -101.5t-97 -68.5z" />
    <glyph glyph-name="uni013B" unicode="&#x13b;" horiz-adv-x="588" 
d="M116 109v522l-79 94h269l-49 -109v-560h145l154 207v-263h-490zM256 -306q36 21 57 53.5t21 66.5h-14q-30 0 -50 19t-20 46q0 28 20 47t50 19q35 0 58 -27.5t23 -69.5q0 -55 -37 -101.5t-97 -68.5z" />
    <glyph glyph-name="Ldot" unicode="&#x13f;" horiz-adv-x="588" 
d="M116 109v522l-79 94h269l-49 -109v-560h156l143 192v-248h-490zM375.5 332.5q-18.5 18.5 -18.5 46.5t18.5 46.5t46.5 18.5t46.5 -18.5t18.5 -46.5t-18.5 -46.5t-46.5 -18.5t-46.5 18.5z" />
    <glyph glyph-name="Lslash" unicode="&#x141;" horiz-adv-x="588" 
d="M116 109v191l-69 -27v55l69 26v277l-79 94h269l-49 -109v-207l164 63v-55l-164 -62v-299h145l154 207v-263h-490z" />
    <glyph glyph-name="M" unicode="M" horiz-adv-x="889" 
d="M116 109v522l-79 94h279l-24 -75l167 -405l158 411l-33 69h238l-49 -109v-522l79 -94h-270l50 109v437l-211 -557l-250 580v-475l79 -94h-184z" />
    <glyph glyph-name="N" unicode="N" horiz-adv-x="752" 
d="M116 109v522l-79 94h207l347 -447v353l-79 94h184l-50 -109v-628l-475 597v-491l79 -94h-184z" />
    <glyph glyph-name="Nacute" unicode="&#x143;" horiz-adv-x="752" 
d="M116 109v522l-79 94h207l347 -447v353l-79 94h184l-50 -109v-628l-475 597v-491l79 -94h-184zM267 807q53 13 92 42t62 69q12 20 24 28.5t27 8.5q21 0 34.5 -12.5t13.5 -33.5q0 -23 -23 -43q-39 -35 -94.5 -56t-135.5 -22v19z" />
    <glyph glyph-name="Ncaron" unicode="&#x147;" horiz-adv-x="752" 
d="M116 109v522l-79 94h207l347 -447v353l-79 94h184l-50 -109v-628l-475 597v-491l79 -94h-184zM557 918q-49 -21 -92 -62t-64 -85h-34q-21 44 -64 85.5t-91 61.5l5 20q45 -9 90.5 -24.5t76.5 -35.5q32 20 77 35.5t90 24.5z" />
    <glyph glyph-name="uni0145" unicode="&#x145;" horiz-adv-x="752" 
d="M116 109v522l-79 94h207l347 -447v353l-79 94h184l-50 -109v-628l-475 597v-491l79 -94h-184zM321 -306q36 21 57 53.5t21 66.5h-14q-30 0 -50 19t-20 46q0 28 20 47t50 19q35 0 58 -27.5t23 -69.5q0 -55 -37 -101.5t-97 -68.5z" />
    <glyph glyph-name="Eng" unicode="&#x14a;" horiz-adv-x="752" 
d="M116 109v522l-79 94h207l347 -447v353l-79 94h184l-50 -109v-567q81 -57 81 -131q0 -64 -51 -103.5t-132 -39.5q-54 0 -83 18t-29 51q0 25 17 40t45 15q18 0 50 -10q4 -1 19.5 -5t29.5 -4q27 0 43.5 13.5t16.5 37.5q0 35 -43 58t-114 27l51 92l-376 477v-491l79 -94h-184
z" />
    <glyph glyph-name="Ntilde" unicode="&#xd1;" horiz-adv-x="752" 
d="M116 109v522l-79 94h207l347 -447v353l-79 94h184l-50 -109v-628l-475 597v-491l79 -94h-184zM513 813.5q-23 -25.5 -68 -25.5q-23 0 -43 5t-48 14q-17 5 -33.5 9.5t-28.5 4.5q-37 0 -46 -35l-15 7q2 49 27.5 75t68.5 26q18 0 35.5 -4t32 -8.5t19.5 -5.5q43 -15 63 -15
q36 0 44 35l16 -7q-1 -50 -24 -75.5z" />
    <glyph glyph-name="O" unicode="O" horiz-adv-x="761" 
d="M83.5 562q41.5 85 117.5 131.5t178 46.5q105 0 181.5 -45t117.5 -130t41 -202q0 -116 -41 -200t-117.5 -129t-181.5 -45q-104 0 -180 45t-116.5 129t-40.5 200q0 114 41.5 199zM517 606q-47 81 -138 81q-90 0 -136 -81t-46 -241q0 -323 182 -323q92 0 138.5 81.5
t46.5 241.5t-47 241z" />
    <glyph glyph-name="Oacute" unicode="&#xd3;" horiz-adv-x="761" 
d="M83.5 562q41.5 85 117.5 131.5t178 46.5q105 0 181.5 -45t117.5 -130t41 -202q0 -116 -41 -200t-117.5 -129t-181.5 -45q-104 0 -180 45t-116.5 129t-40.5 200q0 114 41.5 199zM517 606q-47 81 -138 81q-90 0 -136 -81t-46 -241q0 -323 182 -323q92 0 138.5 81.5
t46.5 241.5t-47 241zM263 807q53 13 92 42t62 69q12 20 24 28.5t27 8.5q21 0 34.5 -12.5t13.5 -33.5q0 -23 -23 -43q-39 -35 -94.5 -56t-135.5 -22v19z" />
    <glyph glyph-name="Obreve" unicode="&#x14e;" horiz-adv-x="761" 
d="M83.5 562q41.5 85 117.5 131.5t178 46.5q105 0 181.5 -45t117.5 -130t41 -202q0 -116 -41 -200t-117.5 -129t-181.5 -45q-104 0 -180 45t-116.5 129t-40.5 200q0 114 41.5 199zM517 606q-47 81 -138 81q-90 0 -136 -81t-46 -241q0 -323 182 -323q92 0 138.5 81.5
t46.5 241.5t-47 241zM277 820.5q-41 37.5 -51 98.5l19 3q22 -39 54.5 -57.5t81.5 -18.5q50 0 82 18t53 58l19 -3q-10 -61 -51 -98.5t-103 -37.5q-63 0 -104 37.5z" />
    <glyph glyph-name="Ocircumflex" unicode="&#xd4;" horiz-adv-x="761" 
d="M83.5 562q41.5 85 117.5 131.5t178 46.5q105 0 181.5 -45t117.5 -130t41 -202q0 -116 -41 -200t-117.5 -129t-181.5 -45q-104 0 -180 45t-116.5 129t-40.5 200q0 114 41.5 199zM517 606q-47 81 -138 81q-90 0 -136 -81t-46 -241q0 -323 182 -323q92 0 138.5 81.5
t46.5 241.5t-47 241zM547 778q-43 8 -89 24t-78 36q-31 -20 -77 -36t-90 -24l-5 19q49 21 91.5 62.5t63.5 85.5h34q21 -44 64 -85.5t91 -62.5z" />
    <glyph glyph-name="Odieresis" unicode="&#xd6;" horiz-adv-x="761" 
d="M83.5 562q41.5 85 117.5 131.5t178 46.5q105 0 181.5 -45t117.5 -130t41 -202q0 -116 -41 -200t-117.5 -129t-181.5 -45q-104 0 -180 45t-116.5 129t-40.5 200q0 114 41.5 199zM517 606q-47 81 -138 81q-90 0 -136 -81t-46 -241q0 -323 182 -323q92 0 138.5 81.5
t46.5 241.5t-47 241zM239 809q-16 15 -16 38q0 24 15.5 38.5t38.5 14.5t37.5 -14.5t14.5 -38.5q0 -23 -14.5 -38t-37.5 -15q-22 0 -38 15zM449 809q-16 15 -16 38q0 24 15.5 38.5t38.5 14.5t37.5 -14.5t14.5 -38.5q0 -23 -14.5 -38t-37.5 -15q-22 0 -38 15z" />
    <glyph glyph-name="Ograve" unicode="&#xd2;" horiz-adv-x="761" 
d="M83.5 562q41.5 85 117.5 131.5t178 46.5q105 0 181.5 -45t117.5 -130t41 -202q0 -116 -41 -200t-117.5 -129t-181.5 -45q-104 0 -180 45t-116.5 129t-40.5 200q0 114 41.5 199zM517 606q-47 81 -138 81q-90 0 -136 -81t-46 -241q0 -323 182 -323q92 0 138.5 81.5
t46.5 241.5t-47 241zM361.5 810q-55.5 21 -94.5 56q-23 20 -23 43q0 21 13.5 33.5t34.5 12.5q15 0 27 -9t23 -28q24 -40 63.5 -69t91.5 -42v-19q-80 1 -135.5 22z" />
    <glyph glyph-name="Ohungarumlaut" unicode="&#x150;" horiz-adv-x="761" 
d="M83.5 562q41.5 85 117.5 131.5t178 46.5q105 0 181.5 -45t117.5 -130t41 -202q0 -116 -41 -200t-117.5 -129t-181.5 -45q-104 0 -180 45t-116.5 129t-40.5 200q0 114 41.5 199zM517 606q-47 81 -138 81q-90 0 -136 -81t-46 -241q0 -323 182 -323q92 0 138.5 81.5
t46.5 241.5t-47 241zM264 803q15 20 26.5 48.5t15.5 51.5q9 51 46 51q18 0 29 -11t11 -30q0 -20 -14 -41q-16 -23 -43 -44t-62 -34zM410 803q14 21 26 49.5t16 50.5q9 51 46 51q18 0 28.5 -11t10.5 -30t-13 -41q-16 -23 -43 -44t-62 -34z" />
    <glyph glyph-name="Omacron" unicode="&#x14c;" horiz-adv-x="761" 
d="M83.5 562q41.5 85 117.5 131.5t178 46.5q105 0 181.5 -45t117.5 -130t41 -202q0 -116 -41 -200t-117.5 -129t-181.5 -45q-104 0 -180 45t-116.5 129t-40.5 200q0 114 41.5 199zM517 606q-47 81 -138 81q-90 0 -136 -81t-46 -241q0 -323 182 -323q92 0 138.5 81.5
t46.5 241.5t-47 241zM228 857h307v-46h-307v46z" />
    <glyph glyph-name="Oslash" unicode="&#xd8;" horiz-adv-x="761" 
d="M169 55l-45 -55h-65l72 90q-43 49 -66 118t-23 155q0 114 41.5 199t117.5 131.5t178 46.5q132 0 219 -73l46 58h67l-76 -94q41 -48 62.5 -116.5t21.5 -151.5q0 -116 -41 -200t-117.5 -129t-181.5 -45q-126 0 -210 66zM224 201l302 379q-46 107 -147 107q-90 0 -136 -81
t-46 -241q0 -99 27 -164zM517.5 123.5q46.5 81.5 46.5 241.5q0 90 -23 154l-300 -377q43 -100 138 -100q92 0 138.5 81.5z" />
    <glyph glyph-name="Otilde" unicode="&#xd5;" horiz-adv-x="761" 
d="M83.5 562q41.5 85 117.5 131.5t178 46.5q105 0 181.5 -45t117.5 -130t41 -202q0 -116 -41 -200t-117.5 -129t-181.5 -45q-104 0 -180 45t-116.5 129t-40.5 200q0 114 41.5 199zM517 606q-47 81 -138 81q-90 0 -136 -81t-46 -241q0 -323 182 -323q92 0 138.5 81.5
t46.5 241.5t-47 241zM509 813.5q-23 -25.5 -68 -25.5q-23 0 -43 5t-48 14q-17 5 -33.5 9.5t-28.5 4.5q-37 0 -46 -35l-15 7q2 49 27.5 75t68.5 26q18 0 35.5 -4t32 -8.5t19.5 -5.5q43 -15 63 -15q36 0 44 35l16 -7q-1 -50 -24 -75.5z" />
    <glyph glyph-name="OE" unicode="&#x152;" horiz-adv-x="1016" 
d="M761 338h-129v-282h195l126 154v-210h-511q-198 0 -299 90.5t-101 265.5q0 178 103.5 273.5t295.5 95.5h463v-187l-115 131h-157v-274h135l72 64v-185zM491 56v613h-50q-245 0 -245 -305q0 -156 60.5 -232t185.5 -76h49z" />
    <glyph glyph-name="P" unicode="P" horiz-adv-x="670" 
d="M116 109v522l-79 94h311q139 0 214.5 -55t75.5 -155q0 -114 -99 -177t-282 -64v-180l79 -94h-270zM257 670v-344q119 3 176.5 48t57.5 132q0 79 -43 121.5t-123 42.5h-68z" />
    <glyph glyph-name="Thorn" unicode="&#xde;" horiz-adv-x="640" 
d="M116 109v522l-79 94h269l-49 -109v-56h96q129 0 198.5 -46t69.5 -132q0 -93 -79 -145t-216 -52q-33 0 -69 3v-94l79 -94h-270zM257 505v-261q28 -2 39 -2q88 0 133 34.5t45 102.5q0 61 -37 93.5t-108 32.5h-72z" />
    <glyph glyph-name="Q" unicode="Q" horiz-adv-x="761" 
d="M602 -220.5q-39 -19.5 -113 -19.5q-108 0 -170 39t-62 107q0 29 11 53t31 38q-122 23 -189 119t-67 247q0 114 41.5 199.5t117.5 131.5t178 46q105 0 181.5 -45t117 -129.5t40.5 -200.5q0 -108 -38.5 -191t-107.5 -131t-159 -54q-46 -4 -67 -17.5t-21 -39.5
q0 -32 29 -52.5t73 -20.5q36 0 86 18q4 1 24.5 7.5t39.5 6.5q29 0 46 -15t17 -40q0 -37 -39 -56.5zM517.5 123.5q46.5 81.5 46.5 241.5t-47 241t-138 81q-90 0 -136 -81t-46 -241q0 -323 182 -323q92 0 138.5 81.5z" />
    <glyph glyph-name="R" unicode="R" horiz-adv-x="679" 
d="M116 109v522l-79 94h306q136 0 207 -45.5t71 -132.5q0 -77 -54 -129.5t-155 -75.5q60 -15 103.5 -62t72.5 -128q18 -49 35 -67t46 -18q-4 -37 -29 -56t-67 -19q-53 0 -83 35.5t-53 122.5q-24 95 -65.5 135t-114.5 40v-231l79 -94h-270zM257 670v-291h35q88 0 138 41.5
t50 115.5q0 65 -39.5 99.5t-114.5 34.5h-69z" />
    <glyph glyph-name="Racute" unicode="&#x154;" horiz-adv-x="679" 
d="M116 109v522l-79 94h306q136 0 207 -45.5t71 -132.5q0 -77 -54 -129.5t-155 -75.5q60 -15 103.5 -62t72.5 -128q18 -49 35 -67t46 -18q-4 -37 -29 -56t-67 -19q-53 0 -83 35.5t-53 122.5q-24 95 -65.5 135t-114.5 40v-231l79 -94h-270zM257 670v-291h35q88 0 138 41.5
t50 115.5q0 65 -39.5 99.5t-114.5 34.5h-69zM229 807q53 13 92 42t62 69q12 20 24 28.5t27 8.5q21 0 34.5 -12.5t13.5 -33.5q0 -23 -23 -43q-39 -35 -94.5 -56t-135.5 -22v19z" />
    <glyph glyph-name="Rcaron" unicode="&#x158;" horiz-adv-x="679" 
d="M116 109v522l-79 94h306q136 0 207 -45.5t71 -132.5q0 -77 -54 -129.5t-155 -75.5q60 -15 103.5 -62t72.5 -128q18 -49 35 -67t46 -18q-4 -37 -29 -56t-67 -19q-53 0 -83 35.5t-53 122.5q-24 95 -65.5 135t-114.5 40v-231l79 -94h-270zM257 670v-291h35q88 0 138 41.5
t50 115.5q0 65 -39.5 99.5t-114.5 34.5h-69zM520 918q-49 -21 -92 -62t-64 -85h-34q-21 44 -64 85.5t-91 61.5l5 20q45 -9 90.5 -24.5t76.5 -35.5q32 20 77 35.5t90 24.5z" />
    <glyph glyph-name="uni0156" unicode="&#x156;" horiz-adv-x="679" 
d="M116 109v522l-79 94h306q136 0 207 -45.5t71 -132.5q0 -77 -54 -129.5t-155 -75.5q60 -15 103.5 -62t72.5 -128q18 -49 35 -67t46 -18q-4 -37 -29 -56t-67 -19q-53 0 -83 35.5t-53 122.5q-24 95 -65.5 135t-114.5 40v-231l79 -94h-270zM257 670v-291h35q88 0 138 41.5
t50 115.5q0 65 -39.5 99.5t-114.5 34.5h-69zM302 -306q36 21 57 53.5t21 66.5h-14q-30 0 -50 19t-20 46q0 28 20 47t50 19q35 0 58 -27.5t23 -69.5q0 -55 -37 -101.5t-97 -68.5z" />
    <glyph glyph-name="S" unicode="S" horiz-adv-x="685" 
d="M173 136q123 -91 228 -91q56 0 87 26.5t31 75.5q0 45 -31 75t-108 60l-116 41q-209 77 -209 228q0 55 26 98t73 67t106 24q52 0 104.5 -18.5t98.5 -52.5l113 53v-218l-86 73q-130 109 -220 109q-46 0 -72 -23.5t-26 -64.5t30 -71t98 -57l105 -38q123 -44 178 -99t55 -134
q0 -62 -30 -109.5t-85 -74t-126 -26.5q-53 0 -109.5 14.5t-100.5 40.5l-112 -54v224z" />
    <glyph glyph-name="Sacute" unicode="&#x15a;" horiz-adv-x="685" 
d="M173 136q123 -91 228 -91q56 0 87 26.5t31 75.5q0 45 -31 75t-108 60l-116 41q-209 77 -209 228q0 55 26 98t73 67t106 24q52 0 104.5 -18.5t98.5 -52.5l113 53v-218l-86 73q-130 109 -220 109q-46 0 -72 -23.5t-26 -64.5t30 -71t98 -57l105 -38q123 -44 178 -99t55 -134
q0 -62 -30 -109.5t-85 -74t-126 -26.5q-53 0 -109.5 14.5t-100.5 40.5l-112 -54v224zM220 807q53 13 92 42t62 69q12 20 24 28.5t27 8.5q21 0 34.5 -12.5t13.5 -33.5q0 -23 -23 -43q-39 -35 -94.5 -56t-135.5 -22v19z" />
    <glyph glyph-name="Scaron" unicode="&#x160;" horiz-adv-x="685" 
d="M173 136q123 -91 228 -91q56 0 87 26.5t31 75.5q0 45 -31 75t-108 60l-116 41q-209 77 -209 228q0 55 26 98t73 67t106 24q52 0 104.5 -18.5t98.5 -52.5l113 53v-218l-86 73q-130 109 -220 109q-46 0 -72 -23.5t-26 -64.5t30 -71t98 -57l105 -38q123 -44 178 -99t55 -134
q0 -62 -30 -109.5t-85 -74t-126 -26.5q-53 0 -109.5 14.5t-100.5 40.5l-112 -54v224zM511 918q-49 -21 -92 -62t-64 -85h-34q-21 44 -64 85.5t-91 61.5l5 20q45 -9 90.5 -24.5t76.5 -35.5q32 20 77 35.5t90 24.5z" />
    <glyph glyph-name="Scedilla" unicode="&#x15e;" horiz-adv-x="685" 
d="M390 -11l-21 -43q49 -3 79 -27.5t30 -59.5q0 -40 -38 -64t-97 -24q-38 0 -77 10l3 15q22 -2 31 -2q40 0 63 14.5t23 43.5q0 26 -22.5 39.5t-60.5 15.5l44 85q-42 5 -83.5 18.5t-76.5 33.5l-112 -54v224l98 -78q123 -91 228 -91q56 0 87 26.5t31 75.5q0 45 -31 75t-108 60
l-116 41q-209 77 -209 228q0 55 26 98t73 67t106 24q52 0 104.5 -18.5t98.5 -52.5l113 53v-218l-86 73q-130 109 -220 109q-46 0 -72 -23.5t-26 -64.5t30 -71t98 -57l105 -38q123 -44 178 -99t55 -134q0 -62 -30 -109.5t-85 -74t-126 -26.5h-7z" />
    <glyph glyph-name="Scircumflex" unicode="&#x15c;" horiz-adv-x="685" 
d="M173 136q123 -91 228 -91q56 0 87 26.5t31 75.5q0 45 -31 75t-108 60l-116 41q-209 77 -209 228q0 55 26 98t73 67t106 24q52 0 104.5 -18.5t98.5 -52.5l113 53v-218l-86 73q-130 109 -220 109q-46 0 -72 -23.5t-26 -64.5t30 -71t98 -57l105 -38q123 -44 178 -99t55 -134
q0 -62 -30 -109.5t-85 -74t-126 -26.5q-53 0 -109.5 14.5t-100.5 40.5l-112 -54v224zM505 778q-43 8 -89 24t-78 36q-31 -20 -77 -36t-90 -24l-5 19q49 21 91.5 62.5t63.5 85.5h34q21 -44 64 -85.5t91 -62.5z" />
    <glyph glyph-name="uni0218" unicode="&#x218;" horiz-adv-x="685" 
d="M173 136q123 -91 228 -91q56 0 87 26.5t31 75.5q0 45 -31 75t-108 60l-116 41q-209 77 -209 228q0 55 26 98t73 67t106 24q52 0 104.5 -18.5t98.5 -52.5l113 53v-218l-86 73q-130 109 -220 109q-46 0 -72 -23.5t-26 -64.5t30 -71t98 -57l105 -38q123 -44 178 -99t55 -134
q0 -62 -30 -109.5t-85 -74t-126 -26.5q-53 0 -109.5 14.5t-100.5 40.5l-112 -54v224zM312 -306q36 21 57 53.5t21 66.5h-14q-30 0 -50 19t-20 46q0 28 20 47t50 19q35 0 58 -27.5t23 -69.5q0 -55 -37 -101.5t-97 -68.5z" />
    <glyph glyph-name="uni1E9E" unicode="&#x1e9e;" horiz-adv-x="788" 
d="M109 101v358h-94v71h99q16 101 92.5 155.5t203.5 54.5q94 0 162.5 -30.5t115.5 -92.5l-204 -163q131 0 204.5 -62.5t73.5 -175.5q0 -66 -25.5 -117.5t-71.5 -80t-104 -28.5q-69 0 -120 39l-116 -39v210l80 -84q62 -61 115 -61q44 0 70 42t26 119q0 72 -25.5 114.5
t-81 61.5t-149.5 19l213 179q-26 49 -69 74.5t-100 25.5q-80 0 -117.5 -50t-37.5 -156v-484h-186z" />
    <glyph glyph-name="T" unicode="T" horiz-adv-x="657" 
d="M258 109v560h-99l-127 -167v223h594v-223l-128 167h-98v-575l79 -94h-270z" />
    <glyph glyph-name="Tbar" unicode="&#x166;" horiz-adv-x="657" 
d="M258 109v243h-124v49h124v268h-99l-127 -167v223h594v-223l-128 167h-98v-268h125v-49h-125v-258l79 -94h-270z" />
    <glyph glyph-name="Tcaron" unicode="&#x164;" horiz-adv-x="657" 
d="M258 109v560h-99l-127 -167v223h594v-223l-128 167h-98v-575l79 -94h-270zM501 918q-49 -21 -92 -62t-64 -85h-34q-21 44 -64 85.5t-91 61.5l5 20q45 -9 90.5 -24.5t76.5 -35.5q32 20 77 35.5t90 24.5z" />
    <glyph glyph-name="uni0162" unicode="&#x162;" horiz-adv-x="657" 
d="M626 725v-223l-128 167h-98v-575l79 -94h-136l-27 -54q49 -3 79 -27.5t30 -59.5q0 -40 -38 -64t-97 -24q-38 0 -77 10l3 15q22 -2 31 -2q40 0 63 14.5t23 43.5q0 26 -22.5 39.5t-60.5 15.5l48 93h-89l49 109v560h-99l-127 -167v223h594z" />
    <glyph glyph-name="uni021A" unicode="&#x21a;" horiz-adv-x="657" 
d="M258 109v560h-99l-127 -167v223h594v-223l-128 167h-98v-575l79 -94h-270zM259 -306q36 21 57 53.5t21 66.5h-14q-30 0 -50 19t-20 46q0 28 20 47t50 19q35 0 58 -27.5t23 -69.5q0 -55 -37 -101.5t-97 -68.5z" />
    <glyph glyph-name="U" unicode="U" horiz-adv-x="733" 
d="M105 631l-79 94h270l-50 -109v-338q0 -104 42.5 -156.5t125.5 -52.5t126 53t43 158v351l-79 94h184l-50 -109v-338q0 -144 -66.5 -216.5t-197.5 -72.5q-132 0 -200.5 72t-68.5 210v360z" />
    <glyph glyph-name="Uacute" unicode="&#xda;" horiz-adv-x="733" 
d="M105 631l-79 94h270l-50 -109v-338q0 -104 42.5 -156.5t125.5 -52.5t126 53t43 158v351l-79 94h184l-50 -109v-338q0 -144 -66.5 -216.5t-197.5 -72.5q-132 0 -200.5 72t-68.5 210v360zM270 807q53 13 92 42t62 69q12 20 24 28.5t27 8.5q21 0 34.5 -12.5t13.5 -33.5
q0 -23 -23 -43q-39 -35 -94.5 -56t-135.5 -22v19z" />
    <glyph glyph-name="Ubreve" unicode="&#x16c;" horiz-adv-x="733" 
d="M105 631l-79 94h270l-50 -109v-338q0 -104 42.5 -156.5t125.5 -52.5t126 53t43 158v351l-79 94h184l-50 -109v-338q0 -144 -66.5 -216.5t-197.5 -72.5q-132 0 -200.5 72t-68.5 210v360zM284 820.5q-41 37.5 -51 98.5l19 3q22 -39 54.5 -57.5t81.5 -18.5q50 0 82 18t53 58
l19 -3q-10 -61 -51 -98.5t-103 -37.5q-63 0 -104 37.5z" />
    <glyph glyph-name="Ucircumflex" unicode="&#xdb;" horiz-adv-x="733" 
d="M105 631l-79 94h270l-50 -109v-338q0 -104 42.5 -156.5t125.5 -52.5t126 53t43 158v351l-79 94h184l-50 -109v-338q0 -144 -66.5 -216.5t-197.5 -72.5q-132 0 -200.5 72t-68.5 210v360zM554 778q-43 8 -89 24t-78 36q-31 -20 -77 -36t-90 -24l-5 19q49 21 91.5 62.5
t63.5 85.5h34q21 -44 64 -85.5t91 -62.5z" />
    <glyph glyph-name="Udieresis" unicode="&#xdc;" horiz-adv-x="733" 
d="M105 631l-79 94h270l-50 -109v-338q0 -104 42.5 -156.5t125.5 -52.5t126 53t43 158v351l-79 94h184l-50 -109v-338q0 -144 -66.5 -216.5t-197.5 -72.5q-132 0 -200.5 72t-68.5 210v360zM246 809q-16 15 -16 38q0 24 15.5 38.5t38.5 14.5t37.5 -14.5t14.5 -38.5
q0 -23 -14.5 -38t-37.5 -15q-22 0 -38 15zM456 809q-16 15 -16 38q0 24 15.5 38.5t38.5 14.5t37.5 -14.5t14.5 -38.5q0 -23 -14.5 -38t-37.5 -15q-22 0 -38 15z" />
    <glyph glyph-name="Ugrave" unicode="&#xd9;" horiz-adv-x="733" 
d="M105 631l-79 94h270l-50 -109v-338q0 -104 42.5 -156.5t125.5 -52.5t126 53t43 158v351l-79 94h184l-50 -109v-338q0 -144 -66.5 -216.5t-197.5 -72.5q-132 0 -200.5 72t-68.5 210v360zM369.5 810q-55.5 21 -94.5 56q-23 20 -23 43q0 21 13.5 33.5t34.5 12.5q15 0 27 -9
t23 -28q24 -40 63.5 -69t91.5 -42v-19q-80 1 -135.5 22z" />
    <glyph glyph-name="Uhungarumlaut" unicode="&#x170;" horiz-adv-x="733" 
d="M105 631l-79 94h270l-50 -109v-338q0 -104 42.5 -156.5t125.5 -52.5t126 53t43 158v351l-79 94h184l-50 -109v-338q0 -144 -66.5 -216.5t-197.5 -72.5q-132 0 -200.5 72t-68.5 210v360zM272 803q15 20 26.5 48.5t15.5 51.5q9 51 46 51q18 0 29 -11t11 -30q0 -20 -14 -41
q-16 -23 -43 -44t-62 -34zM418 803q14 21 26 49.5t16 50.5q9 51 46 51q18 0 28.5 -11t10.5 -30t-13 -41q-16 -23 -43 -44t-62 -34z" />
    <glyph glyph-name="Umacron" unicode="&#x16a;" horiz-adv-x="733" 
d="M105 631l-79 94h270l-50 -109v-338q0 -104 42.5 -156.5t125.5 -52.5t126 53t43 158v351l-79 94h184l-50 -109v-338q0 -144 -66.5 -216.5t-197.5 -72.5q-132 0 -200.5 72t-68.5 210v360zM235 857h307v-46h-307v46z" />
    <glyph glyph-name="Uogonek" unicode="&#x172;" horiz-adv-x="733" 
d="M105 631l-79 94h270l-50 -109v-338q0 -103 42.5 -156t125.5 -53q84 0 126.5 53.5t42.5 157.5v351l-79 94h184l-50 -109v-338q0 -88 -23 -147t-73 -99q-67 -55 -67 -133q0 -40 16 -65t49 -38l-5 -13q-65 -2 -103.5 27t-38.5 80q0 29 13.5 56.5t38.5 49.5q-31 -7 -71 -7
q-132 0 -200.5 72t-68.5 210v360z" />
    <glyph glyph-name="Uring" unicode="&#x16e;" horiz-adv-x="733" 
d="M105 631l-79 94h270l-50 -109v-338q0 -104 42.5 -156.5t125.5 -52.5t126 53t43 158v351l-79 94h184l-50 -109v-338q0 -144 -66.5 -216.5t-197.5 -72.5q-132 0 -200.5 72t-68.5 210v360zM314 800q-29 29 -29 72q0 44 29 73.5t72 29.5q44 0 73.5 -29.5t29.5 -73.5
q0 -43 -29.5 -72t-73.5 -29q-43 0 -72 29zM439 820q21 21 21 53t-21 52.5t-53 20.5q-31 0 -52 -20.5t-21 -52.5t20.5 -53t52.5 -21t53 21z" />
    <glyph glyph-name="Utilde" unicode="&#x168;" horiz-adv-x="733" 
d="M105 631l-79 94h270l-50 -109v-338q0 -104 42.5 -156.5t125.5 -52.5t126 53t43 158v351l-79 94h184l-50 -109v-338q0 -144 -66.5 -216.5t-197.5 -72.5q-132 0 -200.5 72t-68.5 210v360zM517 813.5q-23 -25.5 -68 -25.5q-23 0 -43 5t-48 14q-17 5 -33.5 9.5t-28.5 4.5
q-37 0 -46 -35l-15 7q2 49 27.5 75t68.5 26q18 0 35.5 -4t32 -8.5t19.5 -5.5q43 -15 63 -15q36 0 44 35l16 -7q-1 -50 -24 -75.5z" />
    <glyph glyph-name="V" unicode="V" horiz-adv-x="665" 
d="M85 623l-85 102h283l-46 -103l156 -523l156 523l-86 103h191l-50 -113l-183 -612h-149z" />
    <glyph glyph-name="W" unicode="W" horiz-adv-x="1039" 
d="M234 622l153 -522l115 395l-38 128l-85 102h277l-45 -103l156 -527l156 528l-86 102h191l-49 -112l-183 -613h-148l-117 395l-115 -395h-149l-183 622l-84 103h280z" />
    <glyph glyph-name="Wacute" unicode="&#x1e82;" horiz-adv-x="1039" 
d="M234 622l153 -522l115 395l-38 128l-85 102h277l-45 -103l156 -527l156 528l-86 102h191l-49 -112l-183 -613h-148l-117 395l-115 -395h-149l-183 622l-84 103h280zM429 807q53 13 92 42t62 69q12 20 24 28.5t27 8.5q21 0 34.5 -12.5t13.5 -33.5q0 -23 -23 -43
q-39 -35 -94.5 -56t-135.5 -22v19z" />
    <glyph glyph-name="Wcircumflex" unicode="&#x174;" horiz-adv-x="1039" 
d="M234 622l153 -522l115 395l-38 128l-85 102h277l-45 -103l156 -527l156 528l-86 102h191l-49 -112l-183 -613h-148l-117 395l-115 -395h-149l-183 622l-84 103h280zM714 778q-43 8 -89 24t-78 36q-31 -20 -77 -36t-90 -24l-5 19q49 21 91.5 62.5t63.5 85.5h34
q21 -44 64 -85.5t91 -62.5z" />
    <glyph glyph-name="Wdieresis" unicode="&#x1e84;" horiz-adv-x="1039" 
d="M387 809q-16 15 -16 38q0 24 16 38.5t38 14.5t37 -14.5t15 -38.5q0 -23 -15 -38t-37 -15t-38 15zM629 809q-16 15 -16 38q0 24 16 38.5t38 14.5q23 0 37.5 -14.5t14.5 -38.5q0 -23 -14.5 -38t-37.5 -15q-22 0 -38 15zM234 622l153 -522l115 395l-38 128l-85 102h277
l-45 -103l156 -527l156 528l-86 102h191l-49 -112l-183 -613h-148l-117 395l-115 -395h-149l-183 622l-84 103h280z" />
    <glyph glyph-name="Wgrave" unicode="&#x1e80;" horiz-adv-x="1039" 
d="M234 622l153 -522l115 395l-38 128l-85 102h277l-45 -103l156 -527l156 528l-86 102h191l-49 -112l-183 -613h-148l-117 395l-115 -395h-149l-183 622l-84 103h280zM528.5 810q-55.5 21 -94.5 56q-23 20 -23 43q0 21 13.5 33.5t34.5 12.5q15 0 27 -9t23 -28
q24 -40 63.5 -69t91.5 -42v-19q-80 1 -135.5 22z" />
    <glyph glyph-name="X" unicode="X" horiz-adv-x="663" 
d="M0 0l255 347l-252 378h272l-44 -95l122 -181l138 193l-72 83h204l-237 -327l267 -398h-273l44 95l-135 202l-154 -213l72 -84h-207z" />
    <glyph glyph-name="Y" unicode="Y" horiz-adv-x="661" 
d="M268 109v220l-173 281l-95 115h299l-47 -103l137 -225l143 237l-77 91h195l-241 -402v-229l79 -94h-269z" />
    <glyph glyph-name="Yacute" unicode="&#xdd;" horiz-adv-x="661" 
d="M268 109v220l-173 281l-95 115h299l-47 -103l137 -225l143 237l-77 91h195l-241 -402v-229l79 -94h-269zM244 807q53 13 92 42t62 69q12 20 24 28.5t27 8.5q21 0 34.5 -12.5t13.5 -33.5q0 -23 -23 -43q-39 -35 -94.5 -56t-135.5 -22v19z" />
    <glyph glyph-name="Ycircumflex" unicode="&#x176;" horiz-adv-x="661" 
d="M268 109v220l-173 281l-95 115h299l-47 -103l137 -225l143 237l-77 91h195l-241 -402v-229l79 -94h-269zM528 778q-43 8 -89 24t-78 36q-31 -20 -77 -36t-90 -24l-5 19q49 21 91.5 62.5t63.5 85.5h34q21 -44 64 -85.5t91 -62.5z" />
    <glyph glyph-name="Ydieresis" unicode="&#x178;" horiz-adv-x="661" 
d="M268 109v220l-173 281l-95 115h299l-47 -103l137 -225l143 237l-77 91h195l-241 -402v-229l79 -94h-269zM219 809q-16 15 -16 38q0 24 15.5 38.5t38.5 14.5t37.5 -14.5t14.5 -38.5q0 -23 -14.5 -38t-37.5 -15q-22 0 -38 15zM429 809q-16 15 -16 38q0 24 15.5 38.5
t38.5 14.5t37.5 -14.5t14.5 -38.5q0 -23 -14.5 -38t-37.5 -15q-22 0 -38 15z" />
    <glyph glyph-name="Ygrave" unicode="&#x1ef2;" horiz-adv-x="661" 
d="M268 109v220l-173 281l-95 115h299l-47 -103l137 -225l143 237l-77 91h195l-241 -402v-229l79 -94h-269zM342.5 810q-55.5 21 -94.5 56q-23 20 -23 43q0 21 13.5 33.5t34.5 12.5q15 0 27 -9t23 -28q24 -40 63.5 -69t91.5 -42v-19q-80 1 -135.5 22z" />
    <glyph glyph-name="Z" unicode="Z" horiz-adv-x="711" 
d="M100 725h547l-402 -670h231l165 184v-239h-588l400 670h-209l-144 -179v234z" />
    <glyph glyph-name="Zacute" unicode="&#x179;" horiz-adv-x="711" 
d="M100 725h547l-402 -670h231l165 184v-239h-588l400 670h-209l-144 -179v234zM267 807q53 13 92 42t62 69q12 20 24 28.5t27 8.5q21 0 34.5 -12.5t13.5 -33.5q0 -23 -23 -43q-39 -35 -94.5 -56t-135.5 -22v19z" />
    <glyph glyph-name="Zcaron" unicode="&#x17d;" horiz-adv-x="711" 
d="M100 725h547l-402 -670h231l165 184v-239h-588l400 670h-209l-144 -179v234zM557 918q-49 -21 -92 -62t-64 -85h-34q-21 44 -64 85.5t-91 61.5l5 20q45 -9 90.5 -24.5t76.5 -35.5q32 20 77 35.5t90 24.5z" />
    <glyph glyph-name="Zdotaccent" unicode="&#x17b;" horiz-adv-x="711" 
d="M100 725h547l-402 -670h231l165 184v-239h-588l400 670h-209l-144 -179v234zM337.5 821.5q-18.5 18.5 -18.5 46.5t18.5 46t47.5 18q28 0 46.5 -18t18.5 -46t-18.5 -46.5t-46.5 -18.5q-29 0 -47.5 18.5z" />
    <glyph glyph-name="uni01B5" unicode="&#x1b5;" horiz-adv-x="711" 
d="M476 55l165 184v-239h-588l202 339h-109v47h137l170 284h-209l-144 -179v234h547l-203 -339h110v-47h-139l-170 -284h231z" />
    <glyph glyph-name="R.ss03" horiz-adv-x="744" 
d="M111 113v512l-79 100h307q143 0 216 -46t73 -134q0 -81 -60.5 -137t-172.5 -81q73 -7 110 -39q56 -49 67 -165q4 -45 14 -64t29 -19q28 0 28 34q0 13 -4 25.5t-5 15.5q-9 22 -9 37q0 22 13.5 36.5t34.5 14.5q25 0 40.5 -23.5t15.5 -62.5q0 -61 -40.5 -94.5t-113.5 -33.5
q-72 0 -108.5 36t-48.5 120q-13 87 -50 122.5t-115 35.5v-205l79 -98h-270zM253 670v-310q227 5 227 175q0 68 -37.5 101.5t-116.5 33.5h-73z" />
    <glyph glyph-name="Racute.ss03" horiz-adv-x="744" 
d="M111 113v512l-79 100h307q143 0 216 -46t73 -134q0 -81 -60.5 -137t-172.5 -81q73 -7 110 -39q56 -49 67 -165q4 -45 14 -64t29 -19q28 0 28 34q0 13 -4 25.5t-5 15.5q-9 22 -9 37q0 22 13.5 36.5t34.5 14.5q25 0 40.5 -23.5t15.5 -62.5q0 -61 -40.5 -94.5t-113.5 -33.5
q-72 0 -108.5 36t-48.5 120q-13 87 -50 122.5t-115 35.5v-205l79 -98h-270zM253 670v-310q227 5 227 175q0 68 -37.5 101.5t-116.5 33.5h-73zM238 807q53 13 92 42t62 69q12 20 24 28.5t27 8.5q21 0 34.5 -12.5t13.5 -33.5q0 -23 -23 -43q-39 -35 -94.5 -56t-135.5 -22v19z
" />
    <glyph glyph-name="Rcaron.ss03" horiz-adv-x="744" 
d="M111 113v512l-79 100h307q143 0 216 -46t73 -134q0 -81 -60.5 -137t-172.5 -81q73 -7 110 -39q56 -49 67 -165q4 -45 14 -64t29 -19q28 0 28 34q0 13 -4 25.5t-5 15.5q-9 22 -9 37q0 22 13.5 36.5t34.5 14.5q25 0 40.5 -23.5t15.5 -62.5q0 -61 -40.5 -94.5t-113.5 -33.5
q-72 0 -108.5 36t-48.5 120q-13 87 -50 122.5t-115 35.5v-205l79 -98h-270zM253 670v-310q227 5 227 175q0 68 -37.5 101.5t-116.5 33.5h-73zM528 918q-49 -21 -92 -62t-64 -85h-34q-21 44 -64 85.5t-91 61.5l5 20q45 -9 90.5 -24.5t76.5 -35.5q32 20 77 35.5t90 24.5z" />
    <glyph glyph-name="uni0156.ss03" horiz-adv-x="744" 
d="M111 113v512l-79 100h307q143 0 216 -46t73 -134q0 -81 -60.5 -137t-172.5 -81q73 -7 110 -39q56 -49 67 -165q4 -45 14 -64t29 -19q28 0 28 34q0 13 -4 25.5t-5 15.5q-9 22 -9 37q0 22 13.5 36.5t34.5 14.5q25 0 40.5 -23.5t15.5 -62.5q0 -61 -40.5 -94.5t-113.5 -33.5
q-72 0 -108.5 36t-48.5 120q-13 87 -50 122.5t-115 35.5v-205l79 -98h-270zM253 670v-310q227 5 227 175q0 68 -37.5 101.5t-116.5 33.5h-73zM309 -303q36 20 57 52.5t21 67.5h-15q-29 0 -49 19t-20 46q0 28 20 47t50 19q35 0 58 -27.5t23 -69.5q0 -55 -37 -101.5t-97 -68.5
z" />
    <glyph glyph-name="a" unicode="a" horiz-adv-x="608" 
d="M89 27.5q-48 38.5 -48 104.5q0 55 37.5 92t109.5 55q70 22 187 22v47q0 77 -26.5 114.5t-79.5 37.5q-42 0 -64 -22t-24 -65q0 -35 -16 -54.5t-45 -19.5q-28 0 -45.5 18.5t-17.5 49.5q0 42 28.5 74.5t80 50.5t117.5 18q113 0 172.5 -53.5t59.5 -152.5v-208q0 -56 42 -56
q13 0 21 5l5 -5q-7 -39 -32.5 -59.5t-66.5 -20.5q-36 0 -61.5 17.5t-35.5 47.5q-22 -36 -66 -56t-102 -20q-82 0 -130 38.5zM338.5 76q25.5 19 36.5 53v130q-38 -1 -75.5 -7.5t-60.5 -16.5q-57 -25 -57 -86q0 -42 26 -67t68 -25q37 0 62.5 19z" />
    <glyph glyph-name="aacute" unicode="&#xe1;" horiz-adv-x="608" 
d="M89 27.5q-48 38.5 -48 104.5q0 55 37.5 92t109.5 55q70 22 187 22v47q0 77 -26.5 114.5t-79.5 37.5q-42 0 -64 -22t-24 -65q0 -35 -16 -54.5t-45 -19.5q-28 0 -45.5 18.5t-17.5 49.5q0 42 28.5 74.5t80 50.5t117.5 18q113 0 172.5 -53.5t59.5 -152.5v-208q0 -56 42 -56
q13 0 21 5l5 -5q-7 -39 -32.5 -59.5t-66.5 -20.5q-36 0 -61.5 17.5t-35.5 47.5q-22 -36 -66 -56t-102 -20q-82 0 -130 38.5zM338.5 76q25.5 19 36.5 53v130q-38 -1 -75.5 -7.5t-60.5 -16.5q-57 -25 -57 -86q0 -42 26 -67t68 -25q37 0 62.5 19zM174 617q43 11 75.5 35.5
t57.5 65.5q15 22 27.5 31.5t27.5 9.5q21 0 35 -13.5t14 -34.5q0 -24 -24 -47q-32 -30 -85.5 -47.5t-127.5 -18.5v19z" />
    <glyph glyph-name="abreve" unicode="&#x103;" horiz-adv-x="608" 
d="M89 27.5q-48 38.5 -48 104.5q0 55 37.5 92t109.5 55q70 22 187 22v47q0 77 -26.5 114.5t-79.5 37.5q-42 0 -64 -22t-24 -65q0 -35 -16 -54.5t-45 -19.5q-28 0 -45.5 18.5t-17.5 49.5q0 42 28.5 74.5t80 50.5t117.5 18q113 0 172.5 -53.5t59.5 -152.5v-208q0 -56 42 -56
q13 0 21 5l5 -5q-7 -39 -32.5 -59.5t-66.5 -20.5q-36 0 -61.5 17.5t-35.5 47.5q-22 -36 -66 -56t-102 -20q-82 0 -130 38.5zM338.5 76q25.5 19 36.5 53v130q-38 -1 -75.5 -7.5t-60.5 -16.5q-57 -25 -57 -86q0 -42 26 -67t68 -25q37 0 62.5 19zM171.5 630.5
q-38.5 37.5 -46.5 106.5h20q17 -42 48.5 -61.5t83.5 -19.5t83 19t49 62h19q-8 -69 -46 -106.5t-105 -37.5t-105.5 37.5z" />
    <glyph glyph-name="acircumflex" unicode="&#xe2;" horiz-adv-x="608" 
d="M89 27.5q-48 38.5 -48 104.5q0 55 37.5 92t109.5 55q70 22 187 22v47q0 77 -26.5 114.5t-79.5 37.5q-42 0 -64 -22t-24 -65q0 -35 -16 -54.5t-45 -19.5q-28 0 -45.5 18.5t-17.5 49.5q0 42 28.5 74.5t80 50.5t117.5 18q113 0 172.5 -53.5t59.5 -152.5v-208q0 -56 42 -56
q13 0 21 5l5 -5q-7 -39 -32.5 -59.5t-66.5 -20.5q-36 0 -61.5 17.5t-35.5 47.5q-22 -36 -66 -56t-102 -20q-82 0 -130 38.5zM338.5 76q25.5 19 36.5 53v130q-38 -1 -75.5 -7.5t-60.5 -16.5q-57 -25 -57 -86q0 -42 26 -67t68 -25q37 0 62.5 19zM354.5 610.5
q-44.5 14.5 -77.5 33.5q-71 -40 -170 -56l-5 19q113 51 158 145h34q46 -96 158 -145l-6 -19q-47 8 -91.5 22.5z" />
    <glyph glyph-name="adieresis" unicode="&#xe4;" horiz-adv-x="608" 
d="M89 27.5q-48 38.5 -48 104.5q0 55 37.5 92t109.5 55q70 22 187 22v47q0 77 -26.5 114.5t-79.5 37.5q-42 0 -64 -22t-24 -65q0 -35 -16 -54.5t-45 -19.5q-28 0 -45.5 18.5t-17.5 49.5q0 42 28.5 74.5t80 50.5t117.5 18q113 0 172.5 -53.5t59.5 -152.5v-208q0 -56 42 -56
q13 0 21 5l5 -5q-7 -39 -32.5 -59.5t-66.5 -20.5q-36 0 -61.5 17.5t-35.5 47.5q-22 -36 -66 -56t-102 -20q-82 0 -130 38.5zM338.5 76q25.5 19 36.5 53v130q-38 -1 -75.5 -7.5t-60.5 -16.5q-57 -25 -57 -86q0 -42 26 -67t68 -25q37 0 62.5 19zM210.5 696.5
q15.5 -15.5 15.5 -39.5t-16 -39.5t-39 -15.5q-24 0 -40 15.5t-16 39.5q0 25 16 40t40 15t39.5 -15.5zM421.5 696.5q15.5 -15.5 15.5 -39.5t-15.5 -39.5t-39.5 -15.5q-23 0 -39.5 15.5t-16.5 39.5q0 25 16.5 40t39.5 15q24 0 39.5 -15.5z" />
    <glyph glyph-name="agrave" unicode="&#xe0;" horiz-adv-x="608" 
d="M89 27.5q-48 38.5 -48 104.5q0 55 37.5 92t109.5 55q70 22 187 22v47q0 77 -26.5 114.5t-79.5 37.5q-42 0 -64 -22t-24 -65q0 -35 -16 -54.5t-45 -19.5q-28 0 -45.5 18.5t-17.5 49.5q0 42 28.5 74.5t80 50.5t117.5 18q113 0 172.5 -53.5t59.5 -152.5v-208q0 -56 42 -56
q13 0 21 5l5 -5q-7 -39 -32.5 -59.5t-66.5 -20.5q-36 0 -61.5 17.5t-35.5 47.5q-22 -36 -66 -56t-102 -20q-82 0 -130 38.5zM338.5 76q25.5 19 36.5 53v130q-38 -1 -75.5 -7.5t-60.5 -16.5q-57 -25 -57 -86q0 -42 26 -67t68 -25q37 0 62.5 19zM253.5 616.5
q-53.5 17.5 -84.5 47.5q-25 22 -25 47q0 21 13.5 34.5t35.5 13.5q15 0 28 -10t27 -31q25 -41 57.5 -65.5t75.5 -35.5v-19q-74 1 -127.5 18.5z" />
    <glyph glyph-name="amacron" unicode="&#x101;" horiz-adv-x="608" 
d="M89 27.5q-48 38.5 -48 104.5q0 55 37.5 92t109.5 55q70 22 187 22v47q0 77 -26.5 114.5t-79.5 37.5q-42 0 -64 -22t-24 -65q0 -35 -16 -54.5t-45 -19.5q-28 0 -45.5 18.5t-17.5 49.5q0 42 28.5 74.5t80 50.5t117.5 18q113 0 172.5 -53.5t59.5 -152.5v-208q0 -56 42 -56
q13 0 21 5l5 -5q-7 -39 -32.5 -59.5t-66.5 -20.5q-36 0 -61.5 17.5t-35.5 47.5q-22 -36 -66 -56t-102 -20q-82 0 -130 38.5zM338.5 76q25.5 19 36.5 53v130q-38 -1 -75.5 -7.5t-60.5 -16.5q-57 -25 -57 -86q0 -42 26 -67t68 -25q37 0 62.5 19zM123 659h307v-46h-307v46z" />
    <glyph glyph-name="aogonek" unicode="&#x105;" horiz-adv-x="608" 
d="M461.5 -190q-38.5 29 -38.5 80q0 31 15 59.5t42 50.5q-34 1 -59 18.5t-34 46.5q-22 -37 -66 -56.5t-102 -19.5q-82 0 -130 38.5t-48 104.5q0 55 37.5 92t109.5 55q69 22 187 22v47q0 77 -26.5 114.5t-79.5 37.5q-42 0 -64 -22t-24 -65q0 -35 -16 -54.5t-45 -19.5
q-28 0 -45.5 18.5t-17.5 49.5q0 42 28.5 74.5t80 50.5t117.5 18q112 0 172 -53.5t60 -152.5v-208q0 -56 43 -56q12 0 20 5l5 -5q-6 -35 -31 -60q-22 -23 -34.5 -55.5t-12.5 -67.5q0 -76 65 -101l-5 -13q-65 -2 -103.5 27zM375 259q-38 -1 -75.5 -7.5t-60.5 -16.5
q-57 -25 -57 -86q0 -42 26 -67t68 -25q37 0 62.5 19t36.5 53v130z" />
    <glyph glyph-name="aring" unicode="&#xe5;" horiz-adv-x="608" 
d="M89 27.5q-48 38.5 -48 104.5q0 55 37.5 92t109.5 55q70 22 187 22v47q0 77 -26.5 114.5t-79.5 37.5q-42 0 -64 -22t-24 -65q0 -35 -16 -54.5t-45 -19.5q-28 0 -45.5 18.5t-17.5 49.5q0 42 28.5 74.5t80 50.5t117.5 18q113 0 172.5 -53.5t59.5 -152.5v-208q0 -56 42 -56
q13 0 21 5l5 -5q-7 -39 -32.5 -59.5t-66.5 -20.5q-36 0 -61.5 17.5t-35.5 47.5q-22 -36 -66 -56t-102 -20q-82 0 -130 38.5zM338.5 76q25.5 19 36.5 53v130q-38 -1 -75.5 -7.5t-60.5 -16.5q-57 -25 -57 -86q0 -42 26 -67t68 -25q37 0 62.5 19zM203 610q-29 29 -29 72
q0 44 29 73.5t72 29.5q44 0 73.5 -29.5t29.5 -73.5q0 -43 -29.5 -72t-73.5 -29q-43 0 -72 29zM328 630q21 21 21 53t-21 52.5t-53 20.5t-52.5 -20.5t-20.5 -52.5t20.5 -53t52.5 -21t53 21z" />
    <glyph glyph-name="atilde" unicode="&#xe3;" horiz-adv-x="608" 
d="M89 27.5q-48 38.5 -48 104.5q0 55 37.5 92t109.5 55q70 22 187 22v47q0 77 -26.5 114.5t-79.5 37.5q-42 0 -64 -22t-24 -65q0 -35 -16 -54.5t-45 -19.5q-28 0 -45.5 18.5t-17.5 49.5q0 42 28.5 74.5t80 50.5t117.5 18q113 0 172.5 -53.5t59.5 -152.5v-208q0 -56 42 -56
q13 0 21 5l5 -5q-7 -39 -32.5 -59.5t-66.5 -20.5q-36 0 -61.5 17.5t-35.5 47.5q-22 -36 -66 -56t-102 -20q-82 0 -130 38.5zM338.5 76q25.5 19 36.5 53v130q-38 -1 -75.5 -7.5t-60.5 -16.5q-57 -25 -57 -86q0 -42 26 -67t68 -25q37 0 62.5 19zM405 628.5
q-23 -25.5 -68 -25.5q-23 0 -43 5t-48 14q-17 5 -33.5 9.5t-28.5 4.5q-37 0 -46 -35l-15 7q2 49 27.5 75t68.5 26q18 0 35.5 -4t32 -8.5t19.5 -5.5q43 -15 63 -15q36 0 44 35l16 -7q-1 -50 -24 -75.5z" />
    <glyph glyph-name="ae" unicode="&#xe6;" horiz-adv-x="948" 
d="M518 268q9 -96 62 -147.5t144 -51.5q50 0 90.5 18t82.5 59l10 -8q-37 -73 -102 -111t-152 -38q-83 0 -146 34.5t-96 97.5q-38 -132 -188 -132q-83 0 -132.5 39t-49.5 104q0 55 38 93t111 55q35 10 84.5 15.5t100.5 5.5v47q0 77 -26.5 114.5t-79.5 37.5q-42 0 -64 -22
t-24 -65q0 -35 -16 -54.5t-45 -19.5q-28 0 -45.5 18.5t-17.5 49.5q0 42 28.5 74.5t79.5 50.5t115 18q63 0 110.5 -21t74.5 -60q35 38 83.5 59.5t105.5 21.5q117 0 179 -74t58 -208h-373zM553.5 448.5q-34.5 -45.5 -38.5 -128.5h253q0 86 -30.5 130t-88.5 44
q-61 0 -95.5 -45.5zM375 259q-89 -2 -135 -24q-58 -26 -58 -88q0 -41 23.5 -65.5t63.5 -24.5q51 0 78.5 41.5t27.5 117.5v43z" />
    <glyph glyph-name="aeacute" unicode="&#x1fd;" horiz-adv-x="948" 
d="M518 268q9 -96 62 -147.5t144 -51.5q50 0 90.5 18t82.5 59l10 -8q-37 -73 -102 -111t-152 -38q-83 0 -146 34.5t-96 97.5q-38 -132 -188 -132q-83 0 -132.5 39t-49.5 104q0 55 38 93t111 55q35 10 84.5 15.5t100.5 5.5v47q0 77 -26.5 114.5t-79.5 37.5q-42 0 -64 -22
t-24 -65q0 -35 -16 -54.5t-45 -19.5q-28 0 -45.5 18.5t-17.5 49.5q0 42 28.5 74.5t79.5 50.5t115 18q63 0 110.5 -21t74.5 -60q35 38 83.5 59.5t105.5 21.5q117 0 179 -74t58 -208h-373zM553.5 448.5q-34.5 -45.5 -38.5 -128.5h253q0 86 -30.5 130t-88.5 44
q-61 0 -95.5 -45.5zM375 259q-89 -2 -135 -24q-58 -26 -58 -88q0 -41 23.5 -65.5t63.5 -24.5q51 0 78.5 41.5t27.5 117.5v43zM341 612q53 13 92 42t62 69q12 20 24 28.5t27 8.5q21 0 34.5 -12.5t13.5 -33.5q0 -23 -23 -43q-39 -35 -94.5 -56t-135.5 -22v19z" />
    <glyph glyph-name="b" unicode="b" horiz-adv-x="675" 
d="M234 750v-303q27 49 73 76t104 27q66 0 116.5 -35t78.5 -98t28 -146q0 -84 -28 -148t-78.5 -99t-116.5 -35q-63 0 -111 31t-74 87l-16 -107h-116v652l-85 98h225zM283 102.5q32 -22.5 73 -22.5q61 0 96.5 50.5t35.5 139.5q0 88 -35 138.5t-96 50.5q-42 0 -74 -23t-49 -64
v-206q17 -41 49 -63.5z" />
    <glyph glyph-name="c" unicode="c" horiz-adv-x="596" 
d="M576 137q-79 -148 -253 -148q-83 0 -147 34t-99.5 95.5t-35.5 142.5q0 82 36.5 148t101.5 103.5t146 37.5q62 0 113 -21.5t80.5 -59t29.5 -81.5q0 -34 -17 -51.5t-49 -17.5t-48.5 18.5t-19.5 57.5q-9 94 -90 94q-64 0 -101.5 -53t-37.5 -141q0 -106 54.5 -165.5
t149.5 -59.5q101 0 177 74z" />
    <glyph glyph-name="cacute" unicode="&#x107;" horiz-adv-x="596" 
d="M576 137q-79 -148 -253 -148q-83 0 -147 34t-99.5 95.5t-35.5 142.5q0 82 36.5 148t101.5 103.5t146 37.5q62 0 113 -21.5t80.5 -59t29.5 -81.5q0 -34 -17 -51.5t-49 -17.5t-48.5 18.5t-19.5 57.5q-9 94 -90 94q-64 0 -101.5 -53t-37.5 -141q0 -106 54.5 -165.5
t149.5 -59.5q101 0 177 74zM218 617q43 11 75.5 35.5t57.5 65.5q15 22 27.5 31.5t27.5 9.5q21 0 35 -13.5t14 -34.5q0 -24 -24 -47q-32 -30 -85.5 -47.5t-127.5 -18.5v19z" />
    <glyph glyph-name="ccaron" unicode="&#x10d;" horiz-adv-x="596" 
d="M576 137q-79 -148 -253 -148q-83 0 -147 34t-99.5 95.5t-35.5 142.5q0 82 36.5 148t101.5 103.5t146 37.5q62 0 113 -21.5t80.5 -59t29.5 -81.5q0 -34 -17 -51.5t-49 -17.5t-48.5 18.5t-19.5 57.5q-9 94 -90 94q-64 0 -101.5 -53t-37.5 -141q0 -106 54.5 -165.5
t149.5 -59.5q101 0 177 74zM321 697q34 19 78.5 33t91.5 22l5 -19q-114 -51 -158 -145h-34q-45 95 -158 145l5 19q97 -15 170 -55z" />
    <glyph glyph-name="ccedilla" unicode="&#xe7;" horiz-adv-x="596" 
d="M332 -11l-21 -43q49 -3 79 -27.5t30 -59.5q0 -40 -38 -64t-97 -24q-38 0 -77 10l3 15q22 -2 31 -2q40 0 63 14.5t23 43.5q0 26 -22.5 39.5t-60.5 15.5l44 84q-74 6 -130 41.5t-87 94t-31 134.5q0 82 36.5 148t101.5 103.5t146 37.5q62 0 113 -21.5t80.5 -59t29.5 -81.5
q0 -34 -17 -51.5t-49 -17.5t-48.5 18.5t-19.5 57.5q-9 94 -90 94q-64 0 -101.5 -53t-37.5 -141q0 -106 54.5 -165.5t149.5 -59.5q101 0 177 74l10 -7q-78 -144 -244 -148z" />
    <glyph glyph-name="ccircumflex" unicode="&#x109;" horiz-adv-x="596" 
d="M576 137q-79 -148 -253 -148q-83 0 -147 34t-99.5 95.5t-35.5 142.5q0 82 36.5 148t101.5 103.5t146 37.5q62 0 113 -21.5t80.5 -59t29.5 -81.5q0 -34 -17 -51.5t-49 -17.5t-48.5 18.5t-19.5 57.5q-9 94 -90 94q-64 0 -101.5 -53t-37.5 -141q0 -106 54.5 -165.5
t149.5 -59.5q101 0 177 74zM398.5 610.5q-44.5 14.5 -77.5 33.5q-71 -40 -170 -56l-5 19q113 51 158 145h34q46 -96 158 -145l-6 -19q-47 8 -91.5 22.5z" />
    <glyph glyph-name="cdotaccent" unicode="&#x10b;" horiz-adv-x="596" 
d="M576 137q-79 -148 -253 -148q-83 0 -147 34t-99.5 95.5t-35.5 142.5q0 82 36.5 148t101.5 103.5t146 37.5q62 0 113 -21.5t80.5 -59t29.5 -81.5q0 -34 -17 -51.5t-49 -17.5t-48.5 18.5t-19.5 57.5q-9 94 -90 94q-64 0 -101.5 -53t-37.5 -141q0 -106 54.5 -165.5
t149.5 -59.5q101 0 177 74zM273.5 631.5q-18.5 18.5 -18.5 46.5t18.5 46t47.5 18q28 0 46.5 -18t18.5 -46t-18.5 -46.5t-46.5 -18.5q-29 0 -47.5 18.5z" />
    <glyph glyph-name="d" unicode="d" horiz-adv-x="686" 
d="M147.5 24q-50.5 35 -78.5 99t-28 148q0 83 27.5 146t78 98t116.5 35q58 0 104.5 -27.5t74.5 -76.5v195l-95 109h235v-662l74 -88h-202v121q-23 -61 -73.5 -96.5t-116.5 -35.5t-116.5 35zM392.5 102.5q32.5 22.5 49.5 63.5v206q-17 41 -49.5 64t-73.5 23q-62 0 -97 -50.5
t-35 -138.5q0 -89 35.5 -139.5t96.5 -50.5q41 0 73.5 22.5z" />
    <glyph glyph-name="eth" unicode="&#xf0;" horiz-adv-x="646" 
d="M166 760q108 -14 190 -55l114 51l19 -44l-80 -36q97 -62 150 -160.5t53 -219.5q0 -146 -76 -226.5t-217 -80.5q-135 0 -210 71.5t-75 197.5q0 82 31.5 143t89.5 94.5t133 33.5q94 0 147 -67q-33 105 -120 173l-137 -60l-18 43l109 50q-52 33 -116 55zM216.5 96
q34.5 -56 101.5 -56q69 0 106.5 60.5t37.5 180.5q0 52 -8 94q-16 49 -51 76t-82 27q-68 0 -103.5 -55t-35.5 -164q0 -107 34.5 -163z" />
    <glyph glyph-name="dcaron" unicode="&#x10f;" horiz-adv-x="810" 
d="M147.5 24q-50.5 35 -78.5 99t-28 148q0 83 27.5 146t78 98t116.5 35q58 0 104.5 -27.5t74.5 -76.5v195l-95 109h235v-662l74 -88h-202v121q-23 -61 -73.5 -96.5t-116.5 -35.5t-116.5 35zM392.5 102.5q32.5 22.5 49.5 63.5v206q-17 41 -49.5 64t-73.5 23q-62 0 -97 -50.5
t-35 -138.5q0 -89 35.5 -139.5t96.5 -50.5q41 0 73.5 22.5zM661 514q36 21 57 53.5t21 66.5h-14q-30 0 -50 19t-20 46q0 28 20 47t50 19q35 0 58 -27.5t23 -69.5q0 -55 -37 -101.5t-97 -68.5z" />
    <glyph glyph-name="dcroat" unicode="&#x111;" horiz-adv-x="686" 
d="M582 596v-508l74 -88h-202v121q-23 -61 -73.5 -96.5t-116.5 -35.5t-116.5 35t-78.5 99t-28 148q0 83 27.5 146t78 98t116.5 35q58 0 104.5 -27.5t74.5 -76.5v150h-175v49h172l-92 105h235v-105h86v-49h-86zM442 372q-17 41 -49.5 64t-73.5 23q-62 0 -97 -50.5t-35 -138.5
q0 -89 35.5 -139.5t96.5 -50.5q44 0 79.5 23t43.5 63v206z" />
    <glyph glyph-name="e" unicode="e" horiz-adv-x="618" 
d="M188 268q9 -96 62 -147.5t143 -51.5q51 0 91.5 18t82.5 59l10 -8q-38 -73 -104 -111t-155 -38q-84 0 -146.5 33.5t-96.5 95.5t-34 144q0 85 35 150t98.5 101.5t146.5 36.5q119 0 181.5 -74t58.5 -208h-373zM223.5 448.5q-34.5 -45.5 -38.5 -128.5h253q0 86 -30.5 130
t-89.5 44q-60 0 -94.5 -45.5z" />
    <glyph glyph-name="eacute" unicode="&#xe9;" horiz-adv-x="618" 
d="M188 268q9 -96 62 -147.5t143 -51.5q51 0 91.5 18t82.5 59l10 -8q-38 -73 -104 -111t-155 -38q-84 0 -146.5 33.5t-96.5 95.5t-34 144q0 85 35 150t98.5 101.5t146.5 36.5q119 0 181.5 -74t58.5 -208h-373zM223.5 448.5q-34.5 -45.5 -38.5 -128.5h253q0 86 -30.5 130
t-89.5 44q-60 0 -94.5 -45.5zM217 617q43 11 75.5 35.5t57.5 65.5q15 22 27.5 31.5t27.5 9.5q21 0 35 -13.5t14 -34.5q0 -24 -24 -47q-32 -30 -85.5 -47.5t-127.5 -18.5v19z" />
    <glyph glyph-name="ebreve" unicode="&#x115;" horiz-adv-x="618" 
d="M188 268q9 -96 62 -147.5t143 -51.5q51 0 91.5 18t82.5 59l10 -8q-38 -73 -104 -111t-155 -38q-84 0 -146.5 33.5t-96.5 95.5t-34 144q0 85 35 150t98.5 101.5t146.5 36.5q119 0 181.5 -74t58.5 -208h-373zM223.5 448.5q-34.5 -45.5 -38.5 -128.5h253q0 86 -30.5 130
t-89.5 44q-60 0 -94.5 -45.5zM214.5 630.5q-38.5 37.5 -46.5 106.5h20q17 -42 48.5 -61.5t83.5 -19.5t83 19t49 62h19q-8 -69 -46 -106.5t-105 -37.5t-105.5 37.5z" />
    <glyph glyph-name="ecaron" unicode="&#x11b;" horiz-adv-x="618" 
d="M188 268q9 -96 62 -147.5t143 -51.5q51 0 91.5 18t82.5 59l10 -8q-38 -73 -104 -111t-155 -38q-84 0 -146.5 33.5t-96.5 95.5t-34 144q0 85 35 150t98.5 101.5t146.5 36.5q119 0 181.5 -74t58.5 -208h-373zM223.5 448.5q-34.5 -45.5 -38.5 -128.5h253q0 86 -30.5 130
t-89.5 44q-60 0 -94.5 -45.5zM320 697q34 19 78.5 33t91.5 22l5 -19q-114 -51 -158 -145h-34q-45 95 -158 145l5 19q97 -15 170 -55z" />
    <glyph glyph-name="ecircumflex" unicode="&#xea;" horiz-adv-x="618" 
d="M188 268q9 -96 62 -147.5t143 -51.5q51 0 91.5 18t82.5 59l10 -8q-38 -73 -104 -111t-155 -38q-84 0 -146.5 33.5t-96.5 95.5t-34 144q0 85 35 150t98.5 101.5t146.5 36.5q119 0 181.5 -74t58.5 -208h-373zM223.5 448.5q-34.5 -45.5 -38.5 -128.5h253q0 86 -30.5 130
t-89.5 44q-60 0 -94.5 -45.5zM397.5 610.5q-44.5 14.5 -77.5 33.5q-71 -40 -170 -56l-5 19q113 51 158 145h34q46 -96 158 -145l-6 -19q-47 8 -91.5 22.5z" />
    <glyph glyph-name="edieresis" unicode="&#xeb;" horiz-adv-x="618" 
d="M188 268q9 -96 62 -147.5t143 -51.5q51 0 91.5 18t82.5 59l10 -8q-38 -73 -104 -111t-155 -38q-84 0 -146.5 33.5t-96.5 95.5t-34 144q0 85 35 150t98.5 101.5t146.5 36.5q119 0 181.5 -74t58.5 -208h-373zM223.5 448.5q-34.5 -45.5 -38.5 -128.5h253q0 86 -30.5 130
t-89.5 44q-60 0 -94.5 -45.5zM253.5 696.5q15.5 -15.5 15.5 -39.5t-16 -39.5t-39 -15.5q-24 0 -40 15.5t-16 39.5q0 25 16 40t40 15t39.5 -15.5zM464.5 696.5q15.5 -15.5 15.5 -39.5t-15.5 -39.5t-39.5 -15.5q-23 0 -39.5 15.5t-16.5 39.5q0 25 16.5 40t39.5 15
q24 0 39.5 -15.5z" />
    <glyph glyph-name="edotaccent" unicode="&#x117;" horiz-adv-x="618" 
d="M188 268q9 -96 62 -147.5t143 -51.5q51 0 91.5 18t82.5 59l10 -8q-38 -73 -104 -111t-155 -38q-84 0 -146.5 33.5t-96.5 95.5t-34 144q0 85 35 150t98.5 101.5t146.5 36.5q119 0 181.5 -74t58.5 -208h-373zM223.5 448.5q-34.5 -45.5 -38.5 -128.5h253q0 86 -30.5 130
t-89.5 44q-60 0 -94.5 -45.5zM272.5 631.5q-18.5 18.5 -18.5 46.5t18.5 46t47.5 18q28 0 46.5 -18t18.5 -46t-18.5 -46.5t-46.5 -18.5q-29 0 -47.5 18.5z" />
    <glyph glyph-name="egrave" unicode="&#xe8;" horiz-adv-x="618" 
d="M188 268q9 -96 62 -147.5t143 -51.5q51 0 91.5 18t82.5 59l10 -8q-38 -73 -104 -111t-155 -38q-84 0 -146.5 33.5t-96.5 95.5t-34 144q0 85 35 150t98.5 101.5t146.5 36.5q119 0 181.5 -74t58.5 -208h-373zM223.5 448.5q-34.5 -45.5 -38.5 -128.5h253q0 86 -30.5 130
t-89.5 44q-60 0 -94.5 -45.5zM296.5 616.5q-53.5 17.5 -84.5 47.5q-25 22 -25 47q0 21 13.5 34.5t35.5 13.5q15 0 28 -10t27 -31q25 -41 57.5 -65.5t75.5 -35.5v-19q-74 1 -127.5 18.5z" />
    <glyph glyph-name="emacron" unicode="&#x113;" horiz-adv-x="618" 
d="M188 268q9 -96 62 -147.5t143 -51.5q51 0 91.5 18t82.5 59l10 -8q-38 -73 -104 -111t-155 -38q-84 0 -146.5 33.5t-96.5 95.5t-34 144q0 85 35 150t98.5 101.5t146.5 36.5q119 0 181.5 -74t58.5 -208h-373zM223.5 448.5q-34.5 -45.5 -38.5 -128.5h253q0 86 -30.5 130
t-89.5 44q-60 0 -94.5 -45.5zM166 659h307v-46h-307v46z" />
    <glyph glyph-name="eogonek" unicode="&#x119;" horiz-adv-x="618" 
d="M372.5 -190q-38.5 29 -38.5 80q0 62 52 106q-31 -7 -68 -7q-84 0 -146.5 33.5t-96.5 95t-34 144.5q0 85 35 150.5t98.5 101.5t146.5 36q119 0 181.5 -74t58.5 -208h-373q9 -96 61.5 -147.5t143.5 -51.5q51 0 91 18t83 59l10 -8q-34 -65 -89 -104q-72 -52 -72 -136
q0 -77 65 -102l-5 -13q-65 -2 -103.5 27zM223.5 448.5q-34.5 -45.5 -38.5 -128.5h253q0 86 -30.5 130t-89.5 44q-60 0 -94.5 -45.5z" />
    <glyph glyph-name="f" unicode="f" horiz-adv-x="350" 
d="M109 100v359h-94v71h88q-23 31 -23 78q0 67 47 109.5t120 42.5q50 0 79.5 -19.5t29.5 -51.5q0 -24 -15.5 -38.5t-41.5 -14.5q-14 0 -24.5 4t-27.5 13q-26 15 -45 15q-27 0 -43 -16t-16 -44q0 -37 32 -57.5t90 -20.5h65v-71h-81v-374l71 -85h-256z" />
    <glyph glyph-name="g" unicode="g" horiz-adv-x="580" 
d="M219 176.5q-19 -7.5 -19 -22.5q0 -26 48 -31l124 -9q93 -6 140.5 -44t47.5 -107q0 -90 -77.5 -139t-219.5 -49q-114 0 -174 33t-60 95q0 43 27.5 73.5t73.5 39.5q-47 29 -47 84q0 39 24 65t70 35q-66 19 -101 63t-35 107q0 84 62.5 132t175.5 48l18 -1q-42 29 -42 82
q0 50 38.5 80t105.5 30q49 0 76.5 -18t27.5 -48q0 -21 -13 -33.5t-36 -12.5q-18 0 -46 12q-24 11 -40 11q-24 0 -38 -12t-14 -32q0 -45 75 -71q129 -46 129 -167q0 -87 -63.5 -135t-176.5 -50q-42 -1 -61 -8.5zM354 268q26 36 26 103q0 65 -25 98.5t-73 33.5
q-49 0 -75.5 -34t-26.5 -98q0 -66 26.5 -102.5t74.5 -36.5q47 0 73 36zM269 -171q79 0 124 24t45 66q0 58 -98 65l-134 8q-83 -12 -83 -77q0 -86 146 -86z" />
    <glyph glyph-name="gbreve" unicode="&#x11f;" horiz-adv-x="582" 
d="M219.5 175q-18.5 -7 -18.5 -22q0 -25 48 -30l124 -9q93 -6 140.5 -44t47.5 -107q0 -90 -78 -139t-221 -49q-112 0 -171.5 33.5t-59.5 95.5q0 43 27 73t73 39q-47 29 -47 84q0 39 24 65t70 35q-66 19 -101 62t-35 103q0 86 71.5 135t193.5 49q108 0 247 -18v-42h-91
q30 -25 44 -55t14 -68q0 -84 -63 -131.5t-178 -50.5q-42 -2 -60.5 -9zM355.5 268q25.5 36 25.5 103q0 64 -25.5 98t-72.5 34q-49 0 -75.5 -34t-26.5 -98q0 -66 27 -102.5t75 -36.5q47 0 72.5 36zM273 -171q77 0 121.5 24t44.5 66q0 58 -98 65l-134 8q-83 -12 -83 -77
q0 -86 149 -86zM181.5 630.5q-38.5 37.5 -46.5 106.5h20q17 -42 48.5 -61.5t83.5 -19.5t83 19t49 62h19q-8 -69 -46 -106.5t-105 -37.5t-105.5 37.5z" />
    <glyph glyph-name="gcircumflex" unicode="&#x11d;" horiz-adv-x="582" 
d="M219.5 175q-18.5 -7 -18.5 -22q0 -25 48 -30l124 -9q93 -6 140.5 -44t47.5 -107q0 -90 -78 -139t-221 -49q-112 0 -171.5 33.5t-59.5 95.5q0 43 27 73t73 39q-47 29 -47 84q0 39 24 65t70 35q-66 19 -101 62t-35 103q0 86 71.5 135t193.5 49q108 0 247 -18v-42h-91
q30 -25 44 -55t14 -68q0 -84 -63 -131.5t-178 -50.5q-42 -2 -60.5 -9zM355.5 268q25.5 36 25.5 103q0 64 -25.5 98t-72.5 34q-49 0 -75.5 -34t-26.5 -98q0 -66 27 -102.5t75 -36.5q47 0 72.5 36zM273 -171q77 0 121.5 24t44.5 66q0 58 -98 65l-134 8q-83 -12 -83 -77
q0 -86 149 -86zM364.5 610.5q-44.5 14.5 -77.5 33.5q-71 -40 -170 -56l-5 19q113 51 158 145h34q46 -96 158 -145l-6 -19q-47 8 -91.5 22.5z" />
    <glyph glyph-name="uni0123" unicode="&#x123;" horiz-adv-x="580" 
d="M337 852q-36 -20 -57 -52.5t-21 -67.5h14q30 0 50 -19t20 -46q0 -28 -20 -47t-50 -19q-35 0 -58 27.5t-23 69.5q0 55 36.5 101.5t97.5 68.5zM220.5 175q-18.5 -7 -18.5 -22q0 -25 48 -30l124 -9q93 -6 140.5 -44t47.5 -107q0 -90 -78 -139t-221 -49q-112 0 -171.5 33.5
t-59.5 95.5q0 43 27 73t73 39q-47 29 -47 84q0 39 24 65t70 35q-66 19 -101 62t-35 103q0 86 71.5 135t193.5 49q108 0 247 -18v-42h-91q30 -25 44 -55t14 -68q0 -84 -63 -131.5t-178 -50.5q-42 -2 -60.5 -9zM356.5 268q25.5 36 25.5 103q0 64 -25.5 98t-72.5 34
q-49 0 -75.5 -34t-26.5 -98q0 -66 27 -102.5t75 -36.5q47 0 72.5 36zM274 -171q77 0 121.5 24t44.5 66q0 29 -24 45t-74 20l-134 8q-83 -12 -83 -77q0 -86 149 -86z" />
    <glyph glyph-name="gdotaccent" unicode="&#x121;" horiz-adv-x="582" 
d="M219.5 175q-18.5 -7 -18.5 -22q0 -25 48 -30l124 -9q93 -6 140.5 -44t47.5 -107q0 -90 -78 -139t-221 -49q-112 0 -171.5 33.5t-59.5 95.5q0 43 27 73t73 39q-47 29 -47 84q0 39 24 65t70 35q-66 19 -101 62t-35 103q0 86 71.5 135t193.5 49q108 0 247 -18v-42h-91
q30 -25 44 -55t14 -68q0 -84 -63 -131.5t-178 -50.5q-42 -2 -60.5 -9zM355.5 268q25.5 36 25.5 103q0 64 -25.5 98t-72.5 34q-49 0 -75.5 -34t-26.5 -98q0 -66 27 -102.5t75 -36.5q47 0 72.5 36zM273 -171q77 0 121.5 24t44.5 66q0 58 -98 65l-134 8q-83 -12 -83 -77
q0 -86 149 -86zM239.5 631.5q-18.5 18.5 -18.5 46.5t18.5 46t47.5 18q28 0 46.5 -18t18.5 -46t-18.5 -46.5t-46.5 -18.5q-29 0 -47.5 18.5z" />
    <glyph glyph-name="h" unicode="h" horiz-adv-x="712" 
d="M104 105v536l-95 109h235v-331q33 62 84.5 95t115.5 33q84 0 129 -55.5t45 -159.5v-247l71 -85h-256l45 100v227q0 126 -92 126q-49 0 -86 -37.5t-56 -104.5v-222l75 -89h-262z" />
    <glyph glyph-name="hbar" unicode="&#x127;" horiz-adv-x="712" 
d="M478 100v227q0 126 -92 126q-49 0 -86 -37.5t-56 -104.5v-222l75 -89h-262l47 105v491h-86v49h83l-92 105h235v-105h175v-49h-175v-177q33 62 84.5 95t115.5 33q84 0 129 -55.5t45 -159.5v-247l71 -85h-256z" />
    <glyph glyph-name="hcircumflex" unicode="&#x125;" horiz-adv-x="712" 
d="M104 105v536l-95 109h235v-331q33 62 84.5 95t115.5 33q84 0 129 -55.5t45 -159.5v-247l71 -85h-256l45 100v227q0 126 -92 126q-49 0 -86 -37.5t-56 -104.5v-222l75 -89h-262zM252.5 805.5q-44.5 14.5 -77.5 33.5q-71 -40 -170 -56l-5 19q113 51 158 145h34
q46 -96 158 -145l-6 -19q-47 8 -91.5 22.5z" />
    <glyph glyph-name="i" unicode="i" horiz-adv-x="349" 
d="M229.5 736.5q21.5 -22.5 21.5 -56.5q0 -35 -21.5 -57t-55.5 -22t-56 22.5t-22 56.5t22 56.5t56 22.5t55.5 -22.5zM104 105v316l-95 109h235v-441l75 -89h-262z" />
    <glyph glyph-name="dotlessi" unicode="&#x131;" horiz-adv-x="349" 
d="M104 105v316l-95 109h235v-441l75 -89h-262z" />
    <glyph glyph-name="iacute" unicode="&#xed;" horiz-adv-x="349" 
d="M104 105v316l-95 109h235v-441l75 -89h-262zM72 617q43 11 75.5 35.5t57.5 65.5q15 22 27.5 31.5t27.5 9.5q21 0 35 -13.5t14 -34.5q0 -24 -24 -47q-32 -30 -85.5 -47.5t-127.5 -18.5v19z" />
    <glyph glyph-name="ibreve" unicode="&#x12d;" horiz-adv-x="349" 
d="M104 105v316l-95 109h235v-441l75 -89h-262zM68.5 630.5q-38.5 37.5 -46.5 106.5h20q17 -42 48.5 -61.5t83.5 -19.5t83 19t49 62h19q-8 -69 -46 -106.5t-105 -37.5t-105.5 37.5z" />
    <glyph glyph-name="icircumflex" unicode="&#xee;" horiz-adv-x="349" 
d="M104 105v316l-95 109h235v-441l75 -89h-262zM252.5 610.5q-44.5 14.5 -77.5 33.5q-71 -40 -170 -56l-5 19q113 51 158 145h34q46 -96 158 -145l-6 -19q-47 8 -91.5 22.5z" />
    <glyph glyph-name="idieresis" unicode="&#xef;" horiz-adv-x="349" 
d="M29 617.5q-16 15.5 -16 39.5q0 25 16 40t40 15t39.5 -15.5t15.5 -39.5t-16 -39.5t-39 -15.5q-24 0 -40 15.5zM229.5 617.5q-16.5 15.5 -16.5 39.5q0 25 16.5 40t39.5 15q24 0 39.5 -15.5t15.5 -39.5t-15.5 -39.5t-39.5 -15.5q-23 0 -39.5 15.5zM104 105v316l-95 109h235
v-441l75 -89h-262z" />
    <glyph glyph-name="i.loclTRK" horiz-adv-x="349" 
d="M229.5 736.5q21.5 -22.5 21.5 -56.5q0 -35 -21.5 -57t-55.5 -22t-56 22.5t-22 56.5t22 56.5t56 22.5t55.5 -22.5zM104 105v316l-95 109h235v-441l75 -89h-262z" />
    <glyph glyph-name="igrave" unicode="&#xec;" horiz-adv-x="349" 
d="M104 105v316l-95 109h235v-441l75 -89h-262zM151.5 616.5q-53.5 17.5 -84.5 47.5q-25 22 -25 47q0 21 13.5 34.5t35.5 13.5q15 0 28 -10t27 -31q25 -41 57.5 -65.5t75.5 -35.5v-19q-74 1 -127.5 18.5z" />
    <glyph glyph-name="ij" unicode="&#x133;" horiz-adv-x="687" 
d="M229.5 736.5q21.5 -22.5 21.5 -56.5q0 -35 -21.5 -57t-55.5 -22t-56 22.5t-22 56.5t22 56.5t56 22.5t55.5 -22.5zM104 105v316l-95 109h235v-441l75 -89h-262zM577.5 736.5q21.5 -22.5 21.5 -56.5q0 -35 -21.5 -57t-55.5 -22t-56 22.5t-22 56.5t22 56.5t56 22.5
t55.5 -22.5zM358 -120.5q16 15.5 42 15.5q19 0 49 -12t47 -12q28 0 46 18t18 45q0 35 -40 59.5t-106 29.5l39 90v308l-95 109h235v-496q21 -18 32.5 -45t11.5 -59q0 -46 -24 -82.5t-67.5 -56.5t-99.5 -20q-51 0 -77.5 17.5t-26.5 49.5q0 26 16 41.5z" />
    <glyph glyph-name="imacron" unicode="&#x12b;" horiz-adv-x="349" 
d="M104 105v316l-95 109h235v-441l75 -89h-262zM21 659h307v-46h-307v46z" />
    <glyph glyph-name="iogonek" unicode="&#x12f;" horiz-adv-x="349" 
d="M118 623.5q-22 22.5 -22 56.5t22 56.5t56 22.5t55.5 -22.5t21.5 -56.5q0 -35 -21.5 -57t-55.5 -22t-56 22.5zM203 -166.5q16 -24.5 48 -37.5l-5 -13q-65 -3 -103.5 27t-38.5 80q0 31 15 59.5t43 50.5h-105l47 105v316l-95 109h235v-441l75 -89h-103q-29 -46 -29 -103
q0 -39 16 -63.5z" />
    <glyph glyph-name="itilde" unicode="&#x129;" horiz-adv-x="349" 
d="M104 105v316l-95 109h235v-441l75 -89h-262zM303 628.5q-23 -25.5 -68 -25.5q-23 0 -43 5t-48 14q-17 5 -33.5 9.5t-28.5 4.5q-37 0 -46 -35l-15 7q2 49 27.5 75t68.5 26q18 0 35.5 -4t32 -8.5t19.5 -5.5q43 -15 63 -15q36 0 44 35l16 -7q-1 -50 -24 -75.5z" />
    <glyph glyph-name="j" unicode="j" horiz-adv-x="338" 
d="M228.5 736.5q21.5 -22.5 21.5 -56.5q0 -35 -21.5 -57t-55.5 -22t-56 22.5t-22 56.5t22 56.5t56 22.5t55.5 -22.5zM9 -120.5q16 15.5 42 15.5q19 0 49 -12t47 -12q28 0 46 18t18 45q0 35 -40 59.5t-106 29.5l39 90v308l-95 109h235v-496q21 -18 32.5 -45t11.5 -59
q0 -46 -24 -82.5t-67.5 -56.5t-99.5 -20q-51 0 -77.5 17.5t-26.5 49.5q0 26 16 41.5z" />
    <glyph glyph-name="uni0237" unicode="&#x237;" horiz-adv-x="340" 
d="M10 -120.5q16 15.5 42 15.5q19 0 49 -12t47 -12q28 0 46 18t18 44q0 36 -40 60.5t-106 29.5l39 90v308l-95 109h235v-496q21 -18 32.5 -45t11.5 -59q0 -46 -24 -82.5t-67.5 -56.5t-99.5 -20q-51 0 -77.5 17.5t-26.5 49.5q0 26 16 41.5z" />
    <glyph glyph-name="jcircumflex" unicode="&#x135;" horiz-adv-x="340" 
d="M10 -120.5q16 15.5 42 15.5q19 0 49 -12t47 -12q28 0 46 18t18 44q0 36 -40 60.5t-106 29.5l39 90v308l-95 109h235v-496q21 -18 32.5 -45t11.5 -59q0 -46 -24 -82.5t-67.5 -56.5t-99.5 -20q-51 0 -77.5 17.5t-26.5 49.5q0 26 16 41.5zM252.5 610.5
q-44.5 14.5 -77.5 33.5q-71 -40 -170 -56l-5 19q113 51 158 145h34q46 -96 158 -145l-6 -19q-47 8 -91.5 22.5z" />
    <glyph glyph-name="k" unicode="k" horiz-adv-x="660" 
d="M104 109v529l-97 112h237v-486l210 185l-55 81h232l-237 -207l257 -323h-256l18 84l-122 154l-47 -42v-114l69 -82h-258z" />
    <glyph glyph-name="uni0137" unicode="&#x137;" horiz-adv-x="660" 
d="M104 109v529l-97 112h237v-486l210 185l-55 81h232l-237 -207l257 -323h-256l18 84l-122 154l-47 -42v-114l69 -82h-258zM289 -306q36 21 57 53.5t21 66.5h-14q-30 0 -50 19t-20 46q0 28 20 47t50 19q35 0 58 -27.5t23 -69.5q0 -55 -37 -101.5t-97 -68.5z" />
    <glyph glyph-name="kgreenlandic" unicode="&#x138;" horiz-adv-x="660" 
d="M104 109v309l-97 112h237v-266l210 185l-55 81h232l-237 -207l257 -323h-256l18 84l-122 154l-47 -42v-114l69 -82h-258z" />
    <glyph glyph-name="l" unicode="l" horiz-adv-x="349" 
d="M104 105v536l-95 109h235v-661l75 -89h-262z" />
    <glyph glyph-name="lacute" unicode="&#x13a;" horiz-adv-x="349" 
d="M104 105v536l-95 109h235v-661l75 -89h-262zM72 812q43 11 75.5 35.5t57.5 65.5q15 22 27.5 31.5t27.5 9.5q21 0 35 -13.5t14 -34.5q0 -24 -24 -47q-32 -30 -85.5 -47.5t-127.5 -18.5v19z" />
    <glyph glyph-name="lcaron" unicode="&#x13e;" horiz-adv-x="472" 
d="M104 105v536l-95 109h235v-661l75 -89h-262zM323 514q36 21 57 53.5t21 66.5h-14q-30 0 -50 19t-20 46q0 28 20 47t50 19q35 0 58 -27.5t23 -69.5q0 -55 -37 -101.5t-97 -68.5z" />
    <glyph glyph-name="uni013C" unicode="&#x13c;" horiz-adv-x="349" 
d="M104 105v536l-95 109h235v-661l75 -89h-262zM105 -306q36 21 57 53.5t21 66.5h-14q-30 0 -50 19t-20 46q0 28 20 47t50 19q35 0 58 -27.5t23 -69.5q0 -55 -37 -101.5t-97 -68.5z" />
    <glyph glyph-name="ldot" unicode="&#x140;" horiz-adv-x="407" 
d="M104 105v536l-95 109h235v-661l75 -89h-262zM319.5 322q-20.5 21 -20.5 53t21 53.5t53 21.5q31 0 52 -21.5t21 -53.5t-20.5 -53t-52.5 -21q-33 0 -53.5 21z" />
    <glyph glyph-name="lslash" unicode="&#x142;" horiz-adv-x="349" 
d="M104 105v252l-83 -20l-13 47l96 23v234l-95 109h235v-309l78 19l13 -46l-91 -22v-303l75 -89h-262z" />
    <glyph glyph-name="m" unicode="m" horiz-adv-x="1050" 
d="M104 105v316l-95 109h222v-138q33 77 83.5 116t116.5 39q65 0 106.5 -36t55.5 -104q32 69 81.5 104.5t113.5 35.5q81 0 125 -56t44 -159v-247l72 -85h-258l45 100v227q0 61 -22 93.5t-65 32.5q-44 0 -77 -35.5t-52 -104.5v-228l71 -85h-256l45 100v227q0 62 -22 94
t-65 32q-44 0 -76.5 -36t-52.5 -106v-222l75 -89h-262z" />
    <glyph glyph-name="n" unicode="n" horiz-adv-x="712" 
d="M104 105v316l-95 109h222v-138q32 75 87 115t127 40q83 0 128 -56t45 -159v-247l71 -85h-256l45 100v227q0 62 -23 94t-69 32q-49 0 -86 -37.5t-56 -104.5v-222l75 -89h-262z" />
    <glyph glyph-name="nacute" unicode="&#x144;" horiz-adv-x="712" 
d="M104 105v316l-95 109h222v-138q32 75 87 115t127 40q83 0 128 -56t45 -159v-247l71 -85h-256l45 100v227q0 62 -23 94t-69 32q-49 0 -86 -37.5t-56 -104.5v-222l75 -89h-262zM253 617q43 11 75.5 35.5t57.5 65.5q15 22 27.5 31.5t27.5 9.5q21 0 35 -13.5t14 -34.5
q0 -24 -24 -47q-32 -30 -85.5 -47.5t-127.5 -18.5v19z" />
    <glyph glyph-name="ncaron" unicode="&#x148;" horiz-adv-x="712" 
d="M104 105v316l-95 109h222v-138q32 75 87 115t127 40q83 0 128 -56t45 -159v-247l71 -85h-256l45 100v227q0 62 -23 94t-69 32q-49 0 -86 -37.5t-56 -104.5v-222l75 -89h-262zM356 697q34 19 78.5 33t91.5 22l5 -19q-114 -51 -158 -145h-34q-45 95 -158 145l5 19
q97 -15 170 -55z" />
    <glyph glyph-name="uni0146" unicode="&#x146;" horiz-adv-x="712" 
d="M104 105v316l-95 109h222v-138q32 75 87 115t127 40q83 0 128 -56t45 -159v-247l71 -85h-256l45 100v227q0 62 -23 94t-69 32q-49 0 -86 -37.5t-56 -104.5v-222l75 -89h-262zM306 -306q36 21 57 53.5t21 66.5h-14q-30 0 -50 19t-20 46q0 28 20 47t50 19q35 0 58 -27.5
t23 -69.5q0 -55 -37 -101.5t-97 -68.5z" />
    <glyph glyph-name="eng" unicode="&#x14b;" horiz-adv-x="722" 
d="M107 109v309l-98 112h225v-134q33 72 91 112.5t129 40.5q82 0 125.5 -55.5t43.5 -159.5v-300q23 -20 36 -49t13 -61q0 -45 -23.5 -79.5t-66 -54t-96.5 -19.5q-52 0 -80 18t-28 50q0 25 16.5 40.5t44.5 15.5q18 0 48 -10q4 -1 19 -5t29 -4q26 0 43 16t17 41q0 36 -42 60.5
t-109 29.5l39 90v216q0 125 -88 125q-50 0 -90 -39t-58 -104v-217l79 -94h-269z" />
    <glyph glyph-name="ntilde" unicode="&#xf1;" horiz-adv-x="712" 
d="M104 105v316l-95 109h222v-138q32 75 87 115t127 40q83 0 128 -56t45 -159v-247l71 -85h-256l45 100v227q0 62 -23 94t-69 32q-49 0 -86 -37.5t-56 -104.5v-222l75 -89h-262zM485 628.5q-23 -25.5 -68 -25.5q-23 0 -43 5t-48 14q-17 5 -33.5 9.5t-28.5 4.5q-37 0 -46 -35
l-15 7q2 49 27.5 75t68.5 26q18 0 35.5 -4t32 -8.5t19.5 -5.5q43 -15 63 -15q36 0 44 35l16 -7q-1 -50 -24 -75.5z" />
    <glyph glyph-name="o" unicode="o" horiz-adv-x="678" 
d="M77.5 416.5q36.5 64.5 104 99t156.5 34.5q91 0 158.5 -34t104 -97.5t36.5 -149.5t-36 -149t-103 -97t-160 -34q-92 0 -159 33.5t-102.5 96t-35.5 147.5q0 86 36.5 150.5zM449.5 435.5q-39.5 58.5 -111.5 58.5t-110.5 -57.5t-38.5 -167.5q0 -225 149 -225q74 0 112.5 57.5
t38.5 167.5q0 108 -39.5 166.5z" />
    <glyph glyph-name="oacute" unicode="&#xf3;" horiz-adv-x="678" 
d="M77.5 416.5q36.5 64.5 104 99t156.5 34.5q91 0 158.5 -34t104 -97.5t36.5 -149.5t-36 -149t-103 -97t-160 -34q-92 0 -159 33.5t-102.5 96t-35.5 147.5q0 86 36.5 150.5zM449.5 435.5q-39.5 58.5 -111.5 58.5t-110.5 -57.5t-38.5 -167.5q0 -225 149 -225q74 0 112.5 57.5
t38.5 167.5q0 108 -39.5 166.5zM236 617q43 11 75.5 35.5t57.5 65.5q15 22 27.5 31.5t27.5 9.5q21 0 35 -13.5t14 -34.5q0 -24 -24 -47q-32 -30 -85.5 -47.5t-127.5 -18.5v19z" />
    <glyph glyph-name="obreve" unicode="&#x14f;" horiz-adv-x="678" 
d="M77.5 416.5q36.5 64.5 104 99t156.5 34.5q91 0 158.5 -34t104 -97.5t36.5 -149.5t-36 -149t-103 -97t-160 -34q-92 0 -159 33.5t-102.5 96t-35.5 147.5q0 86 36.5 150.5zM449.5 435.5q-39.5 58.5 -111.5 58.5t-110.5 -57.5t-38.5 -167.5q0 -225 149 -225q74 0 112.5 57.5
t38.5 167.5q0 108 -39.5 166.5zM233.5 630.5q-38.5 37.5 -46.5 106.5h20q17 -42 48.5 -61.5t83.5 -19.5t83 19t49 62h19q-8 -69 -46 -106.5t-105 -37.5t-105.5 37.5z" />
    <glyph glyph-name="ocircumflex" unicode="&#xf4;" horiz-adv-x="678" 
d="M77.5 416.5q36.5 64.5 104 99t156.5 34.5q91 0 158.5 -34t104 -97.5t36.5 -149.5t-36 -149t-103 -97t-160 -34q-92 0 -159 33.5t-102.5 96t-35.5 147.5q0 86 36.5 150.5zM449.5 435.5q-39.5 58.5 -111.5 58.5t-110.5 -57.5t-38.5 -167.5q0 -225 149 -225q74 0 112.5 57.5
t38.5 167.5q0 108 -39.5 166.5zM416.5 610.5q-44.5 14.5 -77.5 33.5q-71 -40 -170 -56l-5 19q113 51 158 145h34q46 -96 158 -145l-6 -19q-47 8 -91.5 22.5z" />
    <glyph glyph-name="odieresis" unicode="&#xf6;" horiz-adv-x="678" 
d="M77.5 416.5q36.5 64.5 104 99t156.5 34.5q91 0 158.5 -34t104 -97.5t36.5 -149.5t-36 -149t-103 -97t-160 -34q-92 0 -159 33.5t-102.5 96t-35.5 147.5q0 86 36.5 150.5zM449.5 435.5q-39.5 58.5 -111.5 58.5t-110.5 -57.5t-38.5 -167.5q0 -225 149 -225q74 0 112.5 57.5
t38.5 167.5q0 108 -39.5 166.5zM273.5 696.5q15.5 -15.5 15.5 -39.5t-16 -39.5t-39 -15.5q-24 0 -40 15.5t-16 39.5q0 25 16 40t40 15t39.5 -15.5zM484.5 696.5q15.5 -15.5 15.5 -39.5t-15.5 -39.5t-39.5 -15.5q-23 0 -39.5 15.5t-16.5 39.5q0 25 16.5 40t39.5 15
q24 0 39.5 -15.5z" />
    <glyph glyph-name="ograve" unicode="&#xf2;" horiz-adv-x="678" 
d="M77.5 416.5q36.5 64.5 104 99t156.5 34.5q91 0 158.5 -34t104 -97.5t36.5 -149.5t-36 -149t-103 -97t-160 -34q-92 0 -159 33.5t-102.5 96t-35.5 147.5q0 86 36.5 150.5zM449.5 435.5q-39.5 58.5 -111.5 58.5t-110.5 -57.5t-38.5 -167.5q0 -225 149 -225q74 0 112.5 57.5
t38.5 167.5q0 108 -39.5 166.5zM315.5 616.5q-53.5 17.5 -84.5 47.5q-25 22 -25 47q0 21 13.5 34.5t35.5 13.5q15 0 28 -10t27 -31q25 -41 57.5 -65.5t75.5 -35.5v-19q-74 1 -127.5 18.5z" />
    <glyph glyph-name="ohungarumlaut" unicode="&#x151;" horiz-adv-x="678" 
d="M77.5 416.5q36.5 64.5 104 99t156.5 34.5q91 0 158.5 -34t104 -97.5t36.5 -149.5t-36 -149t-103 -97t-160 -34q-92 0 -159 33.5t-102.5 96t-35.5 147.5q0 86 36.5 150.5zM449.5 435.5q-39.5 58.5 -111.5 58.5t-110.5 -57.5t-38.5 -167.5q0 -225 149 -225q74 0 112.5 57.5
t38.5 167.5q0 108 -39.5 166.5zM235 613q15 20 26.5 48.5t15.5 51.5q9 51 46 51q18 0 29 -11t11 -30q0 -20 -14 -41q-16 -23 -43 -44t-62 -34zM381 613q14 21 26 49.5t16 50.5q9 51 46 51q18 0 28.5 -11t10.5 -30t-13 -41q-16 -23 -43 -44t-62 -34z" />
    <glyph glyph-name="omacron" unicode="&#x14d;" horiz-adv-x="678" 
d="M77.5 416.5q36.5 64.5 104 99t156.5 34.5q91 0 158.5 -34t104 -97.5t36.5 -149.5t-36 -149t-103 -97t-160 -34q-92 0 -159 33.5t-102.5 96t-35.5 147.5q0 86 36.5 150.5zM449.5 435.5q-39.5 58.5 -111.5 58.5t-110.5 -57.5t-38.5 -167.5q0 -225 149 -225q74 0 112.5 57.5
t38.5 167.5q0 108 -39.5 166.5zM186 659h307v-46h-307v46z" />
    <glyph glyph-name="oslash" unicode="&#xf8;" horiz-adv-x="678" 
d="M153 38l-48 -49l-33 31l44 47q-75 73 -75 199q0 86 36.5 150.5t104 99t156.5 34.5q112 0 188 -52l48 51l32 -32l-45 -48q76 -74 76 -200q0 -86 -36 -149t-103 -97t-160 -34q-113 0 -185 49zM209 160l243 263q-39 71 -114 71q-72 0 -110.5 -57.5t-38.5 -167.5
q0 -63 20 -109zM450.5 101.5q38.5 57.5 38.5 167.5q0 60 -21 107l-243 -264q36 -68 113 -68q74 0 112.5 57.5z" />
    <glyph glyph-name="otilde" unicode="&#xf5;" horiz-adv-x="678" 
d="M77.5 416.5q36.5 64.5 104 99t156.5 34.5q91 0 158.5 -34t104 -97.5t36.5 -149.5t-36 -149t-103 -97t-160 -34q-92 0 -159 33.5t-102.5 96t-35.5 147.5q0 86 36.5 150.5zM449.5 435.5q-39.5 58.5 -111.5 58.5t-110.5 -57.5t-38.5 -167.5q0 -225 149 -225q74 0 112.5 57.5
t38.5 167.5q0 108 -39.5 166.5zM468 628.5q-23 -25.5 -68 -25.5q-23 0 -43 5t-48 14q-17 5 -33.5 9.5t-28.5 4.5q-37 0 -46 -35l-15 7q2 49 27.5 75t68.5 26q18 0 35.5 -4t32 -8.5t19.5 -5.5q43 -15 63 -15q36 0 44 35l16 -7q-1 -50 -24 -75.5z" />
    <glyph glyph-name="oe" unicode="&#x153;" horiz-adv-x="1067" 
d="M118.5 62.5q-77.5 73.5 -77.5 204.5q0 85 36 149t103 99t157 35q74 0 133 -25.5t96 -72.5q37 47 90.5 72.5t117.5 25.5q116 0 178.5 -74t58.5 -208h-373q8 -96 61 -147.5t144 -51.5q51 0 91 18t82 59l10 -8q-37 -73 -101.5 -111t-151.5 -38q-68 0 -122.5 25t-90.5 71
q-79 -96 -226 -96q-138 0 -215.5 73.5zM449 101q39 57 39 166t-39.5 168t-111.5 59t-110.5 -58t-38.5 -169q0 -223 146 -223q76 0 115 57zM672 448q-35 -46 -37 -128h252q0 86 -30.5 130t-88.5 44q-61 0 -96 -46z" />
    <glyph glyph-name="p" unicode="p" horiz-adv-x="686" 
d="M104 -95v516l-95 109h223v-110q23 61 73.5 95.5t116.5 34.5t116.5 -35t78.5 -98t28 -146q0 -84 -28 -148t-79 -99t-117 -35q-58 0 -104 26.5t-73 76.5v-203l75 -89h-262zM293.5 102.5q32.5 -22.5 73.5 -22.5q61 0 96 51t35 139q0 89 -35 139t-96 50q-41 0 -73.5 -23
t-49.5 -64v-206q17 -41 49.5 -63.5z" />
    <glyph glyph-name="thorn" unicode="&#xfe;" horiz-adv-x="675" 
d="M94 -91v743l-85 98h225v-303q27 49 73 76t104 27q66 0 116.5 -35t78.5 -98t28 -146q0 -84 -28 -148t-78.5 -99t-116.5 -35q-59 0 -104.5 27t-72.5 75v-197l79 -94h-269zM283 102.5q32 -22.5 73 -22.5q61 0 96.5 50.5t35.5 139.5q0 88 -35 138.5t-96 50.5q-42 0 -74 -23
t-49 -64v-206q17 -41 49 -63.5z" />
    <glyph glyph-name="q" unicode="q" horiz-adv-x="675" 
d="M442 -91v183q-27 -49 -73.5 -76t-104.5 -27q-66 0 -116.5 35t-78.5 99t-28 148q0 83 27.5 146t78 98t116.5 35q62 0 111.5 -32t74.5 -87l16 99h117v-636l79 -94h-269zM442 372q-17 41 -49.5 64t-73.5 23q-62 0 -97 -50.5t-35 -138.5q0 -89 35.5 -139.5t96.5 -50.5
q41 0 73.5 22.5t49.5 63.5v206z" />
    <glyph glyph-name="r" unicode="r" horiz-adv-x="501" 
d="M104 105v316l-95 109h222v-175q20 84 66 132t107 48q39 0 63 -21t24 -55q0 -32 -21 -52t-54 -20q-20 0 -44 13q-13 6 -22 8.5t-20 1.5q-61 -14 -86 -132v-189l75 -89h-262z" />
    <glyph glyph-name="racute" unicode="&#x155;" horiz-adv-x="501" 
d="M104 105v316l-95 109h222v-175q20 84 66 132t107 48q39 0 63 -21t24 -55q0 -32 -21 -52t-54 -20q-20 0 -44 13q-13 6 -22 8.5t-20 1.5q-61 -14 -86 -132v-189l75 -89h-262zM172 617q43 11 75.5 35.5t57.5 65.5q15 22 27.5 31.5t27.5 9.5q21 0 35 -13.5t14 -34.5
q0 -24 -24 -47q-32 -30 -85.5 -47.5t-127.5 -18.5v19z" />
    <glyph glyph-name="rcaron" unicode="&#x159;" horiz-adv-x="501" 
d="M104 105v316l-95 109h222v-175q20 84 66 132t107 48q39 0 63 -21t24 -55q0 -32 -21 -52t-54 -20q-20 0 -44 13q-13 6 -22 8.5t-20 1.5q-61 -14 -86 -132v-189l75 -89h-262zM275 697q34 19 78.5 33t91.5 22l5 -19q-114 -51 -158 -145h-34q-45 95 -158 145l5 19
q97 -15 170 -55z" />
    <glyph glyph-name="uni0157" unicode="&#x157;" horiz-adv-x="501" 
d="M104 105v316l-95 109h222v-175q20 84 66 132t107 48q39 0 63 -21t24 -55q0 -32 -21 -52t-54 -20q-20 0 -44 13q-13 6 -22 8.5t-20 1.5q-61 -14 -86 -132v-189l75 -89h-262zM105 -306q36 21 57 53.5t21 66.5h-14q-30 0 -50 19t-20 46q0 28 20 47t50 19q35 0 58 -27.5
t23 -69.5q0 -55 -37 -101.5t-97 -68.5z" />
    <glyph glyph-name="s" unicode="s" horiz-adv-x="603" 
d="M54 166l101 -57q102 -57 188 -57q87 0 87 58q0 34 -35.5 57t-120.5 43q-115 26 -168.5 71t-53.5 116t49 112t135 41q98 0 178 -52l92 41v-167l-84 52q-101 65 -178 65q-38 0 -58 -14.5t-20 -41.5q0 -34 35.5 -56.5t118.5 -40.5q121 -25 176 -68.5t55 -116.5
q0 -76 -54 -119t-150 -43q-95 0 -183 47l-110 -46v176z" />
    <glyph glyph-name="sacute" unicode="&#x15b;" horiz-adv-x="603" 
d="M54 166l101 -57q102 -57 188 -57q87 0 87 58q0 34 -35.5 57t-120.5 43q-115 26 -168.5 71t-53.5 116t49 112t135 41q98 0 178 -52l92 41v-167l-84 52q-101 65 -178 65q-38 0 -58 -14.5t-20 -41.5q0 -34 35.5 -56.5t118.5 -40.5q121 -25 176 -68.5t55 -116.5
q0 -76 -54 -119t-150 -43q-95 0 -183 47l-110 -46v176zM185 617q43 11 75.5 35.5t57.5 65.5q15 22 27.5 31.5t27.5 9.5q21 0 35 -13.5t14 -34.5q0 -24 -24 -47q-32 -30 -85.5 -47.5t-127.5 -18.5v19z" />
    <glyph glyph-name="scaron" unicode="&#x161;" horiz-adv-x="603" 
d="M54 166l101 -57q102 -57 188 -57q87 0 87 58q0 34 -35.5 57t-120.5 43q-115 26 -168.5 71t-53.5 116t49 112t135 41q98 0 178 -52l92 41v-167l-84 52q-101 65 -178 65q-38 0 -58 -14.5t-20 -41.5q0 -34 35.5 -56.5t118.5 -40.5q121 -25 176 -68.5t55 -116.5
q0 -76 -54 -119t-150 -43q-95 0 -183 47l-110 -46v176zM288 697q34 19 78.5 33t91.5 22l5 -19q-114 -51 -158 -145h-34q-45 95 -158 145l5 19q97 -15 170 -55z" />
    <glyph glyph-name="scedilla" unicode="&#x15f;" horiz-adv-x="603" 
d="M324 -10l-22 -44q49 -3 79 -27.5t30 -59.5q0 -40 -38 -64t-97 -24q-38 0 -77 10l3 15q22 -2 31 -2q40 0 63 14.5t23 43.5q0 26 -22.5 39.5t-60.5 15.5l46 88q-61 10 -118 41l-110 -46v176l101 -57q102 -57 188 -57q87 0 87 58q0 34 -35.5 57t-120.5 43q-115 26 -168.5 71
t-53.5 116t49 112t135 41q98 0 178 -52l92 41v-167l-84 52q-101 65 -178 65q-38 0 -58 -14.5t-20 -41.5q0 -34 35.5 -56.5t118.5 -40.5q121 -25 176 -68.5t55 -116.5q0 -76 -54 -119t-150 -43q-16 0 -23 1z" />
    <glyph glyph-name="scircumflex" unicode="&#x15d;" horiz-adv-x="603" 
d="M54 166l101 -57q102 -57 188 -57q87 0 87 58q0 34 -35.5 57t-120.5 43q-115 26 -168.5 71t-53.5 116t49 112t135 41q98 0 178 -52l92 41v-167l-84 52q-101 65 -178 65q-38 0 -58 -14.5t-20 -41.5q0 -34 35.5 -56.5t118.5 -40.5q121 -25 176 -68.5t55 -116.5
q0 -76 -54 -119t-150 -43q-95 0 -183 47l-110 -46v176zM365.5 610.5q-44.5 14.5 -77.5 33.5q-71 -40 -170 -56l-5 19q113 51 158 145h34q46 -96 158 -145l-6 -19q-47 8 -91.5 22.5z" />
    <glyph glyph-name="uni0219" unicode="&#x219;" horiz-adv-x="603" 
d="M54 166l101 -57q102 -57 188 -57q87 0 87 58q0 34 -35.5 57t-120.5 43q-115 26 -168.5 71t-53.5 116t49 112t135 41q98 0 178 -52l92 41v-167l-84 52q-101 65 -178 65q-38 0 -58 -14.5t-20 -41.5q0 -34 35.5 -56.5t118.5 -40.5q121 -25 176 -68.5t55 -116.5
q0 -76 -54 -119t-150 -43q-95 0 -183 47l-110 -46v176zM245 -306q36 21 57 53.5t21 66.5h-14q-30 0 -50 19t-20 46q0 28 20 47t50 19q35 0 58 -27.5t23 -69.5q0 -55 -37 -101.5t-97 -68.5z" />
    <glyph glyph-name="germandbls" unicode="&#xdf;" horiz-adv-x="785" 
d="M111 101v358h-94v71h98q12 110 86 170t197 60q111 0 173.5 -46t62.5 -128q0 -49 -24 -99q-27 3 -50 3q-56 0 -87 -17.5t-31 -51.5q0 -29 23.5 -45t85.5 -28q209 -37 209 -187q0 -78 -51 -125t-135 -47q-82 0 -145 46l-104 -45v181l76 -58q83 -62 152 -62q41 0 62 17.5
t21 51.5t-27.5 55t-92.5 35q-94 21 -139.5 62.5t-45.5 105.5t46 102.5t134 49.5q4 23 4 47q0 64 -33 98.5t-93 34.5q-71 0 -104 -52t-33 -163v-495h-186z" />
    <glyph glyph-name="t" unicode="t" horiz-adv-x="415" 
d="M111 530l45 175h93v-175h122v-72h-122v-295q0 -105 79 -105q37 0 58 20l9 -10q-18 -38 -53.5 -58.5t-84.5 -20.5q-71 0 -110 42.5t-39 120.5v306h-99v72h102z" />
    <glyph glyph-name="tbar" unicode="&#x167;" horiz-adv-x="415" 
d="M108 349v109h-99v72h102l45 175h93v-175h122v-72h-122v-109h106v-55h-106v-131q0 -105 79 -105q37 0 58 20l9 -10q-18 -38 -53.5 -58.5t-84.5 -20.5q-71 0 -110 42.5t-39 120.5v142h-89v55h89z" />
    <glyph glyph-name="tcaron" unicode="&#x165;" horiz-adv-x="415" 
d="M111 530l45 175h93v-175h122v-72h-122v-295q0 -105 79 -105q37 0 58 20l9 -10q-18 -38 -53.5 -58.5t-84.5 -20.5q-71 0 -110 42.5t-39 120.5v306h-99v72h102zM317 630q36 21 57 53.5t21 66.5h-14q-30 0 -50 19t-20 46q0 28 20 47t50 19q35 0 58 -27.5t23 -69.5
q0 -55 -37 -101.5t-97 -68.5z" />
    <glyph glyph-name="uni0163" unicode="&#x163;" horiz-adv-x="415" 
d="M344 11q-34 -20 -81 -22l-21 -43q49 -3 79 -27.5t30 -59.5q0 -40 -38 -64t-97 -24q-38 0 -77 10l3 15q22 -2 31 -2q40 0 63 14.5t23 43.5q0 26 -22.5 39.5t-60.5 15.5l44 85q-54 11 -83 52t-29 108v306h-99v72h102l45 175h93v-175h122v-72h-122v-295q0 -105 79 -105
q37 0 58 20l9 -10q-17 -37 -51 -57z" />
    <glyph glyph-name="uni021B" unicode="&#x21b;" horiz-adv-x="415" 
d="M111 530l45 175h93v-175h122v-72h-122v-295q0 -105 79 -105q37 0 58 20l9 -10q-18 -38 -53.5 -58.5t-84.5 -20.5q-71 0 -110 42.5t-39 120.5v306h-99v72h102zM184 -306q36 21 57 53.5t21 66.5h-14q-30 0 -50 19t-20 46q0 28 20 47t50 19q35 0 58 -27.5t23 -69.5
q0 -55 -37 -101.5t-97 -68.5z" />
    <glyph glyph-name="u" unicode="u" horiz-adv-x="698" 
d="M234 195q0 -55 23.5 -84t67.5 -29q50 0 85.5 36.5t49.5 101.5v205l-90 105h224v-433l83 -97h-204v128q-28 -68 -79.5 -103.5t-121.5 -35.5q-83 0 -130.5 50.5t-47.5 139.5v251l-86 100h226v-335z" />
    <glyph glyph-name="uacute" unicode="&#xfa;" horiz-adv-x="698" 
d="M234 195q0 -55 23.5 -84t67.5 -29q50 0 85.5 36.5t49.5 101.5v205l-90 105h224v-433l83 -97h-204v128q-28 -68 -79.5 -103.5t-121.5 -35.5q-83 0 -130.5 50.5t-47.5 139.5v251l-86 100h226v-335zM217 617q43 11 75.5 35.5t57.5 65.5q15 22 27.5 31.5t27.5 9.5
q21 0 35 -13.5t14 -34.5q0 -24 -24 -47q-32 -30 -85.5 -47.5t-127.5 -18.5v19z" />
    <glyph glyph-name="ubreve" unicode="&#x16d;" horiz-adv-x="698" 
d="M234 195q0 -55 23.5 -84t67.5 -29q50 0 85.5 36.5t49.5 101.5v205l-90 105h224v-433l83 -97h-204v128q-28 -68 -79.5 -103.5t-121.5 -35.5q-83 0 -130.5 50.5t-47.5 139.5v251l-86 100h226v-335zM214.5 630.5q-38.5 37.5 -46.5 106.5h20q17 -42 48.5 -61.5t83.5 -19.5
t83 19t49 62h19q-8 -69 -46 -106.5t-105 -37.5t-105.5 37.5z" />
    <glyph glyph-name="ucircumflex" unicode="&#xfb;" horiz-adv-x="698" 
d="M234 195q0 -55 23.5 -84t67.5 -29q50 0 85.5 36.5t49.5 101.5v205l-90 105h224v-433l83 -97h-204v128q-28 -68 -79.5 -103.5t-121.5 -35.5q-83 0 -130.5 50.5t-47.5 139.5v251l-86 100h226v-335zM397.5 610.5q-44.5 14.5 -77.5 33.5q-71 -40 -170 -56l-5 19
q113 51 158 145h34q46 -96 158 -145l-6 -19q-47 8 -91.5 22.5z" />
    <glyph glyph-name="udieresis" unicode="&#xfc;" horiz-adv-x="698" 
d="M234 195q0 -55 23.5 -84t67.5 -29q50 0 85.5 36.5t49.5 101.5v205l-90 105h224v-433l83 -97h-204v128q-28 -68 -79.5 -103.5t-121.5 -35.5q-83 0 -130.5 50.5t-47.5 139.5v251l-86 100h226v-335zM253.5 696.5q15.5 -15.5 15.5 -39.5t-16 -39.5t-39 -15.5q-24 0 -40 15.5
t-16 39.5q0 25 16 40t40 15t39.5 -15.5zM464.5 696.5q15.5 -15.5 15.5 -39.5t-15.5 -39.5t-39.5 -15.5q-23 0 -39.5 15.5t-16.5 39.5q0 25 16.5 40t39.5 15q24 0 39.5 -15.5z" />
    <glyph glyph-name="ugrave" unicode="&#xf9;" horiz-adv-x="698" 
d="M234 195q0 -55 23.5 -84t67.5 -29q50 0 85.5 36.5t49.5 101.5v205l-90 105h224v-433l83 -97h-204v128q-28 -68 -79.5 -103.5t-121.5 -35.5q-83 0 -130.5 50.5t-47.5 139.5v251l-86 100h226v-335zM296.5 616.5q-53.5 17.5 -84.5 47.5q-25 22 -25 47q0 21 13.5 34.5
t35.5 13.5q15 0 28 -10t27 -31q25 -41 57.5 -65.5t75.5 -35.5v-19q-74 1 -127.5 18.5z" />
    <glyph glyph-name="uhungarumlaut" unicode="&#x171;" horiz-adv-x="698" 
d="M234 195q0 -55 23.5 -84t67.5 -29q50 0 85.5 36.5t49.5 101.5v205l-90 105h224v-433l83 -97h-204v128q-28 -68 -79.5 -103.5t-121.5 -35.5q-83 0 -130.5 50.5t-47.5 139.5v251l-86 100h226v-335zM215 613q15 20 26.5 48.5t15.5 51.5q9 51 46 51q18 0 29 -11t11 -30
q0 -20 -14 -41q-16 -23 -43 -44t-62 -34zM361 613q14 21 26 49.5t16 50.5q9 51 46 51q18 0 28.5 -11t10.5 -30t-13 -41q-16 -23 -43 -44t-62 -34z" />
    <glyph glyph-name="umacron" unicode="&#x16b;" horiz-adv-x="698" 
d="M234 195q0 -55 23.5 -84t67.5 -29q50 0 85.5 36.5t49.5 101.5v205l-90 105h224v-433l83 -97h-204v128q-28 -68 -79.5 -103.5t-121.5 -35.5q-83 0 -130.5 50.5t-47.5 139.5v251l-86 100h226v-335zM166 659h307v-46h-307v46z" />
    <glyph glyph-name="uogonek" unicode="&#x173;" horiz-adv-x="698" 
d="M591 -166.5q16 -24.5 48 -37.5l-5 -13q-65 -3 -103.5 27t-38.5 80q0 31 15 59.5t43 50.5h-77v128q-28 -68 -79.5 -103.5t-121.5 -35.5q-83 0 -130.5 50.5t-47.5 139.5v251l-86 100h226v-335q0 -55 23.5 -84t67.5 -29q50 0 85.5 36.5t49.5 101.5v205l-90 105h224v-433
l83 -97h-73q-29 -46 -29 -103q0 -39 16 -63.5z" />
    <glyph glyph-name="uring" unicode="&#x16f;" horiz-adv-x="698" 
d="M234 195q0 -55 23.5 -84t67.5 -29q50 0 85.5 36.5t49.5 101.5v205l-90 105h224v-433l83 -97h-204v128q-28 -68 -79.5 -103.5t-121.5 -35.5q-83 0 -130.5 50.5t-47.5 139.5v251l-86 100h226v-335zM246 610q-29 29 -29 72q0 44 29 73.5t72 29.5q44 0 73.5 -29.5t29.5 -73.5
q0 -43 -29.5 -72t-73.5 -29q-43 0 -72 29zM371 630q21 21 21 53t-21 52.5t-53 20.5t-52.5 -20.5t-20.5 -52.5t20.5 -53t52.5 -21t53 21z" />
    <glyph glyph-name="utilde" unicode="&#x169;" horiz-adv-x="698" 
d="M234 195q0 -55 23.5 -84t67.5 -29q50 0 85.5 36.5t49.5 101.5v205l-90 105h224v-433l83 -97h-204v128q-28 -68 -79.5 -103.5t-121.5 -35.5q-83 0 -130.5 50.5t-47.5 139.5v251l-86 100h226v-335zM448 628.5q-23 -25.5 -68 -25.5q-23 0 -43 5t-48 14q-17 5 -33.5 9.5
t-28.5 4.5q-37 0 -46 -35l-15 7q2 49 27.5 75t68.5 26q18 0 35.5 -4t32 -8.5t19.5 -5.5q43 -15 63 -15q36 0 44 35l16 -7q-1 -50 -24 -75.5z" />
    <glyph glyph-name="v" unicode="v" horiz-adv-x="611" 
d="M95 428l-96 102h293l-45 -101l120 -309l130 320l-75 90h179l-216 -536h-113z" />
    <glyph glyph-name="w" unicode="w" horiz-adv-x="929" 
d="M90 434l-91 96h280l-41 -90l110 -319l103 283l-16 43l-78 83h277l-46 -101l115 -314l116 326l-74 89h175l-195 -536h-118l-121 317l-119 -317h-117z" />
    <glyph glyph-name="wacute" unicode="&#x1e83;" horiz-adv-x="929" 
d="M90 434l-91 96h280l-41 -90l110 -319l103 283l-16 43l-78 83h277l-46 -101l115 -314l116 326l-74 89h175l-195 -536h-118l-121 317l-119 -317h-117zM392 617q43 11 75.5 35.5t57.5 65.5q15 22 27.5 31.5t27.5 9.5q21 0 35 -13.5t14 -34.5q0 -24 -24 -47
q-32 -30 -85.5 -47.5t-127.5 -18.5v19z" />
    <glyph glyph-name="wcircumflex" unicode="&#x175;" horiz-adv-x="929" 
d="M90 434l-91 96h280l-41 -90l110 -319l103 283l-16 43l-78 83h277l-46 -101l115 -314l116 326l-74 89h175l-195 -536h-118l-121 317l-119 -317h-117zM572.5 610.5q-44.5 14.5 -77.5 33.5q-71 -40 -170 -56l-5 19q113 51 158 145h34q46 -96 158 -145l-6 -19
q-47 8 -91.5 22.5z" />
    <glyph glyph-name="wdieresis" unicode="&#x1e85;" horiz-adv-x="929" 
d="M90 434l-91 96h280l-41 -90l110 -319l103 283l-16 43l-78 83h277l-46 -101l115 -314l116 326l-74 89h175l-195 -536h-118l-121 317l-119 -317h-117zM428.5 696.5q15.5 -15.5 15.5 -39.5t-16 -39.5t-39 -15.5q-24 0 -40 15.5t-16 39.5q0 25 16 40t40 15t39.5 -15.5z
M639.5 696.5q15.5 -15.5 15.5 -39.5t-15.5 -39.5t-39.5 -15.5q-23 0 -39.5 15.5t-16.5 39.5q0 25 16.5 40t39.5 15q24 0 39.5 -15.5z" />
    <glyph glyph-name="wgrave" unicode="&#x1e81;" horiz-adv-x="929" 
d="M90 434l-91 96h280l-41 -90l110 -319l103 283l-16 43l-78 83h277l-46 -101l115 -314l116 326l-74 89h175l-195 -536h-118l-121 317l-119 -317h-117zM471.5 616.5q-53.5 17.5 -84.5 47.5q-25 22 -25 47q0 21 13.5 34.5t35.5 13.5q15 0 28 -10t27 -31q25 -41 57.5 -65.5
t75.5 -35.5v-19q-74 1 -127.5 18.5z" />
    <glyph glyph-name="x" unicode="x" horiz-adv-x="606" 
d="M-1 0l230 249l-227 281h255l-33 -73l102 -125l119 130l-59 68h204l-227 -244l231 -286h-256l34 73l-106 130l-121 -134l58 -69h-204z" />
    <glyph glyph-name="y" unicode="y" horiz-adv-x="611" 
d="M99 -124.5q17 14.5 48 14.5q16 0 34 -4t23 -5q32 -8 47 -8q33 0 53.5 18.5t20.5 50.5q0 26 -16.5 46.5t-47.5 33.5l-166 406l-96 102h293l-45 -101l120 -309l130 320l-75 90h179l-211 -522q15 -32 15 -64q0 -51 -27 -92t-74.5 -64t-108.5 -23q-54 0 -83.5 18t-29.5 52
q0 26 17 40.5z" />
    <glyph glyph-name="yacute" unicode="&#xfd;" horiz-adv-x="611" 
d="M99 -124.5q17 14.5 48 14.5q16 0 34 -4t23 -5q32 -8 47 -8q33 0 53.5 18.5t20.5 50.5q0 26 -16.5 46.5t-47.5 33.5l-166 406l-96 102h293l-45 -101l120 -309l130 320l-75 90h179l-211 -522q15 -32 15 -64q0 -51 -27 -92t-74.5 -64t-108.5 -23q-54 0 -83.5 18t-29.5 52
q0 26 17 40.5zM230 617q43 11 75.5 35.5t57.5 65.5q15 22 27.5 31.5t27.5 9.5q21 0 35 -13.5t14 -34.5q0 -24 -24 -47q-32 -30 -85.5 -47.5t-127.5 -18.5v19z" />
    <glyph glyph-name="ycircumflex" unicode="&#x177;" horiz-adv-x="611" 
d="M99 -124.5q17 14.5 48 14.5q16 0 34 -4t23 -5q32 -8 47 -8q33 0 53.5 18.5t20.5 50.5q0 26 -16.5 46.5t-47.5 33.5l-166 406l-96 102h293l-45 -101l120 -309l130 320l-75 90h179l-211 -522q15 -32 15 -64q0 -51 -27 -92t-74.5 -64t-108.5 -23q-54 0 -83.5 18t-29.5 52
q0 26 17 40.5zM410.5 610.5q-44.5 14.5 -77.5 33.5q-71 -40 -170 -56l-5 19q113 51 158 145h34q46 -96 158 -145l-6 -19q-47 8 -91.5 22.5z" />
    <glyph glyph-name="ydieresis" unicode="&#xff;" horiz-adv-x="611" 
d="M99 -124.5q17 14.5 48 14.5q16 0 34 -4t23 -5q32 -8 47 -8q33 0 53.5 18.5t20.5 50.5q0 26 -16.5 46.5t-47.5 33.5l-166 406l-96 102h293l-45 -101l120 -309l130 320l-75 90h179l-211 -522q15 -32 15 -64q0 -51 -27 -92t-74.5 -64t-108.5 -23q-54 0 -83.5 18t-29.5 52
q0 26 17 40.5zM266.5 696.5q15.5 -15.5 15.5 -39.5t-16 -39.5t-39 -15.5q-24 0 -40 15.5t-16 39.5q0 25 16 40t40 15t39.5 -15.5zM477.5 696.5q15.5 -15.5 15.5 -39.5t-15.5 -39.5t-39.5 -15.5q-23 0 -39.5 15.5t-16.5 39.5q0 25 16.5 40t39.5 15q24 0 39.5 -15.5z" />
    <glyph glyph-name="ygrave" unicode="&#x1ef3;" horiz-adv-x="611" 
d="M99 -124.5q17 14.5 48 14.5q16 0 34 -4t23 -5q32 -8 47 -8q33 0 53.5 18.5t20.5 50.5q0 26 -16.5 46.5t-47.5 33.5l-166 406l-96 102h293l-45 -101l120 -309l130 320l-75 90h179l-211 -522q15 -32 15 -64q0 -51 -27 -92t-74.5 -64t-108.5 -23q-54 0 -83.5 18t-29.5 52
q0 26 17 40.5zM309.5 616.5q-53.5 17.5 -84.5 47.5q-25 22 -25 47q0 21 13.5 34.5t35.5 13.5q15 0 28 -10t27 -31q25 -41 57.5 -65.5t75.5 -35.5v-19q-74 1 -127.5 18.5z" />
    <glyph glyph-name="z" unicode="z" horiz-adv-x="602" 
d="M359 468h-163l-117 -137v199h482l-314 -467h176l130 139v-202h-512z" />
    <glyph glyph-name="zacute" unicode="&#x17a;" horiz-adv-x="602" 
d="M359 468h-163l-117 -137v199h482l-314 -467h176l130 139v-202h-512zM209 617q43 11 75.5 35.5t57.5 65.5q15 22 27.5 31.5t27.5 9.5q21 0 35 -13.5t14 -34.5q0 -24 -24 -47q-32 -30 -85.5 -47.5t-127.5 -18.5v19z" />
    <glyph glyph-name="zcaron" unicode="&#x17e;" horiz-adv-x="602" 
d="M359 468h-163l-117 -137v199h482l-314 -467h176l130 139v-202h-512zM312 697q34 19 78.5 33t91.5 22l5 -19q-114 -51 -158 -145h-34q-45 95 -158 145l5 19q97 -15 170 -55z" />
    <glyph glyph-name="zdotaccent" unicode="&#x17c;" horiz-adv-x="602" 
d="M359 468h-163l-117 -137v199h482l-314 -467h176l130 139v-202h-512zM264.5 631.5q-18.5 18.5 -18.5 46.5t18.5 46t47.5 18q28 0 46.5 -18t18.5 -46t-18.5 -46.5t-46.5 -18.5q-29 0 -47.5 18.5z" />
    <glyph glyph-name="uni01B6" unicode="&#x1b6;" horiz-adv-x="602" 
d="M433 63l120 129v-192h-512l164 241h-86v48h118l122 179h-173l-107 -127v189h482l-162 -241h85v-48h-117l-120 -178h186z" />
    <glyph glyph-name="a.ss01" horiz-adv-x="679" 
d="M149 24q-51 35 -79 99t-28 148q0 83 28 146t78.5 98t116.5 35q61 0 108.5 -30t73.5 -82l21 92h115v-442l74 -88h-202v121q-22 -60 -72 -96t-117 -36q-66 0 -117 35zM393.5 102.5q32.5 22.5 49.5 63.5v206q-17 41 -49.5 64t-73.5 23q-61 0 -96.5 -50.5t-35.5 -138.5
q0 -89 35.5 -139.5t96.5 -50.5q41 0 73.5 22.5z" />
    <glyph glyph-name="aacute.ss01" horiz-adv-x="679" 
d="M149 24q-51 35 -79 99t-28 148q0 83 28 146t78.5 98t116.5 35q61 0 108.5 -30t73.5 -82l21 92h115v-442l74 -88h-202v121q-22 -60 -72 -96t-117 -36q-66 0 -117 35zM393.5 102.5q32.5 22.5 49.5 63.5v206q-17 41 -49.5 64t-73.5 23q-61 0 -96.5 -50.5t-35.5 -138.5
q0 -89 35.5 -139.5t96.5 -50.5q41 0 73.5 22.5zM207 617q43 11 75.5 35.5t57.5 65.5q15 22 27.5 31.5t27.5 9.5q21 0 35 -13.5t14 -34.5q0 -24 -24 -47q-32 -30 -85.5 -47.5t-127.5 -18.5v19z" />
    <glyph glyph-name="abreve.ss01" horiz-adv-x="679" 
d="M149 24q-51 35 -79 99t-28 148q0 83 28 146t78.5 98t116.5 35q61 0 108.5 -30t73.5 -82l21 92h115v-442l74 -88h-202v121q-22 -60 -72 -96t-117 -36q-66 0 -117 35zM393.5 102.5q32.5 22.5 49.5 63.5v206q-17 41 -49.5 64t-73.5 23q-61 0 -96.5 -50.5t-35.5 -138.5
q0 -89 35.5 -139.5t96.5 -50.5q41 0 73.5 22.5zM204.5 630.5q-38.5 37.5 -46.5 106.5h20q17 -42 48.5 -61.5t83.5 -19.5t83 19t49 62h19q-8 -69 -46 -106.5t-105 -37.5t-105.5 37.5z" />
    <glyph glyph-name="acircumflex.ss01" horiz-adv-x="679" 
d="M149 24q-51 35 -79 99t-28 148q0 83 28 146t78.5 98t116.5 35q61 0 108.5 -30t73.5 -82l21 92h115v-442l74 -88h-202v121q-22 -60 -72 -96t-117 -36q-66 0 -117 35zM393.5 102.5q32.5 22.5 49.5 63.5v206q-17 41 -49.5 64t-73.5 23q-61 0 -96.5 -50.5t-35.5 -138.5
q0 -89 35.5 -139.5t96.5 -50.5q41 0 73.5 22.5zM387.5 610.5q-44.5 14.5 -77.5 33.5q-71 -40 -170 -56l-5 19q113 51 158 145h34q46 -96 158 -145l-6 -19q-47 8 -91.5 22.5z" />
    <glyph glyph-name="adieresis.ss01" horiz-adv-x="679" 
d="M149 24q-51 35 -79 99t-28 148q0 83 28 146t78.5 98t116.5 35q61 0 108.5 -30t73.5 -82l21 92h115v-442l74 -88h-202v121q-22 -60 -72 -96t-117 -36q-66 0 -117 35zM393.5 102.5q32.5 22.5 49.5 63.5v206q-17 41 -49.5 64t-73.5 23q-61 0 -96.5 -50.5t-35.5 -138.5
q0 -89 35.5 -139.5t96.5 -50.5q41 0 73.5 22.5zM243.5 696.5q15.5 -15.5 15.5 -39.5t-16 -39.5t-39 -15.5q-24 0 -40 15.5t-16 39.5q0 25 16 40t40 15t39.5 -15.5zM454.5 696.5q15.5 -15.5 15.5 -39.5t-15.5 -39.5t-39.5 -15.5q-23 0 -39.5 15.5t-16.5 39.5q0 25 16.5 40
t39.5 15q24 0 39.5 -15.5z" />
    <glyph glyph-name="agrave.ss01" horiz-adv-x="679" 
d="M149 24q-51 35 -79 99t-28 148q0 83 28 146t78.5 98t116.5 35q61 0 108.5 -30t73.5 -82l21 92h115v-442l74 -88h-202v121q-22 -60 -72 -96t-117 -36q-66 0 -117 35zM393.5 102.5q32.5 22.5 49.5 63.5v206q-17 41 -49.5 64t-73.5 23q-61 0 -96.5 -50.5t-35.5 -138.5
q0 -89 35.5 -139.5t96.5 -50.5q41 0 73.5 22.5zM286.5 616.5q-53.5 17.5 -84.5 47.5q-25 22 -25 47q0 21 13.5 34.5t35.5 13.5q15 0 28 -10t27 -31q25 -41 57.5 -65.5t75.5 -35.5v-19q-74 1 -127.5 18.5z" />
    <glyph glyph-name="uni0203.ss01" horiz-adv-x="679" 
d="M149 24q-51 35 -79 99t-28 148q0 83 28 146t78.5 98t116.5 35q61 0 108.5 -30t73.5 -82l21 92h115v-442l74 -88h-202v121q-22 -60 -72 -96t-117 -36q-66 0 -117 35zM393.5 102.5q32.5 22.5 49.5 63.5v206q-17 41 -49.5 64t-73.5 23q-61 0 -96.5 -50.5t-35.5 -138.5
q0 -89 35.5 -139.5t96.5 -50.5q41 0 73.5 22.5z" />
    <glyph glyph-name="amacron.ss01" horiz-adv-x="679" 
d="M149 24q-51 35 -79 99t-28 148q0 83 28 146t78.5 98t116.5 35q61 0 108.5 -30t73.5 -82l21 92h115v-442l74 -88h-202v121q-22 -60 -72 -96t-117 -36q-66 0 -117 35zM393.5 102.5q32.5 22.5 49.5 63.5v206q-17 41 -49.5 64t-73.5 23q-61 0 -96.5 -50.5t-35.5 -138.5
q0 -89 35.5 -139.5t96.5 -50.5q41 0 73.5 22.5zM156 659h307v-46h-307v46z" />
    <glyph glyph-name="aogonek.ss01" horiz-adv-x="679" 
d="M575 -166.5q16 -24.5 48 -37.5l-5 -13q-65 -3 -103.5 27t-38.5 80q0 31 15 59.5t43 50.5h-79v121q-22 -60 -72 -96t-117 -36q-66 0 -117 35t-79 99t-28 148q0 83 28 146t78.5 98t116.5 35q61 0 108.5 -30t73.5 -82l21 92h115v-442l74 -88h-69q-29 -46 -29 -103
q0 -39 16 -63.5zM443 372q-17 41 -49.5 64t-73.5 23q-61 0 -96.5 -50.5t-35.5 -138.5q0 -89 35.5 -139.5t96.5 -50.5q41 0 73.5 22.5t49.5 63.5v206z" />
    <glyph glyph-name="aring.ss01" horiz-adv-x="679" 
d="M149 24q-51 35 -79 99t-28 148q0 83 28 146t78.5 98t116.5 35q61 0 108.5 -30t73.5 -82l21 92h115v-442l74 -88h-202v121q-22 -60 -72 -96t-117 -36q-66 0 -117 35zM393.5 102.5q32.5 22.5 49.5 63.5v206q-17 41 -49.5 64t-73.5 23q-61 0 -96.5 -50.5t-35.5 -138.5
q0 -89 35.5 -139.5t96.5 -50.5q41 0 73.5 22.5zM236 610q-29 29 -29 72q0 44 29 73.5t72 29.5q44 0 73.5 -29.5t29.5 -73.5q0 -43 -29.5 -72t-73.5 -29q-43 0 -72 29zM361 630q21 21 21 53t-21 52.5t-53 20.5t-52.5 -20.5t-20.5 -52.5t20.5 -53t52.5 -21t53 21z" />
    <glyph glyph-name="atilde.ss01" horiz-adv-x="679" 
d="M149 24q-51 35 -79 99t-28 148q0 83 28 146t78.5 98t116.5 35q61 0 108.5 -30t73.5 -82l21 92h115v-442l74 -88h-202v121q-22 -60 -72 -96t-117 -36q-66 0 -117 35zM393.5 102.5q32.5 22.5 49.5 63.5v206q-17 41 -49.5 64t-73.5 23q-61 0 -96.5 -50.5t-35.5 -138.5
q0 -89 35.5 -139.5t96.5 -50.5q41 0 73.5 22.5zM438 628.5q-23 -25.5 -68 -25.5q-23 0 -43 5t-48 14q-17 5 -33.5 9.5t-28.5 4.5q-37 0 -46 -35l-15 7q2 49 27.5 75t68.5 26q18 0 35.5 -4t32 -8.5t19.5 -5.5q43 -15 63 -15q36 0 44 35l16 -7q-1 -50 -24 -75.5z" />
    <glyph glyph-name="ae.ss01" horiz-adv-x="948" 
d="M518 268q9 -96 62 -147.5t144 -51.5q50 0 90.5 18t82.5 59l10 -8q-37 -73 -102 -111t-152 -38q-83 0 -146 34.5t-96 97.5q-38 -132 -188 -132q-83 0 -132.5 39t-49.5 104q0 55 38 93t111 55q35 10 84.5 15.5t100.5 5.5v47q0 77 -26.5 114.5t-79.5 37.5q-42 0 -64 -22
t-24 -65q0 -35 -16 -54.5t-45 -19.5q-28 0 -45.5 18.5t-17.5 49.5q0 42 28.5 74.5t79.5 50.5t115 18q63 0 110.5 -21t74.5 -60q35 38 83.5 59.5t105.5 21.5q117 0 179 -74t58 -208h-373zM553.5 448.5q-34.5 -45.5 -38.5 -128.5h253q0 86 -30.5 130t-88.5 44
q-61 0 -95.5 -45.5zM375 259q-89 -2 -135 -24q-58 -26 -58 -88q0 -41 23.5 -65.5t63.5 -24.5q51 0 78.5 41.5t27.5 117.5v43z" />
    <glyph glyph-name="aeacute.ss01" horiz-adv-x="948" 
d="M518 268q9 -96 62 -147.5t144 -51.5q50 0 90.5 18t82.5 59l10 -8q-37 -73 -102 -111t-152 -38q-83 0 -146 34.5t-96 97.5q-38 -132 -188 -132q-83 0 -132.5 39t-49.5 104q0 55 38 93t111 55q35 10 84.5 15.5t100.5 5.5v47q0 77 -26.5 114.5t-79.5 37.5q-42 0 -64 -22
t-24 -65q0 -35 -16 -54.5t-45 -19.5q-28 0 -45.5 18.5t-17.5 49.5q0 42 28.5 74.5t79.5 50.5t115 18q63 0 110.5 -21t74.5 -60q35 38 83.5 59.5t105.5 21.5q117 0 179 -74t58 -208h-373zM553.5 448.5q-34.5 -45.5 -38.5 -128.5h253q0 86 -30.5 130t-88.5 44
q-61 0 -95.5 -45.5zM375 259q-89 -2 -135 -24q-58 -26 -58 -88q0 -41 23.5 -65.5t63.5 -24.5q51 0 78.5 41.5t27.5 117.5v43zM356 617q43 11 75.5 35.5t57.5 65.5q15 22 27.5 31.5t27.5 9.5q21 0 35 -13.5t14 -34.5q0 -24 -24 -47q-32 -30 -85.5 -47.5t-127.5 -18.5v19z" />
    <glyph glyph-name="g.ss01" horiz-adv-x="654" 
d="M124 -207q-54 29 -54 75q0 26 16 41t44 15q21 0 37.5 -10.5t33.5 -35.5q20 -29 41 -41t52 -12q68 0 104 55t36 162v50q-27 -49 -73 -76t-104 -27q-66 0 -116.5 35t-78.5 99t-28 148q0 83 27.5 146t78 98t116.5 35q60 0 108 -29.5t74 -82.5l22 92h115v-477
q0 -86 -38.5 -151.5t-109 -101.5t-163.5 -36q-86 0 -140 29zM384.5 102.5q32.5 22.5 49.5 63.5v206q-17 41 -49.5 64t-73.5 23q-61 0 -96 -50.5t-35 -138.5q0 -89 35.5 -139.5t96.5 -50.5q40 0 72.5 22.5z" />
    <glyph glyph-name="gbreve.ss01" horiz-adv-x="654" 
d="M124 -207q-54 29 -54 75q0 26 16 41t44 15q21 0 37.5 -10.5t33.5 -35.5q20 -29 41 -41t52 -12q68 0 104 55t36 162v50q-27 -49 -73 -76t-104 -27q-66 0 -116.5 35t-78.5 99t-28 148q0 83 27.5 146t78 98t116.5 35q60 0 108 -29.5t74 -82.5l22 92h115v-477
q0 -86 -38.5 -151.5t-109 -101.5t-163.5 -36q-86 0 -140 29zM384.5 102.5q32.5 22.5 49.5 63.5v206q-17 41 -49.5 64t-73.5 23q-61 0 -96 -50.5t-35 -138.5q0 -89 35.5 -139.5t96.5 -50.5q40 0 72.5 22.5zM202.5 630.5q-38.5 37.5 -46.5 106.5h20q17 -42 48.5 -61.5
t83.5 -19.5t83 19t49 62h19q-8 -69 -46 -106.5t-105 -37.5t-105.5 37.5z" />
    <glyph glyph-name="gcircumflex.ss01" horiz-adv-x="654" 
d="M124 -207q-54 29 -54 75q0 26 16 41t44 15q21 0 37.5 -10.5t33.5 -35.5q20 -29 41 -41t52 -12q68 0 104 55t36 162v50q-27 -49 -73 -76t-104 -27q-66 0 -116.5 35t-78.5 99t-28 148q0 83 27.5 146t78 98t116.5 35q60 0 108 -29.5t74 -82.5l22 92h115v-477
q0 -86 -38.5 -151.5t-109 -101.5t-163.5 -36q-86 0 -140 29zM384.5 102.5q32.5 22.5 49.5 63.5v206q-17 41 -49.5 64t-73.5 23q-61 0 -96 -50.5t-35 -138.5q0 -89 35.5 -139.5t96.5 -50.5q40 0 72.5 22.5zM385.5 610.5q-44.5 14.5 -77.5 33.5q-71 -40 -170 -56l-5 19
q113 51 158 145h34q46 -96 158 -145l-6 -19q-47 8 -91.5 22.5z" />
    <glyph glyph-name="uni0123.ss01" horiz-adv-x="654" 
d="M383 871q-40 -22 -63 -57t-23 -73h16q32 0 54 -20.5t22 -50.5q0 -31 -22 -51.5t-55 -20.5q-39 0 -63.5 29.5t-24.5 76.5q0 60 40.5 111t106.5 74zM124 -207q-54 29 -54 75q0 26 16 41t44 15q21 0 37.5 -10.5t33.5 -35.5q20 -29 41 -41t52 -12q68 0 104 55t36 162v50
q-27 -49 -73 -76t-104 -27q-66 0 -116.5 35t-78.5 99t-28 148q0 83 27.5 146t78 98t116.5 35q60 0 108 -29.5t74 -82.5l22 92h115v-477q0 -86 -38.5 -151.5t-109 -101.5t-163.5 -36q-86 0 -140 29zM384.5 102.5q32.5 22.5 49.5 63.5v206q-17 41 -49.5 64t-73.5 23
q-61 0 -96 -50.5t-35 -138.5q0 -89 35.5 -139.5t96.5 -50.5q40 0 72.5 22.5z" />
    <glyph glyph-name="gdotaccent.ss01" horiz-adv-x="654" 
d="M124 -207q-54 29 -54 75q0 26 16 41t44 15q21 0 37.5 -10.5t33.5 -35.5q20 -29 41 -41t52 -12q68 0 104 55t36 162v50q-27 -49 -73 -76t-104 -27q-66 0 -116.5 35t-78.5 99t-28 148q0 83 27.5 146t78 98t116.5 35q60 0 108 -29.5t74 -82.5l22 92h115v-477
q0 -86 -38.5 -151.5t-109 -101.5t-163.5 -36q-86 0 -140 29zM384.5 102.5q32.5 22.5 49.5 63.5v206q-17 41 -49.5 64t-73.5 23q-61 0 -96 -50.5t-35 -138.5q0 -89 35.5 -139.5t96.5 -50.5q40 0 72.5 22.5zM260.5 631.5q-18.5 18.5 -18.5 46.5t18.5 46t47.5 18q28 0 46.5 -18
t18.5 -46t-18.5 -46.5t-46.5 -18.5q-29 0 -47.5 18.5z" />
    <glyph glyph-name="g.ss02" horiz-adv-x="582" 
d="M219.5 175q-18.5 -7 -18.5 -22q0 -25 48 -30l124 -9q93 -6 140.5 -44t47.5 -107q0 -90 -78 -139t-221 -49q-112 0 -171.5 33.5t-59.5 95.5q0 43 27 73t73 39q-47 29 -47 84q0 39 24 65t70 35q-66 19 -101 62t-35 103q0 86 71.5 135t193.5 49q108 0 247 -18v-42h-91
q30 -25 44 -55t14 -68q0 -84 -63 -131.5t-178 -50.5q-42 -2 -60.5 -9zM355.5 268q25.5 36 25.5 103q0 64 -25.5 98t-72.5 34q-49 0 -75.5 -34t-26.5 -98q0 -66 27 -102.5t75 -36.5q47 0 72.5 36zM273 -171q77 0 121.5 24t44.5 66q0 58 -98 65l-134 8q-83 -12 -83 -77
q0 -86 149 -86z" />
    <glyph glyph-name="c_t" horiz-adv-x="1011" 
d="M576 137q-39 -73 -103 -110.5t-150 -37.5q-84 0 -147.5 34t-98.5 95.5t-35 141.5q0 83 36.5 149t101 103.5t145.5 37.5q67 0 121 -26q-10 29 -10 57q0 74 51.5 116.5t141.5 42.5q99 0 155 -54t60 -156h123v-72h-123v-295q0 -53 20 -79t61 -26q34 0 57 20l9 -10
q-19 -38 -54.5 -58.5t-84.5 -20.5q-71 0 -109.5 42.5t-38.5 120.5v306h-99v72h99q0 77 -27 114t-81 37q-50 0 -77.5 -27.5t-27.5 -77.5q0 -27 8.5 -57.5t24.5 -54.5q24 -36 24 -77q0 -33 -17 -50.5t-49 -17.5q-62 0 -68 76q-9 94 -89 94q-63 0 -101 -53t-38 -141
q0 -106 54 -165.5t149 -59.5q103 0 178 74z" />
    <glyph glyph-name="fi" unicode="&#xfb01;" horiz-adv-x="707" 
d="M109 100v359h-94v71h88q-23 31 -23 76q0 44 22.5 79.5t63 55t91.5 19.5q52 0 83 -20t31 -52q0 -23 -16 -37.5t-42 -14.5q-23 0 -53 16q-17 8 -27 12t-23 4q-30 0 -48.5 -17t-18.5 -45q0 -35 32.5 -55.5t89.5 -20.5h336v-441l75 -89h-262l47 105v354h-212v-374l71 -85
h-256zM587 736q22 -23 22 -57t-22 -56t-55 -22q-34 0 -56.5 22t-22.5 56t22.5 57t56.5 23q33 0 55 -23z" />
    <glyph glyph-name="fl" unicode="&#xfb02;" horiz-adv-x="706" 
d="M109 100v359h-94v71h88q-23 31 -23 78q0 67 47 109.5t120 42.5q50 0 79.5 -19.5t29.5 -51.5q0 -24 -15.5 -38.5t-41.5 -14.5q-14 0 -24.5 4t-27.5 13q-26 15 -45 15q-27 0 -43 -16t-16 -44q0 -37 32 -57.5t90 -20.5h65v-71h-81v-374l71 -85h-256zM461 105v536l-95 109
h235v-661l75 -89h-262z" />
    <glyph glyph-name="s_t" horiz-adv-x="1018" 
d="M54 169l101 -57q107 -60 190 -60t83 57q0 32 -33 53t-116 41q-116 26 -171.5 73.5t-55.5 119.5q0 71 49.5 112.5t135.5 41.5q98 0 181 -55q-10 29 -10 62q0 85 58.5 134t156.5 49q104 0 164.5 -55t63.5 -155h123v-72h-123v-295q0 -53 19.5 -79t60.5 -26q37 0 58 20l9 -10
q-19 -38 -54 -58.5t-84 -20.5q-71 0 -110 42.5t-39 120.5v306h-99v72h99q0 76 -32 113.5t-92 37.5q-58 0 -91 -34.5t-33 -98.5q0 -73 45 -180l-84 52q-59 37 -101 53t-79 16q-35 0 -54 -14t-19 -41q0 -31 31.5 -51.5t107.5 -37.5q127 -27 185 -72.5t58 -118.5
q0 -76 -56 -120.5t-151 -44.5q-93 0 -182 47l-110 -46v179z" />
    <glyph glyph-name="ordfeminine" unicode="&#xaa;" horiz-adv-x="479" 
d="M457 408q-20 -67 -84 -67q-29 0 -49.5 15t-28.5 42q-20 -27 -55.5 -42t-79.5 -15q-62 0 -97.5 28.5t-35.5 78.5q0 74 91 107q62 23 166 26v22q0 60 -16 83.5t-56 23.5q-33 0 -49 -14t-21 -46q-7 -50 -52 -50q-25 0 -38 13t-13 37q0 50 50 80t135 30q91 0 133.5 -38.5
t42.5 -120.5v-134q0 -52 52 -52zM284 543q-64 0 -102 -21q-36 -20 -36 -57q0 -27 17.5 -41.5t49.5 -14.5q28 0 43.5 10t27.5 29v95z" />
    <glyph glyph-name="ordmasculine" unicode="&#xba;" horiz-adv-x="545" 
d="M65 659q30 48 83.5 74.5t123.5 26.5t123.5 -26t83.5 -73t30 -108q0 -63 -29.5 -111t-83.5 -74.5t-124 -26.5t-123.5 26t-83.5 73.5t-30 109.5q0 61 30 109zM351 667q-29 42 -79 42q-49 0 -78 -42.5t-29 -114.5q0 -75 28.5 -117.5t78.5 -42.5q51 0 79.5 42.5t28.5 117.5
q0 73 -29 115z" />
    <glyph glyph-name="ordfeminine.osf" horiz-adv-x="477" 
d="M450 266q-10 -33 -31.5 -50t-52.5 -17q-29 0 -49.5 16t-28.5 44q-20 -29 -54 -44.5t-79 -15.5q-61 0 -96 27.5t-35 75.5q0 36 22 60.5t69 40.5q63 23 163 26v17q0 57 -15.5 80t-55.5 23q-31 0 -48 -14t-22 -45q-4 -24 -16 -35.5t-34 -11.5q-24 0 -37 13t-13 37
q0 49 49.5 77t134.5 28q88 0 130 -38t42 -118v-117q0 -26 12.5 -39t39.5 -13zM278 391q-60 0 -99 -22q-36 -19 -36 -51q0 -24 16.5 -37.5t45.5 -13.5q28 0 45.5 12.5t27.5 39.5v72z" />
    <glyph glyph-name="ordmasculine.osf" horiz-adv-x="538" 
d="M60 502.5q29 45.5 81.5 70.5t121.5 25q68 0 120.5 -24.5t81 -69.5t28.5 -104t-28.5 -105t-81 -71t-120.5 -25q-69 0 -121.5 25t-81.5 70t-29 103q0 60 29 105.5zM337 509q-26 38 -74 38q-49 0 -75.5 -38t-26.5 -109t26.5 -110.5t75.5 -39.5q48 0 74 39.5t26 110.5
t-26 109z" />
    <glyph glyph-name="ordfeminine.tf" 
d="M483 408q-20 -67 -84 -67q-29 0 -49.5 15t-28.5 42q-20 -27 -55.5 -42t-79.5 -15q-62 0 -97.5 28.5t-35.5 78.5q0 74 91 107q62 23 166 26v22q0 60 -16 83.5t-56 23.5q-33 0 -49 -14t-21 -46q-7 -50 -52 -50q-25 0 -38 13t-13 37q0 50 50 80t135 30q91 0 133.5 -38.5
t42.5 -120.5v-134q0 -52 52 -52zM310 543q-64 0 -102 -21q-36 -20 -36 -57q0 -27 17.5 -41.5t49.5 -14.5q28 0 43.5 10t27.5 29v95z" />
    <glyph glyph-name="ordmasculine.tf" 
d="M91 659q30 48 83.5 74.5t123.5 26.5t123.5 -26t83.5 -73t30 -108q0 -63 -29.5 -111t-83.5 -74.5t-124 -26.5t-123.5 26t-83.5 73.5t-30 109.5q0 61 30 109zM377 667q-29 42 -79 42q-49 0 -78 -42.5t-29 -114.5q0 -75 28.5 -117.5t78.5 -42.5q51 0 79.5 42.5t28.5 117.5
q0 73 -29 115z" />
    <glyph glyph-name="ordfeminine.tosf" 
d="M486 266q-10 -33 -31.5 -50t-53.5 -17q-29 0 -49 16t-28 44q-20 -29 -54 -44.5t-79 -15.5q-60 0 -95.5 27t-35.5 75q0 35 22 60t69 42q58 23 163 26v17q0 54 -17 78.5t-55 24.5q-60 0 -69 -60q-6 -46 -50 -46q-24 0 -37 13t-13 37q0 48 49 76.5t133 28.5q90 0 132 -38
t42 -118v-117q0 -26 12.5 -39t39.5 -13zM314 391q-63 0 -100 -22q-35 -20 -35 -52q0 -24 17 -37t48 -13q70 0 70 68v56z" />
    <glyph glyph-name="ordmasculine.tosf" 
d="M128.5 546q61.5 52 170.5 52q108 0 169 -51t61 -144q0 -95 -61 -149.5t-169 -54.5q-109 0 -170.5 53.5t-61.5 147.5t61.5 146zM372.5 508.5q-26.5 38.5 -74.5 38.5t-74.5 -38.5t-26.5 -109.5t26.5 -110t74.5 -39t74.5 39t26.5 110t-26.5 109.5z" />
    <glyph glyph-name="uni0394" unicode="&#x394;" horiz-adv-x="641" 
d="M7 0l280 725h76l271 -725h-627zM458 56l-183 488l-185 -488h368z" />
    <glyph glyph-name="uni0394" unicode="&#x3b4;" horiz-adv-x="641" 
d="M7 0l280 725h76l271 -725h-627zM458 56l-183 488l-185 -488h368z" />
    <glyph glyph-name="uni03A9" unicode="&#x3a9;" 
d="M157 53h107v74q-111 40 -170.5 118.5t-59.5 184.5q0 91 42.5 162t118.5 110t173 39q98 0 172.5 -38.5t115.5 -109t41 -163.5q0 -107 -59 -185t-171 -118v-74h106l123 149v-202h-286v163q71 34 101.5 95.5t30.5 170.5q0 134 -42.5 196.5t-131.5 62.5q-91 0 -135.5 -64
t-44.5 -198q0 -110 31.5 -172t100.5 -91v-163h-286v202z" />
    <glyph glyph-name="uni03A9" unicode="&#x3c9;" 
d="M157 53h107v74q-111 40 -170.5 118.5t-59.5 184.5q0 91 42.5 162t118.5 110t173 39q98 0 172.5 -38.5t115.5 -109t41 -163.5q0 -107 -59 -185t-171 -118v-74h106l123 149v-202h-286v163q71 34 101.5 95.5t30.5 170.5q0 134 -42.5 196.5t-131.5 62.5q-91 0 -135.5 -64
t-44.5 -198q0 -110 31.5 -172t100.5 -91v-163h-286v202z" />
    <glyph glyph-name="uni03BC" unicode="&#x3bc;" horiz-adv-x="687" 
d="M473 0v131q-30 -69 -83.5 -105.5t-124.5 -36.5q-19 0 -36 3v-192h-138v730h138v-340q0 -52 23 -80t67 -28q51 0 88 36.5t53 101.5v310h140v-433l84 -97h-211z" />
    <glyph glyph-name="pi" unicode="&#x3c0;" horiz-adv-x="749" 
d="M49.5 102q15.5 15 40.5 15q15 0 29.5 -5t17.5 -6q28 -11 46 -11q27 0 41 20.5t14 59.5v224q-62 -2 -101.5 -20t-62.5 -53l-27 16q18 94 75.5 141t163.5 47q44 0 136 -10q88 -10 122 -10q53 0 86.5 14t54.5 46l27 -11q-10 -78 -44.5 -121t-99.5 -54v-208q0 -50 17 -76.5
t49 -26.5q15 0 28 7t28 25l19 -21q-23 -49 -56 -72t-81 -23q-71 0 -108 47t-37 137v213l-33 3q-66 8 -100 9v-230q0 -85 -42 -132t-117 -47q-47 0 -74 19t-27 53q0 26 15.5 41z" />
    <glyph glyph-name="zero" unicode="0" horiz-adv-x="711" 
d="M121 642q80 98 234 98t235 -97.5t81 -284.5q0 -181 -80.5 -275t-235.5 -94q-153 0 -233.5 94t-80.5 274q0 187 80 285zM475.5 602.5q-41.5 82.5 -120.5 82.5t-120 -82t-41 -241q0 -160 40 -239t121 -79q79 0 120.5 81t41.5 237q0 158 -41.5 240.5z" />
    <glyph glyph-name="one" unicode="1" horiz-adv-x="428" 
d="M163 109v438l-127 -15l267 208v-646l79 -94h-268z" />
    <glyph glyph-name="two" unicode="2" horiz-adv-x="615" 
d="M247 195q86 79 126.5 159.5t40.5 171.5q0 78 -31.5 119.5t-89.5 41.5t-89.5 -38.5t-33.5 -107.5q-1 -47 -16 -69t-47 -22q-31 0 -48 21t-17 61q0 59 35 106.5t97.5 74.5t141.5 27q116 0 184 -56.5t68 -153.5q0 -83 -57 -161t-194 -180l-65 -59h214l111 114v-244h-541z
" />
    <glyph glyph-name="three" unicode="3" horiz-adv-x="611" 
d="M233 404q87 0 132 37t45 109q0 62 -33.5 98t-92.5 36q-56 0 -86.5 -34t-30.5 -96q0 -39 -13 -56.5t-41 -17.5q-27 0 -40 16.5t-13 52.5q0 88 66 139.5t179 51.5q111 0 175.5 -49.5t64.5 -135.5q0 -67 -42 -112t-120 -62q98 -16 150 -62.5t52 -118.5q0 -61 -35.5 -109
t-98.5 -75t-143 -27q-78 0 -140 25.5t-97 71t-35 102.5q0 37 16.5 58t44.5 21q55 0 55 -79q0 -67 35.5 -105t98.5 -38q68 0 106.5 41.5t38.5 116.5q0 78 -46.5 111.5t-151.5 33.5v56z" />
    <glyph glyph-name="four" unicode="4" horiz-adv-x="640" 
d="M375 109v55h-374l394 561h120v-505h121v-56h-121v-70l79 -94h-268zM375 220v380l-268 -380h268z" />
    <glyph glyph-name="five" unicode="5" horiz-adv-x="606" 
d="M84 318v406h443v-125h-388v-225q36 40 88 61t114 21q71 0 125 -27.5t84 -78.5t30 -118q0 -73 -35.5 -127.5t-101 -84t-152.5 -29.5q-74 0 -132 21t-90.5 58.5t-32.5 84.5q0 32 15.5 50t43.5 18q53 0 56 -72q2 -54 33.5 -83t86.5 -29q74 0 117.5 48.5t43.5 130.5
q0 78 -40 122.5t-110 44.5q-44 0 -82.5 -17.5t-65.5 -49.5h-50z" />
    <glyph glyph-name="six" unicode="6" horiz-adv-x="648" 
d="M546.5 49.5q-70.5 -60.5 -196.5 -60.5q-154 0 -231.5 90t-77.5 266q0 124 38.5 213t111 135.5t173.5 46.5q65 0 115.5 -19t78.5 -53t28 -77q0 -61 -58 -61q-30 0 -46 16.5t-21 51.5q-6 43 -31 65t-67 22q-82 0 -127 -83.5t-46 -243.5q40 38 88 56.5t108 18.5
q109 0 170 -56t61 -158q0 -109 -70.5 -169.5zM190 304q6 -133 44.5 -196.5t113.5 -63.5q62 0 94 39.5t32 115.5q0 84 -37 127.5t-107 43.5q-86 0 -140 -66z" />
    <glyph glyph-name="seven" unicode="7" horiz-adv-x="550" 
d="M26 725h533l-70 -131q-158 -269 -239 -594h-173q56 174 148.5 326t211.5 268h-322l-89 -102v233z" />
    <glyph glyph-name="eight" unicode="8" horiz-adv-x="629" 
d="M101 437q-24 41 -24 94q0 62 30.5 109.5t87 73.5t131.5 26q69 0 121.5 -22t81 -63t28.5 -94q0 -51 -28 -92t-80 -67q77 -40 113 -90t36 -115q0 -98 -74.5 -153t-206.5 -55q-128 0 -202 51.5t-74 141.5q0 117 136 180q-52 34 -76 75zM444 490.5q18 34.5 18 71.5
q0 56 -40 90.5t-105 34.5q-59 0 -92.5 -28t-33.5 -78q0 -33 18 -56.5t61 -46t124 -50.5q32 28 50 62.5zM164 271q-21 -34 -21 -81q0 -71 44 -109t128 -38q74 0 114.5 29.5t40.5 83.5q0 35 -20.5 61t-71 52t-147.5 61q-46 -25 -67 -59z" />
    <glyph glyph-name="nine" unicode="9" horiz-adv-x="642" 
d="M563 173q-39 -89 -112.5 -136.5t-173.5 -47.5q-64 0 -114 18.5t-78.5 50.5t-28.5 73q0 30 15.5 47t42.5 17q26 0 43 -17t21 -48q7 -41 33 -63.5t69 -22.5q81 0 126 81t47 234q-28 -40 -70 -59.5t-102 -19.5q-76 0 -132.5 28t-87 78.5t-30.5 118.5q0 71 33.5 124t95.5 82
t144 29q145 0 221.5 -91t76.5 -264q0 -123 -39 -212zM208.5 388q37.5 -45 108.5 -45q92 0 136 75q-4 136 -41 201.5t-111 65.5q-63 0 -96.5 -42.5t-33.5 -123.5q0 -86 37.5 -131z" />
    <glyph glyph-name="zero.osf" horiz-adv-x="722" 
d="M79 417q40 63 113 97.5t169 34.5t169 -33.5t113 -96t40 -145.5q0 -84 -40 -148.5t-113 -100t-169 -35.5t-169 35t-113 98.5t-40 145.5q0 85 40 148zM488 107q47 61 47 167q0 103 -46.5 160.5t-127.5 57.5t-127.5 -59t-46.5 -164q0 -104 46.5 -163.5t127.5 -59.5
q80 0 127 61z" />
    <glyph glyph-name="one.osf" horiz-adv-x="386" 
d="M123 109v327l-79 94h268l-49 -109v-327l79 -94h-268z" />
    <glyph glyph-name="two.osf" horiz-adv-x="610" 
d="M34 0l133 94q99 70 151.5 116.5t74 84.5t21.5 81q0 56 -32.5 87.5t-89.5 31.5q-58 0 -88.5 -34t-31.5 -97q-1 -88 -59 -88q-30 0 -46.5 20.5t-16.5 58.5q0 56 34.5 100t96.5 69t143 25q110 0 173.5 -44.5t63.5 -121.5q0 -44 -24.5 -82.5t-79.5 -79t-150 -89.5l-22 -12
h291v-120h-542z" />
    <glyph glyph-name="three.osf" horiz-adv-x="627" 
d="M212 194q101 0 156 41.5t55 119.5q0 63 -35 100t-96 37q-98 0 -104 -98q-3 -35 -15.5 -50t-38.5 -15q-59 0 -59 67q0 72 61.5 112.5t168.5 40.5q119 0 186 -50t67 -136q0 -68 -44.5 -116t-122.5 -67q100 -17 156 -68.5t56 -128.5q0 -62 -36 -109t-102.5 -73t-155.5 -26
q-79 0 -141.5 21t-98 59t-35.5 87q0 32 17 51.5t47 19.5q55 0 57 -65q1 -56 38.5 -86.5t101.5 -30.5q76 0 118 42t42 114q0 81 -58.5 118t-184.5 37v52z" />
    <glyph glyph-name="four.osf" horiz-adv-x="653" 
d="M388 -91v91h-389l407 530h123v-475h126v-55h-126v-106l79 -94h-269zM388 55v363l-276 -363h276z" />
    <glyph glyph-name="five.osf" horiz-adv-x="611" 
d="M92 85v445h440v-116h-385v-277q79 62 199 62q113 0 177.5 -55t64.5 -149q0 -103 -77 -161.5t-210 -58.5q-77 0 -138 20t-95 55.5t-34 80.5q0 29 16 46t45 17q51 0 54 -59q2 -51 38 -80.5t97 -29.5q70 0 110.5 41.5t40.5 114.5q0 72 -40 110.5t-115 38.5q-42 0 -78.5 -12
t-59.5 -33h-50z" />
    <glyph glyph-name="six.osf" horiz-adv-x="644" 
d="M545.5 49.5q-70.5 -60.5 -196.5 -60.5q-154 0 -231.5 90t-77.5 266q0 124 38.5 213t111 135.5t173.5 46.5q65 0 115.5 -19t78.5 -53t28 -77q0 -61 -58 -61q-30 0 -46 16.5t-21 51.5q-6 43 -31 65t-67 22q-82 0 -127 -83.5t-46 -243.5q40 38 88 56.5t108 18.5
q109 0 170 -56t61 -158q0 -109 -70.5 -169.5zM189 304q6 -133 44.5 -196.5t113.5 -63.5q62 0 94 39.5t32 115.5q0 84 -37 127.5t-107 43.5q-86 0 -140 -66z" />
    <glyph glyph-name="seven.osf" horiz-adv-x="546" 
d="M24 530h533l-70 -130q-153 -258 -239 -600h-173q59 179 150.5 331.5t208.5 267.5h-322l-88 -102v233z" />
    <glyph glyph-name="eight.osf" horiz-adv-x="624" 
d="M100 437q-24 41 -24 94q0 62 30.5 109.5t87 73.5t131.5 26q69 0 121.5 -22t81 -63t28.5 -94q0 -51 -28 -92t-80 -67q77 -40 113 -90t36 -115q0 -98 -74.5 -153t-206.5 -55q-128 0 -202 51.5t-74 141.5q0 117 136 180q-52 34 -76 75zM443 490.5q18 34.5 18 71.5
q0 56 -40 90.5t-105 34.5q-59 0 -92.5 -28t-33.5 -78q0 -33 18 -56.5t61 -46t124 -50.5q32 28 50 62.5zM163 271q-21 -34 -21 -81q0 -71 44 -109t128 -38q74 0 114.5 29.5t40.5 83.5q0 35 -20.5 61t-71 52t-147.5 61q-46 -25 -67 -59z" />
    <glyph glyph-name="nine.osf" horiz-adv-x="638" 
d="M561 -33.5q-39 -92.5 -112 -142t-173 -49.5q-63 0 -114 18t-79.5 51t-28.5 74q0 30 15.5 47t42.5 17q26 0 43 -16.5t21 -48.5q7 -41 33 -64t69 -23q81 0 125.5 82.5t47.5 239.5q-28 -40 -70 -59.5t-102 -19.5q-75 0 -131.5 29t-87.5 82t-31 123q0 73 33.5 127.5t95 84.5
t143.5 30q147 0 223 -92.5t76 -271.5q0 -126 -39 -218.5zM207 183q38 -48 110 -48q90 0 134 75q-4 147 -41 215t-111 68q-63 0 -96.5 -44t-33.5 -127q0 -91 38 -139z" />
    <glyph glyph-name="zero.osf.ss04" horiz-adv-x="691" 
d="M77.5 414q38.5 64 108 99.5t160.5 35.5t160 -34.5t107.5 -97.5t38.5 -145q0 -83 -38.5 -147t-108 -99.5t-159.5 -35.5q-91 0 -160.5 35t-108 97.5t-38.5 144.5q0 83 38.5 147zM478.5 146q56.5 18 87 50.5t30.5 75.5q0 63 -67 100.5t-183 37.5q-117 0 -184 -38.5
t-67 -104.5q0 -41 31 -72.5t87.5 -49t132.5 -17.5t132.5 18z" />
    <glyph glyph-name="zero.osf.ss04.zero" horiz-adv-x="691" 
d="M506 514.5q69 -34.5 107.5 -97.5t38.5 -145q0 -83 -38.5 -147t-108 -99.5t-159.5 -35.5q-91 0 -160.5 35t-108 97.5t-38.5 144.5q0 83 38.5 147t108 99.5t160.5 35.5t160 -34.5zM126 194q31 -32 87 -49l202 261q-28 4 -69 4q-117 0 -184 -38.5t-67 -104.5q0 -41 31 -73z
M478.5 146q56.5 18 87 50.5t30.5 75.5q0 42 -30.5 73.5t-87.5 48.5l-203 -262q44 -4 71 -4q76 0 132.5 18z" />
    <glyph glyph-name="zero.osf.zero" horiz-adv-x="721" 
d="M193 25q-73 35 -113.5 99.5t-40.5 149.5q0 82 42.5 144.5t116 96.5t163.5 34q94 0 167 -33t114 -94t41 -143q0 -85 -40.5 -151t-113.5 -102t-168 -36t-168 35zM227 140l242 313q-45 39 -108 39q-49 0 -88.5 -26.5t-62.5 -76t-23 -115.5q0 -81 40 -134zM500 399l-242 -313
q40 -40 103 -40q80 0 127 62.5t47 170.5q0 72 -35 120z" />
    <glyph glyph-name="zero.ss04" horiz-adv-x="678" 
d="M118.5 641q77.5 99 219.5 99q143 0 221 -98.5t78 -280.5q0 -178 -78 -275t-221 -97q-142 0 -219.5 96.5t-77.5 274.5q0 182 77.5 281zM518.5 541.5q-63.5 63.5 -180.5 63.5q-116 0 -179 -63.5t-63 -181.5q0 -117 63 -180.5t179 -63.5t180 63.5t64 180.5
q0 118 -63.5 181.5z" />
    <glyph glyph-name="zero.ss04.zero" horiz-adv-x="678" 
d="M118.5 85.5q-77.5 96.5 -77.5 274.5q0 182 77.5 281t219.5 99q143 0 221 -98.5t78 -280.5q0 -178 -78 -275t-221 -97q-142 0 -219.5 96.5zM462 569q-49 36 -124 36q-116 0 -179 -63.5t-63 -181.5q0 -119 71 -182zM518 179.5q64 63.5 64 180.5q0 116 -70 180l-294 -391
q49 -33 120 -33q116 0 180 63.5z" />
    <glyph glyph-name="zero.tf" 
d="M137 644q78 96 226 96q150 0 228.5 -95.5t78.5 -279.5q0 -185 -78 -280.5t-229 -95.5q-148 0 -226 96t-78 280q0 183 78 279zM477.5 603.5q-39.5 81.5 -114.5 81.5q-74 0 -112.5 -81.5t-38.5 -238.5q0 -321 151 -321q76 0 115 81.5t39 239.5q0 157 -39.5 238.5z" />
    <glyph glyph-name="one.tf" 
d="M628 0h-494v56h177v495l-162 56l302 133v-684h177v-56z" />
    <glyph glyph-name="two.tf" 
d="M76 0l221 195q95 84 136.5 159.5t41.5 165.5q0 82 -34 124.5t-98 42.5q-62 0 -97 -39.5t-37 -109.5q-1 -45 -16.5 -66.5t-45.5 -21.5q-31 0 -48 21.5t-17 60.5q0 60 36.5 107.5t101.5 74t146 26.5q79 0 138.5 -25.5t91.5 -73.5t32 -112q0 -85 -60 -164t-197 -174l-72 -61
h227l111 114v-244h-561z" />
    <glyph glyph-name="three.tf" 
d="M288 404q93 0 142 36.5t49 107.5q0 63 -37 99.5t-104 36.5q-64 0 -97.5 -34t-33.5 -97q0 -39 -13 -56t-40 -17q-28 0 -41 17t-13 53q0 88 70 139t189 51q78 0 135.5 -23t88.5 -64.5t31 -96.5q0 -65 -41 -109.5t-117 -63.5q96 -17 147 -63.5t51 -118.5q0 -62 -36 -110
t-102 -75t-151 -27q-83 0 -149.5 26.5t-103.5 73t-37 104.5q0 37 16.5 58t45.5 21q54 0 54 -76q0 -71 40.5 -111t111.5 -40q74 0 116 42.5t42 117.5q0 77 -50 110t-163 33v56z" />
    <glyph glyph-name="four.tf" 
d="M406 109v55h-374l394 561h120v-505h137v-56h-137v-70l79 -94h-268zM406 220v379l-268 -379h268z" />
    <glyph glyph-name="five.tf" 
d="M127 318v406h468v-125h-413v-226q37 40 91 61.5t120 21.5q75 0 133 -27.5t90 -78t32 -117.5q0 -73 -37.5 -128t-106.5 -85.5t-161 -30.5q-75 0 -135.5 20.5t-94.5 58t-34 85.5q0 31 15.5 49t42.5 18q52 0 56 -70q3 -55 36.5 -83t93.5 -28q81 0 129 49.5t48 131.5
q0 79 -43.5 122t-120.5 43q-49 0 -90.5 -17.5t-68.5 -49.5h-50z" />
    <glyph glyph-name="six.tf" 
d="M594 50q-72 -61 -202 -61q-155 0 -233.5 90t-78.5 265q0 124 38.5 213t112 136t175.5 47q66 0 118 -18.5t81.5 -52.5t29.5 -78q0 -61 -59 -61q-30 0 -45.5 15.5t-20.5 49.5q-7 45 -33 67.5t-70 22.5q-85 0 -131 -82t-48 -244q76 74 200 74q113 0 175.5 -55.5t62.5 -157.5
q0 -109 -72 -170zM229 305q7 -135 46.5 -198t116.5 -63q64 0 97 39.5t33 115.5q0 84 -38.5 127.5t-111.5 43.5q-90 0 -143 -65z" />
    <glyph glyph-name="seven.tf" 
d="M108 725h573l-64 -88q-101 -127 -147.5 -278.5t-47.5 -358.5h-173q9 378 290 594h-343l-88 -102v233z" />
    <glyph glyph-name="eight.tf" 
d="M214.5 12.5q-65.5 23.5 -101 67.5t-35.5 103t36 103.5t110 77.5q-58 35 -84 75t-26 92q0 62 33 109.5t93 73.5t139 26q72 0 127 -22t85.5 -62t30.5 -91q0 -52 -30.5 -93.5t-89.5 -69.5q86 -42 124 -90.5t38 -114.5q0 -98 -78 -153t-216 -55q-90 0 -155.5 23.5zM506 492.5
q21 35.5 21 71.5q0 54 -44 88.5t-114 34.5q-64 0 -101.5 -28t-37.5 -77q0 -32 20 -57t66.5 -47.5t130.5 -50.5q38 30 59 65.5zM230 82.5q50 -39.5 139 -39.5q79 0 123 30t44 85q0 34 -21 58.5t-75 51t-160 64.5q-53 -27 -76.5 -60t-23.5 -79q0 -71 50 -110.5z" />
    <glyph glyph-name="nine.tf" 
d="M610.5 173q-39.5 -89 -113.5 -136.5t-176 -47.5q-65 0 -116.5 18t-80.5 50.5t-29 74.5q0 29 15 46t42 17q26 0 43.5 -17t21.5 -49q6 -41 33.5 -63t71.5 -22q85 0 131.5 81.5t47.5 233.5q-28 -40 -72 -59.5t-106 -19.5q-76 0 -133.5 27.5t-89 78.5t-31.5 119
q0 70 34 123.5t97 82.5t147 29q149 0 226 -91t77 -266q0 -121 -39.5 -210zM249 388q39 -45 112 -45q96 0 139 76q-4 137 -42 201.5t-114 64.5q-65 0 -99.5 -42.5t-34.5 -123.5q0 -86 39 -131z" />
    <glyph glyph-name="zero.tf.ss04" 
d="M143 349q0 54 22 107.5t66 101.5q78 81 149 81q75 0 146 -92q61 -81 61 -170q0 -109 -90 -205q-78 -84 -149 -84q-75 0 -146 94q-59 77 -59 167zM542 304q0 60 -64 141q-40 49 -81.5 74.5t-81.5 25.5q-41 0 -77 -27q-52 -40 -52 -94q0 -62 64 -139q40 -50 81 -76t80 -26
q42 0 79 28q52 37 52 93z" />
    <glyph glyph-name="zero.tf.ss04.zero" 
d="M585 642.5q75 -97.5 75 -277.5t-74.5 -278t-222.5 -98q-146 0 -220 98t-74 278q0 175 75.5 275t218.5 100q147 0 222 -97.5zM196 179l-1 8l292 388q-54 23 -124 23q-115 0 -176.5 -59.5t-61.5 -173.5q0 -129 71 -186zM541.5 190.5q62.5 59.5 62.5 174.5q0 121 -73 182
l1 -5l-292 -389q50 -22 123 -22q116 0 178.5 59.5z" />
    <glyph glyph-name="zero.tf.zero" 
d="M137 85.5q-78 96.5 -78 279.5t78 279t226 96q150 0 228.5 -95.5t78.5 -279.5t-78 -280t-229 -96q-148 0 -226 96.5zM230 230l253 337q-36 118 -120 118q-74 0 -112.5 -81t-38.5 -239q0 -81 18 -135zM478 125.5q39 81.5 39 239.5q0 75 -20 127l-253 -337q36 -111 119 -111
q76 0 115 81.5z" />
    <glyph glyph-name="zero.tosf" 
d="M90.5 418.5q39.5 62.5 110.5 96.5t165 34t164.5 -33.5t109.5 -94.5t39 -142q0 -86 -39 -151.5t-109.5 -101.5t-164.5 -36t-165 35.5t-110.5 99.5t-39.5 149q0 82 39.5 144.5zM487 109q45 63 45 170q0 97 -45 155t-121 58t-121.5 -59t-45.5 -159q0 -105 45.5 -166.5
t121.5 -61.5t121 63z" />
    <glyph glyph-name="one.tosf" 
d="M629 0h-493v56h175v304l-162 56l302 132v-492h178v-56z" />
    <glyph glyph-name="two.tosf" 
d="M96 0l133 94q99 70 151.5 116.5t74 84.5t21.5 81q0 56 -32.5 87.5t-89.5 31.5q-58 0 -88.5 -34t-31.5 -97q-1 -88 -59 -88q-30 0 -46.5 20.5t-16.5 58.5q0 56 34.5 100t96.5 69t143 25q110 0 173.5 -44.5t63.5 -121.5q0 -44 -24.5 -82.5t-79.5 -79t-150 -89.5l-22 -12
h291v-120h-542z" />
    <glyph glyph-name="three.tosf" 
d="M270 194q101 0 156 41.5t55 119.5q0 63 -35 100t-96 37q-98 0 -104 -98q-3 -35 -15.5 -50t-38.5 -15q-59 0 -59 67q0 72 61.5 112.5t168.5 40.5q119 0 186 -50t67 -136q0 -68 -44.5 -116t-122.5 -67q100 -17 156 -68.5t56 -128.5q0 -62 -36 -109t-102.5 -73t-155.5 -26
q-79 0 -141.5 21t-98 59t-35.5 87q0 32 17 51.5t47 19.5q55 0 57 -65q1 -56 38.5 -86.5t101.5 -30.5q76 0 118 42t42 114q0 81 -58.5 118t-184.5 37v52z" />
    <glyph glyph-name="four.tosf" 
d="M418 -91v91h-389l407 530h123v-475h126v-55h-126v-106l79 -94h-269zM418 55v363l-276 -363h276z" />
    <glyph glyph-name="five.tosf" 
d="M166 85v445h440v-116h-385v-277q79 62 199 62q113 0 177.5 -55t64.5 -149q0 -103 -77 -161.5t-210 -58.5q-77 0 -138 20t-95 55.5t-34 80.5q0 29 16 46t45 17q51 0 54 -59q2 -51 38 -80.5t97 -29.5q70 0 110.5 41.5t40.5 114.5q0 72 -40 110.5t-115 38.5q-42 0 -78.5 -12
t-59.5 -33h-50z" />
    <glyph glyph-name="six.tosf" 
d="M591.5 49.5q-70.5 -60.5 -196.5 -60.5q-154 0 -231.5 90t-77.5 266q0 124 38.5 213t111 135.5t173.5 46.5q65 0 115.5 -19t78.5 -53t28 -77q0 -61 -58 -61q-30 0 -46 16.5t-21 51.5q-6 43 -31 65t-67 22q-82 0 -127 -83.5t-46 -243.5q40 38 88 56.5t108 18.5
q109 0 170 -56t61 -158q0 -109 -70.5 -169.5zM235 304q6 -133 44.5 -196.5t113.5 -63.5q62 0 94 39.5t32 115.5q0 84 -37 127.5t-107 43.5q-86 0 -140 -66z" />
    <glyph glyph-name="seven.tosf" 
d="M110 530h544l-75 -131q-154 -252 -239 -599h-173q58 175 150.5 328.5t210.5 270.5h-329l-89 -102v233z" />
    <glyph glyph-name="eight.tosf" 
d="M153 437q-24 41 -24 94q0 62 30.5 109.5t87 73.5t131.5 26q69 0 121.5 -22t81 -63t28.5 -94q0 -51 -28 -92t-80 -67q77 -40 113 -90t36 -115q0 -98 -74.5 -153t-206.5 -55q-128 0 -202 51.5t-74 141.5q0 117 136 180q-52 34 -76 75zM496 490.5q18 34.5 18 71.5
q0 56 -40 90.5t-105 34.5q-59 0 -92.5 -28t-33.5 -78q0 -33 18 -56.5t61 -46t124 -50.5q32 28 50 62.5zM216 271q-21 -34 -21 -81q0 -71 44 -109t128 -38q74 0 114.5 29.5t40.5 83.5q0 35 -20.5 61t-71 52t-147.5 61q-46 -25 -67 -59z" />
    <glyph glyph-name="nine.tosf" 
d="M609 -33.5q-39 -92.5 -112 -142t-173 -49.5q-63 0 -114 18t-79.5 51t-28.5 74q0 30 15.5 47t42.5 17q26 0 43 -16.5t21 -48.5q7 -41 33 -64t69 -23q81 0 125.5 82.5t47.5 239.5q-28 -40 -70 -59.5t-102 -19.5q-75 0 -131.5 29t-87.5 82t-31 123q0 73 33.5 127.5t95 84.5
t143.5 30q147 0 223 -92.5t76 -271.5q0 -126 -39 -218.5zM255 183q38 -48 110 -48q90 0 134 75q-4 147 -41 215t-111 68q-63 0 -96.5 -44t-33.5 -127q0 -91 38 -139z" />
    <glyph glyph-name="zero.tosf.ss04" horiz-adv-x="715" 
d="M89.5 414q38.5 64 108 99.5t160.5 35.5t160 -34.5t107.5 -97.5t38.5 -145q0 -83 -38.5 -147t-108 -99.5t-159.5 -35.5q-91 0 -160.5 35t-108 97.5t-38.5 144.5q0 83 38.5 147zM490.5 146q56.5 18 87 50.5t30.5 75.5q0 63 -67 100.5t-183 37.5q-117 0 -184 -38.5
t-67 -104.5q0 -41 31 -72.5t87.5 -49t132.5 -17.5t132.5 18z" />
    <glyph glyph-name="zero.tosf.ss04.zero" horiz-adv-x="715" 
d="M518 514.5q69 -34.5 107.5 -97.5t38.5 -145q0 -83 -38.5 -147t-108 -99.5t-159.5 -35.5q-91 0 -160.5 35t-108 97.5t-38.5 144.5q0 83 38.5 147t108 99.5t160.5 35.5t160 -34.5zM138 194q31 -32 87 -49l202 261q-28 4 -69 4q-117 0 -184 -38.5t-67 -104.5q0 -41 31 -73z
M490.5 146q56.5 18 87 50.5t30.5 75.5q0 42 -30.5 73.5t-87.5 48.5l-203 -262q44 -4 71 -4q76 0 132.5 18z" />
    <glyph glyph-name="zero.tosf.zero" 
d="M202 26q-72 35 -111.5 98.5t-39.5 146.5t41.5 146t114 97.5t161.5 34.5q91 0 162 -33.5t110.5 -95.5t39.5 -146t-39.5 -148t-110 -99.5t-162.5 -35.5q-94 0 -166 35zM209.5 204.5q10.5 -31.5 29.5 -55.5l233 301q-43 43 -104 43q-47 0 -85.5 -27t-61 -77.5t-22.5 -117.5
q0 -35 10.5 -66.5zM498 392l-232 -300q20 -22 46.5 -33.5t55.5 -11.5q49 0 86 28.5t57.5 81t20.5 122.5q0 66 -34 113z" />
    <glyph glyph-name="zero.zero" horiz-adv-x="711" 
d="M121.5 83q-80.5 94 -80.5 274q0 187 80 285t234 98t235 -97.5t81 -284.5q0 -181 -80.5 -275t-235.5 -94q-153 0 -233.5 94zM480 581q-39 104 -125 104q-79 0 -120 -82t-41 -239q0 -83 18 -139zM354 44q80 0 121.5 80.5t41.5 235.5q0 89 -20 149l-269 -358
q37 -107 126 -107z" />
    <glyph glyph-name="uni2080" unicode="&#x2080;" horiz-adv-x="555" 
d="M104.5 -22.5q-63.5 57.5 -63.5 157.5t63.5 158.5t172.5 58.5q111 0 174 -57t63 -157q0 -101 -64 -159.5t-173 -58.5t-172.5 57.5zM354 18.5q27 42.5 27 119.5q0 76 -27 117t-77 41q-49 0 -76 -42t-27 -119q0 -76 27 -117.5t76 -41.5q50 0 77 42.5z" />
    <glyph glyph-name="uni2081" unicode="&#x2081;" horiz-adv-x="383" 
d="M94 -70l39 87v179l-97 37l237 117v-343l64 -77h-243z" />
    <glyph glyph-name="uni2082" unicode="&#x2082;" horiz-adv-x="454" 
d="M36 -69l113 97q72 65 100 107.5t28 87.5q0 36 -17 55.5t-48 19.5q-32 0 -48.5 -19t-16.5 -55q0 -66 -50 -66q-24 0 -37.5 16t-13.5 45q0 60 50 96t135 36q82 0 130 -35t48 -94q0 -47 -33.5 -85t-109.5 -80l-38 -22h191v-104h-383z" />
    <glyph glyph-name="uni2083" unicode="&#x2083;" horiz-adv-x="461" 
d="M170 161q117 0 117 74q0 29 -17.5 44.5t-49.5 15.5q-60 0 -61 -55q-1 -25 -13 -36.5t-37 -11.5q-52 0 -52 48q0 51 46.5 81t127.5 30q78 0 124 -28.5t46 -76.5q0 -37 -26 -62.5t-72 -35.5q63 -9 97 -36.5t34 -70.5q0 -55 -56 -88.5t-151 -33.5q-86 0 -138.5 29.5
t-52.5 78.5q0 24 14 37.5t39 13.5q22 0 33.5 -11t16.5 -34q5 -31 22 -44.5t51 -13.5q43 0 66.5 19t23.5 52q0 37 -31.5 53.5t-100.5 16.5v45z" />
    <glyph glyph-name="uni2084" unicode="&#x2084;" horiz-adv-x="450" 
d="M177 -69l40 87v18h-216l232 303h124v-248h92v-55h-92v-28l64 -77h-244zM217 91v134l-104 -134h104z" />
    <glyph glyph-name="uni2085" unicode="&#x2085;" horiz-adv-x="449" 
d="M387 246h-258v-86q24 13 58 20.5t71 7.5q75 0 120.5 -32.5t45.5 -88.5q0 -61 -55 -99t-153 -38q-82 0 -131 28.5t-49 75.5q0 25 14 38.5t42 13.5q54 0 58 -53q6 -53 62 -53q34 0 54 18t20 49q0 38 -28.5 61.5t-76.5 23.5q-31 0 -49 -9h-58v223h313v-100z" />
    <glyph glyph-name="uni2086" unicode="&#x2086;" horiz-adv-x="502" 
d="M235 168q35 9 73 9q74 0 119 -34t45 -92q0 -61 -53 -96t-147 -35q-114 0 -172.5 54t-58.5 157q0 105 59.5 162.5t170.5 57.5q79 0 128.5 -27.5t49.5 -72.5q0 -22 -13 -33.5t-37 -11.5q-43 0 -60 42q-8 23 -26 36t-45 13q-45 0 -69 -39t-25 -115q26 16 61 25zM202 4
q23 -29 66 -29q36 0 56 18.5t20 50.5q0 36 -22 55.5t-62 19.5q-48 0 -85 -25q4 -61 27 -90z" />
    <glyph glyph-name="uni2087" unicode="&#x2087;" horiz-adv-x="381" 
d="M26 333h364q-139 -198 -188 -403h-152q35 81 100 164.5t127 124.5h-251v114z" />
    <glyph glyph-name="uni2088" unicode="&#x2088;" horiz-adv-x="474" 
d="M91 -50q-50 30 -50 85q0 63 69 91q-46 35 -46 92q0 62 48.5 98t130.5 36q77 0 123 -30.5t46 -80.5q0 -26 -12.5 -44.5t-40.5 -34.5q43 -19 63.5 -45t20.5 -63q0 -63 -55.5 -98.5t-153.5 -35.5q-93 0 -143 30zM321 230q0 31 -22 49t-61 18q-32 0 -49.5 -12t-17.5 -35
q0 -27 29 -42t98 -26q23 17 23 48zM161.5 -5q28.5 -20 78.5 -20q41 0 63.5 13t22.5 36q0 17 -13.5 28.5t-47.5 21.5t-101 23q-31 -15 -31 -46q0 -36 28.5 -56z" />
    <glyph glyph-name="uni2089" unicode="&#x2089;" horiz-adv-x="505" 
d="M400.5 -22q-63.5 -58 -181.5 -58q-78 0 -126 25.5t-48 67.5q0 21 13 32.5t37 11.5q20 0 34 -9t27 -30q14 -24 30.5 -34t41.5 -10q97 0 103 143q-40 -36 -122 -36q-81 0 -129.5 36t-48.5 97q0 64 54 100.5t150 36.5q113 0 171 -53t58 -154q0 -108 -63.5 -166zM182 159.5
q23 -21.5 67 -21.5q50 0 82 23q-3 70 -26 103t-67 33q-37 0 -58 -20.5t-21 -56.5q0 -39 23 -60.5z" />
    <glyph glyph-name="zero.dnom" horiz-adv-x="555" 
d="M104.5 46.5q-63.5 57.5 -63.5 157.5t63.5 158.5t172.5 58.5q111 0 174 -57t63 -157q0 -101 -64 -159.5t-173 -58.5t-172.5 57.5zM354 87.5q27 42.5 27 119.5q0 76 -27 117t-77 41q-49 0 -76 -42t-27 -119q0 -76 27 -117.5t76 -41.5q50 0 77 42.5z" />
    <glyph glyph-name="one.dnom" horiz-adv-x="383" 
d="M94 0l39 87v179l-97 37l237 117v-343l64 -77h-243z" />
    <glyph glyph-name="two.dnom" horiz-adv-x="454" 
d="M36 0l113 97q72 65 100 107.5t28 87.5q0 36 -17 55.5t-48 19.5q-32 0 -48.5 -19t-16.5 -55q0 -66 -50 -66q-24 0 -37.5 16t-13.5 45q0 60 50 96t135 36q82 0 130 -35t48 -94q0 -47 -33.5 -85t-109.5 -80l-38 -22h191v-104h-383z" />
    <glyph glyph-name="three.dnom" horiz-adv-x="461" 
d="M170 231q117 0 117 74q0 29 -17.5 44.5t-49.5 15.5q-60 0 -61 -55q-1 -25 -13 -36.5t-37 -11.5q-52 0 -52 48q0 51 46.5 81t127.5 30q78 0 124 -28.5t46 -76.5q0 -37 -26 -62.5t-72 -35.5q63 -9 97 -36.5t34 -70.5q0 -55 -56 -88.5t-151 -33.5q-86 0 -138.5 29.5
t-52.5 78.5q0 24 14 37.5t39 13.5q22 0 33.5 -11t16.5 -34q5 -31 22 -44.5t51 -13.5q43 0 66.5 19t23.5 52q0 37 -31.5 53.5t-100.5 16.5v45z" />
    <glyph glyph-name="four.dnom" horiz-adv-x="450" 
d="M177 0l40 87v18h-216l232 303h124v-248h92v-55h-92v-28l64 -77h-244zM217 160v134l-104 -134h104z" />
    <glyph glyph-name="five.dnom" horiz-adv-x="449" 
d="M387 305h-258v-86q24 13 58 20.5t71 7.5q75 0 120.5 -32.5t45.5 -88.5q0 -61 -55 -99t-153 -38q-82 0 -131 28.5t-49 75.5q0 25 14 38.5t42 13.5q54 0 58 -53q6 -53 62 -53q34 0 54 18t20 49q0 38 -28.5 61.5t-76.5 23.5q-31 0 -49 -9h-58v223h313v-100z" />
    <glyph glyph-name="six.dnom" horiz-adv-x="502" 
d="M235 237q35 9 73 9q74 0 119 -34t45 -92q0 -61 -53 -96t-147 -35q-114 0 -172.5 54t-58.5 157q0 105 59.5 162.5t170.5 57.5q79 0 128.5 -27.5t49.5 -72.5q0 -22 -13 -33.5t-37 -11.5q-43 0 -60 42q-8 23 -26 36t-45 13q-45 0 -69 -39t-25 -115q26 16 61 25zM202 73
q23 -29 66 -29q36 0 56 18.5t20 50.5q0 36 -22 55.5t-62 19.5q-48 0 -85 -25q4 -61 27 -90z" />
    <glyph glyph-name="seven.dnom" horiz-adv-x="381" 
d="M26 402h364q-139 -198 -188 -403h-152q35 81 100 164.5t127 124.5h-251v114z" />
    <glyph glyph-name="eight.dnom" horiz-adv-x="474" 
d="M91 19q-50 30 -50 85q0 63 69 91q-46 35 -46 92q0 62 48.5 98t130.5 36q77 0 123 -30.5t46 -80.5q0 -26 -12.5 -44.5t-40.5 -34.5q43 -19 63.5 -45t20.5 -63q0 -63 -55.5 -98.5t-153.5 -35.5q-93 0 -143 30zM321 299q0 31 -22 49t-61 18q-32 0 -49.5 -12t-17.5 -35
q0 -27 29 -42t98 -26q23 17 23 48zM161.5 64q28.5 -20 78.5 -20q41 0 63.5 13t22.5 36q0 17 -13.5 28.5t-47.5 21.5t-101 23q-31 -15 -31 -46q0 -36 28.5 -56z" />
    <glyph glyph-name="nine.dnom" horiz-adv-x="505" 
d="M400.5 47q-63.5 -58 -181.5 -58q-78 0 -126 25.5t-48 67.5q0 21 13 32.5t37 11.5q20 0 34 -9t27 -30q14 -24 30.5 -34t41.5 -10q97 0 103 143q-40 -36 -122 -36q-81 0 -129.5 36t-48.5 97q0 64 54 100.5t150 36.5q113 0 171 -53t58 -154q0 -108 -63.5 -166zM182 228.5
q23 -21.5 67 -21.5q50 0 82 23q-3 70 -26 103t-67 33q-37 0 -58 -20.5t-21 -56.5q0 -39 23 -60.5z" />
    <glyph glyph-name="zero.numr" horiz-adv-x="555" 
d="M104.5 365.5q-63.5 57.5 -63.5 157.5t63.5 158.5t172.5 58.5q111 0 174 -57t63 -157q0 -101 -64 -159.5t-173 -58.5t-172.5 57.5zM354 406.5q27 42.5 27 119.5q0 76 -27 117t-77 41q-49 0 -76 -42t-27 -119q0 -76 27 -117.5t76 -41.5q50 0 77 42.5z" />
    <glyph glyph-name="one.numr" horiz-adv-x="383" 
d="M94 320l39 87v180l-97 37l237 116v-343l64 -77h-243z" />
    <glyph glyph-name="two.numr" horiz-adv-x="454" 
d="M36 320l113 97q72 65 100 107.5t28 87.5q0 36 -17 55.5t-48 19.5q-32 0 -48.5 -19t-16.5 -55q0 -66 -50 -66q-24 0 -37.5 16t-13.5 45q0 60 50 96t135 36q82 0 130 -35t48 -94q0 -47 -33.5 -85t-109.5 -80l-38 -22h191v-104h-383z" />
    <glyph glyph-name="three.numr" horiz-adv-x="461" 
d="M170 550q117 0 117 74q0 29 -17.5 44.5t-49.5 15.5q-60 0 -61 -55q-1 -25 -13 -36.5t-37 -11.5q-52 0 -52 48q0 51 46.5 81t127.5 30q78 0 124 -28.5t46 -76.5q0 -37 -26 -62.5t-72 -35.5q63 -9 97 -36.5t34 -70.5q0 -55 -56 -88.5t-151 -33.5q-86 0 -138.5 29.5
t-52.5 78.5q0 24 14 37.5t39 13.5q22 0 33.5 -11t16.5 -34q5 -31 22 -44.5t51 -13.5q43 0 66.5 19t23.5 52q0 37 -31.5 53.5t-100.5 16.5v45z" />
    <glyph glyph-name="four.numr" horiz-adv-x="450" 
d="M177 317l40 87v18h-216l232 303h124v-248h92v-55h-92v-28l64 -77h-244zM217 477v134l-104 -134h104z" />
    <glyph glyph-name="five.numr" horiz-adv-x="449" 
d="M387 625h-258v-86q24 13 58 20.5t71 7.5q75 0 120.5 -32.5t45.5 -88.5q0 -61 -55 -99t-153 -38q-82 0 -131 28.5t-49 75.5q0 25 14 38.5t42 13.5q54 0 58 -53q6 -53 62 -53q34 0 54 18t20 49q0 38 -28.5 61.5t-76.5 23.5q-31 0 -49 -9h-58v223h313v-100z" />
    <glyph glyph-name="six.numr" horiz-adv-x="502" 
d="M235 557q35 9 73 9q74 0 119 -34t45 -92q0 -61 -53 -96t-147 -35q-114 0 -172.5 54t-58.5 157q0 105 59.5 162.5t170.5 57.5q79 0 128.5 -27.5t49.5 -72.5q0 -22 -13 -33.5t-37 -11.5q-43 0 -60 42q-8 23 -26 36t-45 13q-45 0 -69 -39t-25 -115q26 16 61 25zM202 393
q23 -29 66 -29q36 0 56 18.5t20 50.5q0 36 -22 55.5t-62 19.5q-48 0 -85 -25q4 -61 27 -90z" />
    <glyph glyph-name="seven.numr" horiz-adv-x="381" 
d="M26 725h364q-139 -198 -188 -403h-152q35 81 100 164.5t127 124.5h-251v114z" />
    <glyph glyph-name="eight.numr" horiz-adv-x="474" 
d="M91 338q-50 30 -50 85q0 63 69 91q-46 35 -46 92q0 62 48.5 98t130.5 36q77 0 123 -30.5t46 -80.5q0 -26 -12.5 -44.5t-40.5 -34.5q43 -19 63.5 -45t20.5 -63q0 -63 -55.5 -98.5t-153.5 -35.5q-93 0 -143 30zM321 618q0 31 -22 49t-61 18q-32 0 -49.5 -12t-17.5 -35
q0 -27 29 -42t98 -26q23 17 23 48zM161.5 383q28.5 -20 78.5 -20q41 0 63.5 13t22.5 36q0 17 -13.5 28.5t-47.5 21.5t-101 23q-31 -15 -31 -46q0 -36 28.5 -56z" />
    <glyph glyph-name="nine.numr" horiz-adv-x="505" 
d="M400.5 367q-63.5 -58 -181.5 -58q-78 0 -126 25.5t-48 67.5q0 21 13 32.5t37 11.5q20 0 34 -9t27 -30q14 -24 30.5 -34t41.5 -10q97 0 103 143q-40 -36 -122 -36q-81 0 -129.5 36t-48.5 97q0 64 54 100.5t150 36.5q113 0 171 -53t58 -154q0 -108 -63.5 -166zM182 548.5
q23 -21.5 67 -21.5q50 0 82 23q-3 70 -26 103t-67 33q-37 0 -58 -20.5t-21 -56.5q0 -39 23 -60.5z" />
    <glyph glyph-name="uni2070" unicode="&#x2070;" horiz-adv-x="555" 
d="M104.5 420.5q-63.5 57.5 -63.5 157.5t63.5 158.5t172.5 58.5q111 0 174 -57t63 -157q0 -101 -64 -159.5t-173 -58.5t-172.5 57.5zM354 461.5q27 42.5 27 119.5q0 76 -27 117t-77 41q-49 0 -76 -42t-27 -119q0 -76 27 -117.5t76 -41.5q50 0 77 42.5z" />
    <glyph glyph-name="uni00B9" unicode="&#xb9;" horiz-adv-x="383" 
d="M94 375l39 87v180l-97 37l237 116v-343l64 -77h-243z" />
    <glyph glyph-name="uni00B2" unicode="&#xb2;" horiz-adv-x="454" 
d="M36 375l113 97q72 65 100 107.5t28 87.5q0 36 -17 55.5t-48 19.5q-32 0 -48.5 -19t-16.5 -55q0 -66 -50 -66q-24 0 -37.5 16t-13.5 45q0 60 50 96t135 36q82 0 130 -35t48 -94q0 -47 -33.5 -85t-109.5 -80l-38 -22h191v-104h-383z" />
    <glyph glyph-name="uni00B3" unicode="&#xb3;" horiz-adv-x="461" 
d="M170 605q117 0 117 74q0 29 -17.5 44.5t-49.5 15.5q-60 0 -61 -55q-1 -25 -13 -36.5t-37 -11.5q-52 0 -52 48q0 51 46.5 81t127.5 30q78 0 124 -28.5t46 -76.5q0 -37 -26 -62.5t-72 -35.5q63 -9 97 -36.5t34 -70.5q0 -55 -56 -88.5t-151 -33.5q-86 0 -138.5 29.5
t-52.5 78.5q0 24 14 37.5t39 13.5q22 0 33.5 -11t16.5 -34q5 -31 22 -44.5t51 -13.5q43 0 66.5 19t23.5 52q0 37 -31.5 53.5t-100.5 16.5v45z" />
    <glyph glyph-name="uni2074" unicode="&#x2074;" horiz-adv-x="450" 
d="M177 375l40 87v18h-216l232 303h124v-248h92v-55h-92v-28l64 -77h-244zM217 535v134l-104 -134h104z" />
    <glyph glyph-name="uni2075" unicode="&#x2075;" horiz-adv-x="449" 
d="M387 682h-258v-86q24 13 58 20.5t71 7.5q75 0 120.5 -32.5t45.5 -88.5q0 -61 -55 -99t-153 -38q-82 0 -131 28.5t-49 75.5q0 25 14 38.5t42 13.5q54 0 58 -53q6 -53 62 -53q34 0 54 18t20 49q0 38 -28.5 61.5t-76.5 23.5q-31 0 -49 -9h-58v223h313v-100z" />
    <glyph glyph-name="uni2076" unicode="&#x2076;" horiz-adv-x="502" 
d="M235 611q35 9 73 9q74 0 119 -34t45 -92q0 -61 -53 -96t-147 -35q-114 0 -172.5 54t-58.5 157q0 105 59.5 162.5t170.5 57.5q79 0 128.5 -27.5t49.5 -72.5q0 -22 -13 -33.5t-37 -11.5q-43 0 -60 42q-8 23 -26 36t-45 13q-45 0 -69 -39t-25 -115q26 16 61 25zM202 447
q23 -29 66 -29q36 0 56 18.5t20 50.5q0 36 -22 55.5t-62 19.5q-48 0 -85 -25q4 -61 27 -90z" />
    <glyph glyph-name="uni2077" unicode="&#x2077;" horiz-adv-x="381" 
d="M26 781h364q-139 -198 -188 -403h-152q35 81 100 164.5t127 124.5h-251v114z" />
    <glyph glyph-name="uni2078" unicode="&#x2078;" horiz-adv-x="474" 
d="M91 393q-50 30 -50 85q0 63 69 91q-46 35 -46 92q0 62 48.5 98t130.5 36q77 0 123 -30.5t46 -80.5q0 -26 -12.5 -44.5t-40.5 -34.5q43 -19 63.5 -45t20.5 -63q0 -63 -55.5 -98.5t-153.5 -35.5q-93 0 -143 30zM321 673q0 31 -22 49t-61 18q-32 0 -49.5 -12t-17.5 -35
q0 -27 29 -42t98 -26q23 17 23 48zM161.5 438q28.5 -20 78.5 -20q41 0 63.5 13t22.5 36q0 17 -13.5 28.5t-47.5 21.5t-101 23q-31 -15 -31 -46q0 -36 28.5 -56z" />
    <glyph glyph-name="uni2079" unicode="&#x2079;" horiz-adv-x="505" 
d="M400.5 421q-63.5 -58 -181.5 -58q-78 0 -126 25.5t-48 67.5q0 21 13 32.5t37 11.5q20 0 34 -9t27 -30q14 -24 30.5 -34t41.5 -10q97 0 103 143q-40 -36 -122 -36q-81 0 -129.5 36t-48.5 97q0 64 54 100.5t150 36.5q113 0 171 -53t58 -154q0 -108 -63.5 -166zM182 602.5
q23 -21.5 67 -21.5q50 0 82 23q-3 70 -26 103t-67 33q-37 0 -58 -20.5t-21 -56.5q0 -39 23 -60.5z" />
    <glyph glyph-name="fraction" unicode="&#x2044;" horiz-adv-x="122" 
d="M-225 24l538 716l45 -35l-539 -716z" />
    <glyph glyph-name="onehalf" unicode="&#xbd;" horiz-adv-x="935" 
d="M94 320l39 87v180l-97 37l237 116v-343l64 -77h-243zM158 24l538 716l45 -35l-539 -716zM517 0l113 97q72 65 100 107.5t28 87.5q0 36 -17 55.5t-48 19.5q-32 0 -48.5 -19t-16.5 -55q0 -66 -50 -66q-24 0 -37.5 16t-13.5 45q0 60 50 96t135 36q82 0 130 -35t48 -94
q0 -47 -33.5 -85t-109.5 -80l-38 -22h191v-104h-383z" />
    <glyph glyph-name="uni2153" unicode="&#x2153;" horiz-adv-x="937" 
d="M94 320l39 87v180l-97 37l237 116v-343l64 -77h-243zM158 24l538 716l45 -35l-539 -716zM646 231q117 0 117 74q0 29 -17.5 44.5t-49.5 15.5q-60 0 -61 -55q-1 -25 -13 -36.5t-37 -11.5q-52 0 -52 48q0 51 46.5 81t127.5 30q78 0 124 -28.5t46 -76.5q0 -37 -26 -62.5
t-72 -35.5q63 -9 97 -36.5t34 -70.5q0 -55 -56 -88.5t-151 -33.5q-86 0 -138.5 29.5t-52.5 78.5q0 24 14 37.5t39 13.5q22 0 33.5 -11t16.5 -34q5 -31 22 -44.5t51 -13.5q43 0 66.5 19t23.5 52q0 37 -31.5 53.5t-100.5 16.5v45z" />
    <glyph glyph-name="uni2154" unicode="&#x2154;" horiz-adv-x="1022" 
d="M36 320l113 97q72 65 100 107.5t28 87.5q0 36 -17 55.5t-48 19.5q-32 0 -48.5 -19t-16.5 -55q0 -66 -50 -66q-24 0 -37.5 16t-13.5 45q0 60 50 96t135 36q82 0 130 -35t48 -94q0 -47 -33.5 -85t-109.5 -80l-38 -22h191v-104h-383zM243 24l538 716l45 -35l-539 -716z
M731 231q117 0 117 74q0 29 -17.5 44.5t-49.5 15.5q-60 0 -61 -55q-1 -25 -13 -36.5t-37 -11.5q-52 0 -52 48q0 51 46.5 81t127.5 30q78 0 124 -28.5t46 -76.5q0 -37 -26 -62.5t-72 -35.5q63 -9 97 -36.5t34 -70.5q0 -55 -56 -88.5t-151 -33.5q-86 0 -138.5 29.5t-52.5 78.5
q0 24 14 37.5t39 13.5q22 0 33.5 -11t16.5 -34q5 -31 22 -44.5t51 -13.5q43 0 66.5 19t23.5 52q0 37 -31.5 53.5t-100.5 16.5v45z" />
    <glyph glyph-name="onequarter" unicode="&#xbc;" horiz-adv-x="868" 
d="M94 320l39 87v180l-97 37l237 116v-343l64 -77h-243zM158 24l538 716l45 -35l-539 -716zM595 0l40 87v18h-216l232 303h124v-248h92v-55h-92v-28l64 -77h-244zM635 160v134l-104 -134h104z" />
    <glyph glyph-name="threequarters" unicode="&#xbe;" horiz-adv-x="922" 
d="M170 550q117 0 117 74q0 29 -17.5 44.5t-49.5 15.5q-60 0 -61 -55q-1 -25 -13 -36.5t-37 -11.5q-52 0 -52 48q0 51 46.5 81t127.5 30q78 0 124 -28.5t46 -76.5q0 -37 -26 -62.5t-72 -35.5q63 -9 97 -36.5t34 -70.5q0 -55 -56 -88.5t-151 -33.5q-86 0 -138.5 29.5
t-52.5 78.5q0 24 14 37.5t39 13.5q22 0 33.5 -11t16.5 -34q5 -31 22 -44.5t51 -13.5q43 0 66.5 19t23.5 52q0 37 -31.5 53.5t-100.5 16.5v45zM212 24l538 716l45 -35l-539 -716zM649 0l40 87v18h-216l232 303h124v-248h92v-55h-92v-28l64 -77h-244zM689 160v134l-104 -134
h104z" />
    <glyph glyph-name="oneeighth" unicode="&#x215b;" horiz-adv-x="930" 
d="M94 320l39 87v180l-97 37l237 116v-343l64 -77h-243zM158 24l538 716l45 -35l-539 -716zM547 19q-50 30 -50 85q0 63 69 91q-46 35 -46 92q0 62 48.5 98t130.5 36q77 0 123 -30.5t46 -80.5q0 -26 -12.5 -44.5t-40.5 -34.5q43 -19 63.5 -45t20.5 -63q0 -63 -55.5 -98.5
t-153.5 -35.5q-93 0 -143 30zM777 299q0 31 -22 49t-61 18q-32 0 -49.5 -12t-17.5 -35q0 -27 29 -42t98 -26q23 17 23 48zM617.5 64q28.5 -20 78.5 -20q41 0 63.5 13t22.5 36q0 17 -13.5 28.5t-47.5 21.5t-101 23q-31 -15 -31 -46q0 -36 28.5 -56z" />
    <glyph glyph-name="threeeighths" unicode="&#x215c;" horiz-adv-x="984" 
d="M170 550q117 0 117 74q0 29 -17.5 44.5t-49.5 15.5q-60 0 -61 -55q-1 -25 -13 -36.5t-37 -11.5q-52 0 -52 48q0 51 46.5 81t127.5 30q78 0 124 -28.5t46 -76.5q0 -37 -26 -62.5t-72 -35.5q63 -9 97 -36.5t34 -70.5q0 -55 -56 -88.5t-151 -33.5q-86 0 -138.5 29.5
t-52.5 78.5q0 24 14 37.5t39 13.5q22 0 33.5 -11t16.5 -34q5 -31 22 -44.5t51 -13.5q43 0 66.5 19t23.5 52q0 37 -31.5 53.5t-100.5 16.5v45zM212 24l538 716l45 -35l-539 -716zM601 19q-50 30 -50 85q0 63 69 91q-46 35 -46 92q0 62 48.5 98t130.5 36q77 0 123 -30.5
t46 -80.5q0 -26 -12.5 -44.5t-40.5 -34.5q43 -19 63.5 -45t20.5 -63q0 -63 -55.5 -98.5t-153.5 -35.5q-93 0 -143 30zM831 299q0 31 -22 49t-61 18q-32 0 -49.5 -12t-17.5 -35q0 -27 29 -42t98 -26q23 17 23 48zM671.5 64q28.5 -20 78.5 -20q41 0 63.5 13t22.5 36
q0 17 -13.5 28.5t-47.5 21.5t-101 23q-31 -15 -31 -46q0 -36 28.5 -56z" />
    <glyph glyph-name="fiveeighths" unicode="&#x215d;" horiz-adv-x="965" 
d="M387 625h-258v-86q24 13 58 20.5t71 7.5q75 0 120.5 -32.5t45.5 -88.5q0 -61 -55 -99t-153 -38q-82 0 -131 28.5t-49 75.5q0 25 14 38.5t42 13.5q54 0 58 -53q6 -53 62 -53q34 0 54 18t20 49q0 38 -28.5 61.5t-76.5 23.5q-31 0 -49 -9h-58v223h313v-100zM193 24l538 716
l45 -35l-539 -716zM582 19q-50 30 -50 85q0 63 69 91q-46 35 -46 92q0 62 48.5 98t130.5 36q77 0 123 -30.5t46 -80.5q0 -26 -12.5 -44.5t-40.5 -34.5q43 -19 63.5 -45t20.5 -63q0 -63 -55.5 -98.5t-153.5 -35.5q-93 0 -143 30zM812 299q0 31 -22 49t-61 18q-32 0 -49.5 -12
t-17.5 -35q0 -27 29 -42t98 -26q23 17 23 48zM652.5 64q28.5 -20 78.5 -20q41 0 63.5 13t22.5 36q0 17 -13.5 28.5t-47.5 21.5t-101 23q-31 -15 -31 -46q0 -36 28.5 -56z" />
    <glyph glyph-name="seveneighths" unicode="&#x215e;" horiz-adv-x="885" 
d="M26 725h364q-139 -198 -188 -403h-152q35 81 100 164.5t127 124.5h-251v114zM113 24l538 716l45 -35l-539 -716zM502 19q-50 30 -50 85q0 63 69 91q-46 35 -46 92q0 62 48.5 98t130.5 36q77 0 123 -30.5t46 -80.5q0 -26 -12.5 -44.5t-40.5 -34.5q43 -19 63.5 -45
t20.5 -63q0 -63 -55.5 -98.5t-153.5 -35.5q-93 0 -143 30zM732 299q0 31 -22 49t-61 18q-32 0 -49.5 -12t-17.5 -35q0 -27 29 -42t98 -26q23 17 23 48zM572.5 64q28.5 -20 78.5 -20q41 0 63.5 13t22.5 36q0 17 -13.5 28.5t-47.5 21.5t-101 23q-31 -15 -31 -46
q0 -36 28.5 -56z" />
    <glyph glyph-name="uni00B9.osf" horiz-adv-x="383" 
d="M94 198l39 87v159l-97 37l237 117v-323l64 -77h-243z" />
    <glyph glyph-name="uni00B2.osf" horiz-adv-x="449" 
d="M36 198l113 96q67 59 94.5 100.5t27.5 84.5q0 66 -59 66q-32 0 -48.5 -19t-16.5 -56q0 -65 -50 -65q-24 0 -37 15.5t-13 44.5q0 59 50 96t135 37q80 0 126 -32.5t46 -87.5q0 -42 -31 -77t-107 -79l-43 -25h190v-99h-377z" />
    <glyph glyph-name="uni00B3.osf" horiz-adv-x="451" 
d="M170 418q117 0 117 67q0 26 -18 41.5t-49 15.5q-59 0 -60 -55q-1 -25 -13.5 -36.5t-37.5 -11.5q-52 0 -52 48q0 52 46.5 81.5t127.5 29.5q78 0 124 -27.5t46 -74.5q0 -34 -25.5 -58t-72.5 -34q59 -9 90.5 -34.5t31.5 -65.5q0 -54 -55.5 -86t-146.5 -32q-87 0 -137 29
t-50 78q0 25 14 38.5t40 13.5q21 0 33 -10.5t16 -34.5q6 -32 22.5 -45t49.5 -13q41 0 63.5 17t22.5 49q0 35 -30 50t-97 15v45z" />
    <glyph glyph-name="onehalf.osf" horiz-adv-x="719" 
d="M73 210l29 64v146l-72 37l161 92v-275l53 -64h-171zM182 -11l-47 30l358 529l47 -30zM395 0l95 84q58 53 78 83t20 64q0 29 -11.5 44t-33.5 15q-41 0 -43 -57q-3 -55 -41 -55q-20 0 -31.5 14t-11.5 40q0 49 36 78.5t98 29.5q61 0 97 -29t36 -78q0 -41 -29.5 -77.5
t-93.5 -74.5l-14 -8h138v-73h-289z" />
    <glyph glyph-name="uni2153.osf" horiz-adv-x="731" 
d="M73 210l29 64v146l-72 37l161 92v-275l53 -64h-171zM187 -11l-47 30l358 529l47 -30zM517 183q89 1 89 56q0 23 -14.5 37t-38.5 14q-40 0 -48 -44q-4 -20 -12.5 -28.5t-25.5 -8.5q-41 0 -41 41t35.5 65.5t95.5 24.5q59 0 94 -24.5t35 -67.5q0 -29 -16 -49t-46 -29
q37 -8 57.5 -30t20.5 -54q0 -44 -40 -70.5t-108 -26.5q-64 0 -101.5 23.5t-37.5 62.5q0 21 11.5 33t32.5 12q17 0 26.5 -8t14.5 -28q5 -23 18 -33.5t35 -10.5q26 0 40.5 13t14.5 37q0 26 -21 37.5t-70 12.5v43z" />
    <glyph glyph-name="uni2154.osf" horiz-adv-x="772" 
d="M28 210l93 83q46 43 65.5 77t19.5 71q0 28 -11 43t-31 15t-30.5 -14.5t-10.5 -41.5q0 -55 -41 -55q-43 0 -43 53q0 49 35.5 79t96.5 30q59 0 94.5 -29t35.5 -78q0 -40 -26.5 -75.5t-83.5 -73.5l-17 -11h124v-73h-270zM235 -11l-47 30l358 529l47 -30zM560 183q87 2 87 56
q0 23 -13.5 37t-36.5 14q-42 0 -46 -44q-2 -20 -11.5 -28.5t-27.5 -8.5q-40 0 -40 41t34.5 65.5t93.5 24.5t93 -24.5t34 -67.5q0 -29 -16 -49t-46 -29q36 -8 57 -30t21 -54q0 -44 -39.5 -70.5t-106.5 -26.5q-62 0 -99.5 23.5t-37.5 62.5q0 21 11.5 33t32.5 12q17 0 27 -8.5
t16 -28.5q5 -23 17 -33t33 -10q25 0 38 13t13 36q0 26 -20.5 38t-67.5 13v43z" />
    <glyph glyph-name="onequarter.osf" horiz-adv-x="703" 
d="M73 210l29 64v146l-72 37l161 92v-275l53 -64h-171zM182 -11l-47 30l358 529l47 -30zM471 0l29 64v15h-172l168 231h98v-181h77v-50h-77v-15l54 -64h-177zM500 129v100l-74 -100h74z" />
    <glyph glyph-name="threequarters.osf" horiz-adv-x="746" 
d="M136 390q89 1 89 56q0 24 -14.5 38t-38.5 14q-40 0 -48 -45q-4 -20 -13 -28.5t-25 -8.5q-41 0 -41 42q0 40 35.5 65t95.5 25q59 0 94 -24.5t35 -67.5q0 -29 -16.5 -49.5t-45.5 -28.5q36 -8 57 -30.5t21 -53.5q0 -44 -40 -70.5t-109 -26.5q-63 0 -101 23t-38 63
q0 21 11.5 33t33.5 12q16 0 25.5 -8t14.5 -28q6 -24 19 -34.5t35 -10.5q26 0 40 13t14 37q0 26 -21 38t-69 13v42zM235 -11l-47 30l358 529l47 -30zM515 0l29 64v15h-172l168 231h98v-181h77v-50h-77v-15l54 -64h-177zM544 129v100l-74 -100h74z" />
    <glyph glyph-name="oneeighth.osf" horiz-adv-x="718" 
d="M73 210l29 64v146l-72 37l161 92v-275l53 -64h-171zM182 -11l-47 30l358 529l47 -30zM438 11.5q-35 22.5 -35 63.5q0 49 51 74q-39 30 -39 76t36 74.5t95 28.5q54 0 86.5 -23t32.5 -62q0 -37 -34 -63q56 -31 56 -88q0 -48 -40 -75.5t-111 -27.5q-63 0 -98 22.5zM514 218
q20 -11 67 -18q13 12 13 32q0 22 -14.5 34t-40.5 12q-21 0 -33 -8.5t-12 -22.5q0 -18 20 -29zM541 39q28 0 43.5 9t15.5 25q0 17 -22 28.5t-74 22.5q-27 -10 -27 -38q0 -47 64 -47z" />
    <glyph glyph-name="threeeighths.osf" horiz-adv-x="772" 
d="M136 390q89 1 89 56q0 24 -14.5 38t-38.5 14q-40 0 -48 -45q-4 -20 -13 -28.5t-25 -8.5q-41 0 -41 42q0 40 35.5 65t95.5 25q59 0 94 -24.5t35 -67.5q0 -29 -16.5 -49.5t-45.5 -28.5q36 -8 57 -30.5t21 -53.5q0 -44 -40 -70.5t-109 -26.5q-63 0 -101 23t-38 63
q0 21 11.5 33t33.5 12q16 0 25.5 -8t14.5 -28q6 -24 19 -34.5t35 -10.5q26 0 40 13t14 37q0 26 -21 38t-69 13v42zM235 -11l-47 30l358 529l47 -30zM491 11.5q-35 22.5 -35 63.5q0 48 52 74q-39 29 -39 76q0 46 35.5 74.5t95.5 28.5q53 0 86 -23t33 -62q0 -37 -35 -63
q57 -31 57 -88q0 -48 -40 -75.5t-111 -27.5q-64 0 -99 22.5zM568 218q20 -11 67 -18q13 12 13 32q0 22 -14.5 34t-40.5 12q-21 0 -33 -8.5t-12 -22.5q0 -18 20 -29zM594 39q28 0 44 9t16 25q0 17 -22 28.5t-75 22.5q-26 -10 -26 -38q0 -47 63 -47z" />
    <glyph glyph-name="fiveeighths.osf" horiz-adv-x="766" 
d="M229 -11l-47 30l358 529l47 -30zM69 351v180h238v-82h-188v-54q40 19 86 19q55 0 87.5 -27t32.5 -72q0 -53 -43.5 -87t-113.5 -34q-59 0 -95.5 23.5t-36.5 62.5q0 21 12.5 34t33.5 13q34 0 44 -40q9 -43 51 -43q25 0 39 14t14 38q0 29 -20 45t-56 16q-18 0 -40 -6h-45z
M485 11.5q-35 22.5 -35 63.5q0 49 51 74q-38 29 -38 76q0 46 35.5 74.5t94.5 28.5q54 0 86.5 -23t32.5 -62q0 -38 -34 -63q56 -31 56 -88q0 -48 -40 -75.5t-111 -27.5q-63 0 -98 22.5zM561.5 218.5q19.5 -10.5 66.5 -18.5q14 12 14 32q0 22 -14.5 34t-40.5 12
q-21 0 -33 -8.5t-12 -22.5q0 -18 19.5 -28.5zM588 39q28 0 43.5 9t15.5 25q0 17 -22 29t-74 22q-26 -10 -26 -38q0 -47 63 -47z" />
    <glyph glyph-name="seveneighths.osf" horiz-adv-x="672" 
d="M135 -11l-47 30l358 529l47 -30zM26 530h302q-80 -83 -120.5 -160t-50.5 -168h-106q11 73 53 138t98 101h-176v89zM391 11.5q-35 22.5 -35 63.5q0 48 52 74q-39 29 -39 76q0 46 35.5 74.5t95.5 28.5q53 0 86 -23t33 -62q0 -37 -35 -63q57 -31 57 -88q0 -47 -40.5 -75
t-110.5 -28q-64 0 -99 22.5zM468 218q20 -11 67 -18q13 12 13 32q0 22 -14.5 34t-40.5 12q-21 0 -33 -8.5t-12 -22.5q0 -18 20 -29zM494 39q28 0 44 9t16 25q0 17 -22 28.5t-75 22.5q-26 -10 -26 -38q0 -47 63 -47z" />
    <glyph glyph-name="uni2080.ss04" horiz-adv-x="530" 
d="M70 251q29 49 79.5 75t115.5 26q101 0 162.5 -55.5t61.5 -157.5t-61.5 -160.5t-162.5 -58.5q-100 0 -162 57t-62 157q0 68 29 117zM389.5 63q44.5 27 44.5 76q0 50 -45 76.5t-124 26.5q-78 0 -123.5 -28t-45.5 -80q0 -46 46 -72t123 -26q80 0 124.5 27z" />
    <glyph glyph-name="zero.dnom.ss04" horiz-adv-x="530" 
d="M70 320q29 49 79.5 75t115.5 26q101 0 162.5 -55.5t61.5 -157.5t-61.5 -160.5t-162.5 -58.5q-100 0 -162 57t-62 157q0 68 29 117zM389.5 132q44.5 27 44.5 76q0 50 -45 76.5t-124 26.5q-78 0 -123.5 -28t-45.5 -80q0 -46 46 -72t123 -26q80 0 124.5 27z" />
    <glyph glyph-name="zero.numr.ss04" horiz-adv-x="530" 
d="M70 639q29 49 79.5 75t115.5 26q101 0 162.5 -55.5t61.5 -157.5t-61.5 -160.5t-162.5 -58.5q-100 0 -162 57t-62 157q0 68 29 117zM389.5 451q44.5 27 44.5 76q0 50 -45 76.5t-124 26.5q-78 0 -123.5 -28t-45.5 -80q0 -46 46 -72t123 -26q80 0 124.5 27z" />
    <glyph glyph-name="uni2070.ss04" horiz-adv-x="530" 
d="M70 694q29 49 79.5 75t115.5 26q101 0 162.5 -55.5t61.5 -157.5t-61.5 -160.5t-162.5 -58.5q-100 0 -162 57t-62 157q0 68 29 117zM389.5 506q44.5 27 44.5 76q0 50 -45 76.5t-124 26.5q-78 0 -123.5 -28t-45.5 -80q0 -46 46 -72t123 -26q80 0 124.5 27z" />
    <glyph glyph-name="uni2080.ss04.zero" horiz-adv-x="530" 
d="M427.5 296.5q61.5 -55.5 61.5 -157.5t-61.5 -160.5t-162.5 -58.5q-100 0 -162 57t-62 157q0 68 29 117t79.5 75t115.5 26q101 0 162.5 -55.5zM113.5 85q17.5 -21 50.5 -33l142 188q-26 2 -41 2q-78 0 -123.5 -28t-45.5 -80q0 -28 17.5 -49zM389.5 63q44.5 27 44.5 76
q0 31 -18.5 53.5t-52.5 34.5l2 -2l-141 -187q26 -2 41 -2q80 0 124.5 27z" />
    <glyph glyph-name="zero.dnom.ss04.zero" horiz-adv-x="530" 
d="M427.5 365.5q61.5 -55.5 61.5 -157.5t-61.5 -160.5t-162.5 -58.5q-100 0 -162 57t-62 157q0 68 29 117t79.5 75t115.5 26q101 0 162.5 -55.5zM113.5 154q17.5 -21 50.5 -33l142 188q-26 2 -41 2q-78 0 -123.5 -28t-45.5 -80q0 -28 17.5 -49zM389.5 132q44.5 27 44.5 76
q0 31 -18.5 53.5t-52.5 34.5l2 -2l-141 -187q26 -2 41 -2q80 0 124.5 27z" />
    <glyph glyph-name="zero.numr.ss04.zero" horiz-adv-x="530" 
d="M427.5 684.5q61.5 -55.5 61.5 -157.5t-61.5 -160.5t-162.5 -58.5q-100 0 -162 57t-62 157q0 68 29 117t79.5 75t115.5 26q101 0 162.5 -55.5zM113.5 473q17.5 -21 50.5 -33l142 188q-26 2 -41 2q-78 0 -123.5 -28t-45.5 -80q0 -28 17.5 -49zM389.5 451q44.5 27 44.5 76
q0 31 -18.5 53.5t-52.5 34.5l2 -2l-141 -187q26 -2 41 -2q80 0 124.5 27z" />
    <glyph glyph-name="uni2070.ss04.zero" horiz-adv-x="530" 
d="M427.5 739.5q61.5 -55.5 61.5 -157.5t-61.5 -160.5t-162.5 -58.5q-100 0 -162 57t-62 157q0 68 29 117t79.5 75t115.5 26q101 0 162.5 -55.5zM113.5 528q17.5 -21 50.5 -33l142 188q-26 2 -41 2q-78 0 -123.5 -28t-45.5 -80q0 -28 17.5 -49zM389.5 506q44.5 27 44.5 76
q0 31 -18.5 53.5t-52.5 34.5l2 -2l-141 -187q26 -2 41 -2q80 0 124.5 27z" />
    <glyph glyph-name="uni00B9.tf" 
d="M145 375l39 87v180l-97 37l237 116v-343l64 -77h-243z" />
    <glyph glyph-name="uni00B2.tf" 
d="M87 375l113 97q72 65 100 107.5t28 87.5q0 36 -17 55.5t-48 19.5q-32 0 -48.5 -19t-16.5 -55q0 -66 -50 -66q-24 0 -37.5 16t-13.5 45q0 60 50 96t135 36q82 0 130 -35t48 -94q0 -47 -33.5 -85t-109.5 -80l-38 -22h191v-104h-383z" />
    <glyph glyph-name="uni00B3.tf" 
d="M221 605q117 0 117 74q0 29 -17.5 44.5t-49.5 15.5q-60 0 -61 -55q-1 -25 -13 -36.5t-37 -11.5q-52 0 -52 48q0 51 46.5 81t127.5 30q78 0 124 -28.5t46 -76.5q0 -37 -26 -62.5t-72 -35.5q63 -9 97 -36.5t34 -70.5q0 -55 -56 -88.5t-151 -33.5q-86 0 -138.5 29.5
t-52.5 78.5q0 24 14 37.5t39 13.5q22 0 33.5 -11t16.5 -34q5 -31 22 -44.5t51 -13.5q43 0 66.5 19t23.5 52q0 37 -31.5 53.5t-100.5 16.5v45z" />
    <glyph glyph-name="onehalf.tf" 
d="M84 350l39 86v157l-81 40l180 107v-314l64 -76h-202zM125 -11l-46 32l525 719l46 -33zM380 0l99 92q53 49 75.5 90t22.5 85q0 64 -48 64q-24 0 -37 -16t-13 -46q-1 -61 -45 -61q-21 0 -32 14.5t-11 42.5q0 54 39.5 87t105.5 33t106 -33.5t40 -86.5q0 -43 -29.5 -81.5
t-94.5 -81.5l-17 -13h147v-89h-308z" />
    <glyph glyph-name="uni2153.tf" 
d="M84 355l39 86v152l-81 40l180 107v-310l64 -75h-202zM117 -11l-46 32l525 719l47 -33zM490 218q98 0 98 64q0 25 -14 39t-38 14q-47 0 -51 -49q-6 -41 -44 -41q-42 0 -42 47q0 44 38 71t102 27t102 -26t38 -70q0 -33 -21.5 -56t-59.5 -33q45 -9 69.5 -34t24.5 -63
q0 -54 -44 -87t-117 -33q-66 0 -107 27.5t-41 72.5q0 24 12 37.5t35 13.5q20 0 31 -10.5t15 -34.5q4 -26 15.5 -38t33.5 -12q29 0 45.5 17t16.5 48q0 33 -23 48.5t-74 15.5v45z" />
    <glyph glyph-name="uni2154.tf" 
d="M26 355l100 92q53 50 75.5 90.5t22.5 84.5q0 65 -48 65q-24 0 -37 -16.5t-14 -46.5q-1 -61 -44 -61q-21 0 -32.5 14.5t-11.5 42.5q0 54 39.5 87t105.5 33t106.5 -33t40.5 -86q0 -43 -30 -82t-95 -82l-17 -13h145v-89h-306zM141 -11l-46 32l525 719l46 -33zM490 218
q98 0 98 64q0 25 -14 39t-38 14q-47 0 -51 -49q-6 -41 -44 -41q-42 0 -42 47q0 44 38 71t102 27t102 -26t38 -70q0 -33 -21.5 -56t-59.5 -33q45 -9 69.5 -34t24.5 -63q0 -54 -44 -87t-117 -33q-66 0 -107 27.5t-41 72.5q0 24 12 37.5t35 13.5q20 0 31 -10.5t15 -34.5
q4 -26 15.5 -38t33.5 -12q29 0 45.5 17t16.5 48q0 33 -23 48.5t-74 15.5v45z" />
    <glyph glyph-name="onequarter.tf" 
d="M84 350l39 86v157l-81 40l180 107v-314l64 -76h-202zM130 -11l-46 32l525 719l47 -33zM469 0l39 86v9h-201l207 282h93v-227h78v-55h-78v-20l64 -75h-202zM508 150v124l-90 -124h90z" />
    <glyph glyph-name="threequarters.tf" 
d="M151 568q98 0 98 63q0 25 -14 39.5t-38 14.5q-46 0 -52 -49q-5 -41 -43 -41q-20 0 -31 12t-11 34q0 45 38 72t102 27t101.5 -26t37.5 -70q0 -33 -21 -56.5t-59 -33.5q45 -8 69.5 -33t24.5 -64q0 -53 -44 -86t-118 -33q-66 0 -106.5 27t-40.5 72q0 24 12 37.5t35 13.5
q20 0 30.5 -10.5t14.5 -34.5q4 -26 15.5 -38t33.5 -12q29 0 46 17t17 48q0 34 -23 49.5t-74 15.5v45zM150 -11l-46 32l525 719l47 -33zM469 0l39 86v9h-201l207 282h93v-227h78v-55h-78v-20l64 -75h-202zM508 150v124l-90 -124h90z" />
    <glyph glyph-name="oneeighth.tf" 
d="M84 355l39 86v152l-81 40l180 107v-310l64 -75h-202zM125 -11l-46 32l525 719l47 -33zM386 261q0 56 39.5 90t106.5 34q61 0 100 -28.5t39 -74.5q0 -47 -44 -75q63 -34 63 -98q0 -56 -43.5 -88t-123.5 -32q-73 0 -113.5 27.5t-40.5 77.5q0 58 55 84q-38 31 -38 83z
M600 272q0 27 -19.5 42.5t-53.5 15.5q-29 0 -44.5 -11t-15.5 -33q0 -23 22.5 -35t89.5 -24q21 15 21 45zM447 107q0 -31 21 -47t62 -16q34 0 52.5 11.5t18.5 33.5q0 15 -11 24.5t-39 18t-83 19.5q-21 -13 -21 -44z" />
    <glyph glyph-name="threeeighths.tf" 
d="M151 573q98 0 98 64q0 24 -14 38.5t-38 14.5q-46 0 -52 -49q-5 -41 -43 -41q-20 0 -31 12t-11 34q0 45 38 72t102 27t101.5 -26t37.5 -70q0 -33 -21 -56.5t-59 -33.5q45 -8 69.5 -33t24.5 -64q0 -53 -44 -86t-118 -33q-66 0 -106.5 27t-40.5 72q0 24 12 37.5t35 13.5
q20 0 30.5 -10.5t14.5 -34.5q4 -25 15.5 -37t33.5 -12q30 0 46.5 17t16.5 47q0 34 -23 49.5t-74 15.5v45zM130 -11l-46 32l525 719l47 -33zM386 261q0 56 39.5 90t106.5 34q61 0 100 -28.5t39 -74.5q0 -47 -44 -75q63 -34 63 -98q0 -56 -43.5 -88t-123.5 -32
q-73 0 -113.5 27.5t-40.5 77.5q0 58 55 84q-38 31 -38 83zM600 272q0 27 -19.5 42.5t-53.5 15.5q-29 0 -44.5 -11t-15.5 -33q0 -23 22.5 -35t89.5 -24q21 15 21 45zM447 107q0 -31 21 -47t62 -16q34 0 52.5 11.5t18.5 33.5q0 15 -11 24.5t-39 18t-83 19.5q-21 -13 -21 -44z
" />
    <glyph glyph-name="fiveeighths.tf" 
d="M125 -11l-46 32l525 719l47 -33zM74 725h261v-92h-205v-72q37 16 89 16q63 0 98.5 -29t35.5 -80q0 -59 -46.5 -94.5t-123.5 -35.5q-65 0 -103.5 26.5t-38.5 70.5q0 24 12.5 37t35.5 13q21 0 32 -11t14 -35q6 -51 54 -51q28 0 43.5 16t15.5 46q0 37 -21 57t-60 20
q-23 0 -42 -6h-51v204zM386 261q0 56 39.5 90t106.5 34q61 0 100 -28.5t39 -74.5q0 -47 -44 -75q63 -34 63 -98q0 -56 -43.5 -88t-123.5 -32q-73 0 -113.5 27.5t-40.5 77.5q0 58 55 84q-38 31 -38 83zM600 272q0 27 -19.5 42.5t-53.5 15.5q-29 0 -44.5 -11t-15.5 -33
q0 -23 22.5 -35t89.5 -24q21 15 21 45zM447 107q0 -31 21 -47t62 -16q34 0 52.5 11.5t18.5 33.5q0 15 -11 24.5t-39 18t-83 19.5q-21 -13 -21 -44z" />
    <glyph glyph-name="seveneighths.tf" 
d="M100 -11l-46 32l525 719l46 -33zM67 723h326q-149 -199 -176 -373h-121q19 73 71.5 154t106.5 120h-207v99zM386 261q0 56 39.5 90t106.5 34q61 0 100 -28.5t39 -74.5q0 -47 -44 -75q63 -34 63 -98q0 -56 -43.5 -88t-123.5 -32q-73 0 -113.5 27.5t-40.5 77.5q0 58 55 84
q-38 31 -38 83zM600 272q0 27 -19.5 42.5t-53.5 15.5q-29 0 -44.5 -11t-15.5 -33q0 -23 22.5 -35t89.5 -24q21 15 21 45zM447 107q0 -31 21 -47t62 -16q34 0 52.5 11.5t18.5 33.5q0 15 -11 24.5t-39 18t-83 19.5q-21 -13 -21 -44z" />
    <glyph glyph-name="uni00B9.tosf" 
d="M133 198l39 87v159l-97 37l237 117v-323l64 -77h-243z" />
    <glyph glyph-name="uni00B2.tosf" 
d="M192 294q68 60 95.5 101t27.5 84q0 32 -15.5 49t-44.5 17q-32 0 -48.5 -19.5t-16.5 -54.5q0 -66 -49 -66q-24 0 -37.5 16t-13.5 45q0 58 51 95t133 37q79 0 126.5 -33t47.5 -88q0 -40 -34 -75.5t-121 -84.5l-28 -20h192v-99h-378z" />
    <glyph glyph-name="uni00B3.tosf" 
d="M209 418q117 0 117 67q0 26 -18 41.5t-49 15.5q-30 0 -44.5 -13.5t-16.5 -41.5q-1 -25 -13 -36.5t-37 -11.5q-27 0 -39.5 11.5t-12.5 36.5q0 52 46.5 81.5t126.5 29.5q78 0 124.5 -27.5t46.5 -74.5q0 -35 -26 -58.5t-73 -33.5q59 -9 90.5 -35t31.5 -67q0 -53 -52.5 -84.5
t-143.5 -31.5q-87 0 -139.5 29.5t-52.5 78.5q0 24 14 37.5t39 13.5q21 0 33 -11t17 -35q4 -31 21.5 -44t51.5 -13q41 0 63 17.5t22 48.5q0 35 -30 50t-97 15v45z" />
    <glyph glyph-name="onehalf.tosf" 
d="M91 210l29 64v146l-71 37l160 92v-275l54 -64h-172zM203 -11l-47 30l358 529l47 -30zM399 0l95 84q58 53 78 83t20 64q0 28 -11.5 43.5t-33.5 15.5q-21 0 -32 -15t-12 -42q-1 -55 -41 -55q-20 0 -31 14t-11 41q0 48 36 77.5t96 29.5q62 0 98 -28.5t36 -77.5
q0 -42 -29 -78.5t-93 -74.5l-14 -8h138v-73h-289z" />
    <glyph glyph-name="uni2153.tosf" 
d="M92 210l29 64v146l-72 37l161 92v-275l54 -64h-172zM204 -11l-47 30l358 529l47 -30zM511 183q89 1 89 56q0 23 -14.5 37t-38.5 14q-39 0 -47 -45q-4 -19 -13.5 -27.5t-26.5 -8.5q-19 0 -29.5 10.5t-10.5 31.5q0 40 35.5 64.5t95.5 24.5q59 0 94 -24.5t35 -67.5
q0 -29 -16 -49t-46 -29q36 -8 57 -30.5t21 -53.5q0 -44 -40 -70.5t-108 -26.5q-64 0 -101.5 23t-37.5 63q0 21 11 33t32 12q17 0 27 -8t15 -27q10 -45 55 -45q25 0 39 13t14 36q0 27 -21 38.5t-70 12.5v43z" />
    <glyph glyph-name="uni2154.tosf" 
d="M27 210l93 84q46 42 65.5 76t19.5 72q0 28 -10.5 42.5t-30.5 14.5q-21 0 -31.5 -15t-10.5 -41q-1 -56 -42 -56q-20 0 -31 14t-11 41q0 48 35.5 77.5t95.5 29.5t95 -28.5t35 -77.5q0 -40 -26 -75t-83 -74l-18 -11h124v-73h-269zM224 -11l-47 30l358 529l47 -30zM518 183
q87 2 87 56q0 23 -13.5 37t-36.5 14q-37 0 -45 -44q-4 -20 -13.5 -28.5t-26.5 -8.5q-19 0 -29.5 10.5t-10.5 30.5q0 40 34.5 65t93.5 25t93 -24.5t34 -67.5q0 -29 -16 -49t-46 -29q36 -8 57 -30.5t21 -53.5q0 -44 -39.5 -70.5t-106.5 -26.5q-62 0 -99 23t-37 63q0 21 11 33
t32 12q17 0 26.5 -8t15.5 -29q6 -23 18.5 -33t34.5 -10q23 0 36.5 13t13.5 36q0 27 -20.5 38.5t-68.5 12.5v43z" />
    <glyph glyph-name="onequarter.tosf" 
d="M92 210l29 64v146l-72 37l161 92v-275l54 -64h-172zM206 -11l-47 30l358 529l47 -30zM485 0l29 64v15h-172l168 231h98v-181h77v-50h-77v-15l54 -64h-177zM514 129v100l-74 -100h74z" />
    <glyph glyph-name="threequarters.tosf" 
d="M146 391q89 1 89 56q0 23 -14.5 37t-38.5 14q-39 0 -47 -45q-4 -19 -13.5 -27.5t-26.5 -8.5q-19 0 -29.5 10.5t-10.5 31.5q0 40 35.5 65t95.5 25q59 0 94 -25t35 -68q0 -29 -16 -49t-46 -29q36 -8 57 -30.5t21 -53.5q0 -44 -40 -70.5t-108 -26.5q-64 0 -101.5 23
t-37.5 63q0 21 11 33t32 12q17 0 27 -8t15 -27q10 -45 55 -45q25 0 39 13t14 36q0 27 -21 38.5t-70 12.5v43zM230 -11l-47 30l358 529l47 -30zM485 0l29 64v15h-172l168 231h98v-181h77v-50h-77v-15l54 -64h-177zM514 129v100l-74 -100h74z" />
    <glyph glyph-name="oneeighth.tosf" horiz-adv-x="749" 
d="M92 210l29 64v146l-72 37l161 92v-275l54 -64h-172zM209 -11l-47 30l358 529l47 -30zM454 12q-37 23 -37 63q0 48 54 74q-39 29 -39 77q0 46 35 74t94 28q54 0 87.5 -23.5t33.5 -61.5q0 -37 -35 -63q57 -32 57 -89q0 -49 -39 -75.5t-108 -26.5q-66 0 -103 23zM611 233
q0 21 -14.5 33t-40.5 12q-21 0 -33 -8t-12 -23q0 -19 20 -29.5t67 -17.5q13 12 13 33zM508 51q17 -12 49 -12q29 0 44.5 9t15.5 26t-21 28t-74 22q-31 -9 -31 -38q0 -23 17 -35z" />
    <glyph glyph-name="threeeighths.tosf" horiz-adv-x="749" 
d="M146 391q89 1 89 56q0 23 -14.5 37t-38.5 14q-39 0 -47 -45q-4 -19 -13.5 -27.5t-26.5 -8.5q-19 0 -29.5 10.5t-10.5 31.5q0 40 35.5 65t95.5 25q59 0 94 -25t35 -68q0 -29 -16 -49t-46 -29q36 -8 57 -30.5t21 -53.5q0 -44 -40 -70.5t-108 -26.5q-64 0 -101.5 23
t-37.5 63q0 21 11 33t32 12q17 0 27 -8t15 -27q10 -45 55 -45q25 0 39 13t14 36q0 27 -21 38.5t-70 12.5v43zM229 -11l-47 30l358 529l47 -30zM454 12q-37 23 -37 63q0 48 54 74q-39 29 -39 77q0 46 35 74t94 28q54 0 87.5 -23.5t33.5 -61.5q0 -37 -35 -63q57 -32 57 -89
q0 -49 -39 -75.5t-108 -26.5q-66 0 -103 23zM611 233q0 21 -14.5 33t-40.5 12q-21 0 -33 -8t-12 -23q0 -19 20 -29.5t67 -17.5q13 12 13 33zM508 51q17 -12 49 -12q29 0 44.5 9t15.5 26t-21 28t-74 22q-31 -9 -31 -38q0 -23 17 -35z" />
    <glyph glyph-name="fiveeighths.tosf" horiz-adv-x="749" 
d="M223 -11l-47 30l358 529l47 -30zM69 534h233v-82h-183v-54q41 18 86 18q54 0 87 -27t33 -72q0 -53 -43 -86.5t-114 -33.5q-58 0 -95 23t-37 62q0 22 12 34.5t34 12.5q17 0 28 -9.5t17 -30.5q9 -42 50 -42q25 0 39 14t14 38q0 29 -20 44.5t-56 15.5q-24 0 -40 -6h-45v181z
M454 12q-37 23 -37 63q0 48 54 74q-39 29 -39 77q0 46 35 74t94 28q54 0 87.5 -23.5t33.5 -61.5q0 -37 -35 -63q57 -32 57 -89q0 -49 -39 -75.5t-108 -26.5q-66 0 -103 23zM531 217.5q20 -10.5 67 -17.5q13 12 13 33t-14.5 33t-40.5 12q-21 0 -33 -8t-12 -23q0 -19 20 -29.5
zM508 51q17 -12 49 -12q29 0 44.5 9t15.5 26t-21 28t-74 22q-31 -9 -31 -38q0 -23 17 -35z" />
    <glyph glyph-name="seveneighths.tosf" horiz-adv-x="749" 
d="M203 -11l-47 30l358 529l47 -30zM90 534h302q-80 -84 -120 -161t-51 -167h-106q11 72 52 137t98 102h-175v89zM454 12q-37 23 -37 63q0 48 54 74q-39 29 -39 77q0 46 35 74t94 28q54 0 87.5 -23.5t33.5 -61.5q0 -37 -35 -63q57 -32 57 -89q0 -49 -39 -75.5t-108 -26.5
q-66 0 -103 23zM531 217.5q20 -10.5 67 -17.5q13 12 13 33t-14.5 33t-40.5 12q-21 0 -33 -8t-12 -23q0 -19 20 -29.5zM508 51q17 -12 49 -12q29 0 44.5 9t15.5 26t-21 28t-74 22q-31 -9 -31 -38q0 -23 17 -35z" />
    <glyph glyph-name="uni2080.zero" horiz-adv-x="555" 
d="M104.5 -22.5q-63.5 57.5 -63.5 157.5t63.5 158.5t172.5 58.5q111 0 174 -57t63 -157q0 -101 -64 -159.5t-173 -58.5t-172.5 57.5zM341 270q-26 26 -64 26q-49 0 -76 -42t-27 -119q0 -41 14 -67zM277 -24q50 0 77 42.5t27 119.5q0 45 -15 72l-155 -205q26 -29 66 -29z" />
    <glyph glyph-name="zero.dnom.zero" horiz-adv-x="555" 
d="M104.5 46.5q-63.5 57.5 -63.5 157.5t63.5 158.5t172.5 58.5q111 0 174 -57t63 -157q0 -101 -64 -159.5t-173 -58.5t-172.5 57.5zM341 339q-26 26 -64 26q-49 0 -76 -42t-27 -119q0 -41 14 -67zM277 45q50 0 77 42.5t27 119.5q0 45 -15 72l-155 -205q26 -29 66 -29z" />
    <glyph glyph-name="zero.numr.zero" horiz-adv-x="555" 
d="M104.5 365.5q-63.5 57.5 -63.5 157.5t63.5 158.5t172.5 58.5q111 0 174 -57t63 -157q0 -101 -64 -159.5t-173 -58.5t-172.5 57.5zM341 658q-26 26 -64 26q-49 0 -76 -42t-27 -119q0 -41 14 -67zM277 364q50 0 77 42.5t27 119.5q0 45 -15 72l-155 -205q26 -29 66 -29z" />
    <glyph glyph-name="uni2070.zero" horiz-adv-x="555" 
d="M104.5 420.5q-63.5 57.5 -63.5 157.5t63.5 158.5t172.5 58.5q111 0 174 -57t63 -157q0 -101 -64 -159.5t-173 -58.5t-172.5 57.5zM341 713q-26 26 -64 26q-49 0 -76 -42t-27 -119q0 -41 14 -67zM277 419q50 0 77 42.5t27 119.5q0 45 -15 72l-155 -205q26 -29 66 -29z" />
    <glyph glyph-name="period" unicode="." horiz-adv-x="294" 
d="M94.5 13q-20.5 21 -20.5 53t21 53.5t53 21.5q31 0 52 -21.5t21 -53.5t-20.5 -53t-52.5 -21q-33 0 -53.5 21z" />
    <glyph glyph-name="comma" unicode="," horiz-adv-x="300" 
d="M67 -132q39 21 62 56.5t24 73.5h-16q-31 0 -52.5 20.5t-21.5 50.5q0 31 21.5 51.5t53.5 20.5q38 0 63 -30t25 -77q0 -59 -40.5 -110t-106.5 -74z" />
    <glyph glyph-name="colon" unicode=":" horiz-adv-x="294" 
d="M94.5 388q-20.5 21 -20.5 53t21 53.5t53 21.5q31 0 52 -21.5t21 -53.5t-20.5 -53t-52.5 -21q-33 0 -53.5 21zM94.5 13q-20.5 21 -20.5 53t21 53.5t53 21.5q31 0 52 -21.5t21 -53.5t-20.5 -53t-52.5 -21q-33 0 -53.5 21z" />
    <glyph glyph-name="semicolon" unicode=";" horiz-adv-x="314" 
d="M78 -132q39 21 62 56.5t24 73.5h-16q-31 0 -52.5 20.5t-21.5 50.5q0 31 21.5 51.5t53.5 20.5q38 0 63 -30t25 -77q0 -59 -40.5 -110t-106.5 -74zM94.5 388q-20.5 21 -20.5 53t21 53.5t53 21.5q31 0 52 -21.5t21 -53.5t-20.5 -53t-52.5 -21q-33 0 -53.5 21z" />
    <glyph glyph-name="ellipsis" unicode="&#x2026;" horiz-adv-x="811" 
d="M94.5 13q-20.5 21 -20.5 53t21 53.5t53 21.5q31 0 52 -21.5t21 -53.5t-20.5 -53t-52.5 -21q-33 0 -53.5 21zM357.5 13q-20.5 21 -20.5 53t21 53.5t53 21.5q31 0 52 -21.5t21 -53.5t-20.5 -53t-52.5 -21q-33 0 -53.5 21zM620.5 13q-20.5 21 -20.5 53t21 53.5t53 21.5
q31 0 52 -21.5t21 -53.5t-20.5 -53t-52.5 -21q-33 0 -53.5 21z" />
    <glyph glyph-name="exclam" unicode="!" horiz-adv-x="257" 
d="M60 725h154l-70 -534h-13zM84 13q-21 21 -21 53t21.5 53.5t53.5 21.5q31 0 51.5 -21.5t20.5 -53.5t-20 -53t-52 -21q-33 0 -54 21z" />
    <glyph glyph-name="exclamdown" unicode="&#xa1;" horiz-adv-x="257" 
d="M173 528.5q21 -20.5 21 -52.5t-21.5 -53.5t-53.5 -21.5t-52.5 21t-20.5 54q0 32 20.5 52.5t52.5 20.5q33 0 54 -20.5zM196 -184h-153l70 535h13z" />
    <glyph glyph-name="question" unicode="?" horiz-adv-x="411" 
d="M159 417q62 1 97 31.5t35 79.5q0 47 -31.5 73.5t-76.5 26.5q-23 0 -54 -9q-5 -1 -18.5 -4t-26.5 -3q-30 0 -47 15t-17 42q0 32 29 51.5t87 19.5q65 0 119 -25t85 -69.5t31 -99.5q0 -68 -44.5 -114t-112.5 -54v-172h-55v211zM133 13q-21 21 -21 53t21.5 53.5t53.5 21.5
q31 0 52 -21.5t21 -53.5t-20.5 -53t-52.5 -21q-33 0 -54 21z" />
    <glyph glyph-name="questiondown" unicode="&#xbf;" horiz-adv-x="411" 
d="M278 528.5q21 -20.5 21 -52.5t-21 -53.5t-53 -21.5t-52.5 21t-20.5 54q0 32 20.5 52.5t52.5 20.5t53 -20.5zM252 109q-61 -2 -96.5 -33t-35.5 -82q0 -48 30.5 -77.5t78.5 -29.5q25 0 54 9q5 1 18.5 4t25.5 3q30 0 47.5 -15.5t17.5 -41.5q0 -34 -30.5 -52.5t-85.5 -18.5
q-67 0 -120.5 26t-84.5 71.5t-31 101.5q0 68 43.5 116.5t113.5 56.5v184h55v-222z" />
    <glyph glyph-name="periodcentered" unicode="&#xb7;" horiz-adv-x="266" 
d="M80.5 267q-20.5 21 -20.5 53t21 53.5t53 21.5q31 0 52 -21.5t21 -53.5t-20.5 -53t-52.5 -21q-33 0 -53.5 21z" />
    <glyph glyph-name="bullet" unicode="&#x2022;" horiz-adv-x="368" 
d="M277 407q37 -38 37 -93q0 -54 -37 -91.5t-91 -37.5q-55 0 -93.5 37.5t-38.5 91.5q0 55 38.5 93t93.5 38q54 0 91 -38z" />
    <glyph glyph-name="asterisk" unicode="*" horiz-adv-x="483" 
d="M177 760h128l-64 -193zM38 565l39 122l164 -120zM406 687l39 -122l-204 2zM179 373l-102 75l164 119zM406 448l-103 -75l-62 194z" />
    <glyph glyph-name="numbersign" unicode="#" horiz-adv-x="621" 
d="M138 251l44 223h-103v56h114l38 195h57l-38 -195h187l38 195h57l-38 -195h98v-56h-109l-44 -223h103v-56h-114l-38 -195h-57l38 195h-187l-38 -195h-57l38 195h-98v56h109zM382 251l44 223h-187l-44 -223h187z" />
    <glyph glyph-name="slash" unicode="/" horiz-adv-x="286" 
d="M66 -260h-56l210 1070h56z" />
    <glyph glyph-name="backslash" unicode="\" horiz-adv-x="286" 
d="M66 810l210 -1070h-56l-210 1070h56z" />
    <glyph glyph-name="exclamdown.case" horiz-adv-x="257" 
d="M173 711.5q21 -20.5 21 -52.5t-21.5 -53.5t-53.5 -21.5t-52.5 21t-20.5 54q0 32 20.5 52.5t52.5 20.5q33 0 54 -20.5zM196 0h-153l70 534h13z" />
    <glyph glyph-name="questiondown.case" horiz-adv-x="407" 
d="M275.5 719.5q20.5 -20.5 20.5 -52.5t-21 -53.5t-53 -21.5t-52.5 21t-20.5 54q0 32 20.5 52.5t52.5 20.5q33 0 53.5 -20.5zM250 315q-62 -1 -97 -31t-35 -79q0 -47 31.5 -73.5t76.5 -26.5q22 0 54 8q26 7 44 7q30 0 47.5 -15t17.5 -41q0 -33 -29 -52.5t-87 -19.5
q-65 0 -119 25t-85.5 69.5t-31.5 99.5q0 68 45 113.5t112 54.5v173h56v-212z" />
    <glyph glyph-name="bullet.case" horiz-adv-x="368" 
d="M277 454q37 -38 37 -93q0 -54 -37 -91.5t-91 -37.5q-55 0 -93.5 37.5t-38.5 91.5q0 55 38.5 93t93.5 38q54 0 91 -38z" />
    <glyph glyph-name="slash.case" horiz-adv-x="252" 
d="M66 -85h-56l176 895h56z" />
    <glyph glyph-name="backslash.case" horiz-adv-x="252" 
d="M66 810l176 -895h-56l-176 895h56z" />
    <glyph glyph-name="numbersign.osf" horiz-adv-x="621" 
d="M142 181l44 165h-107v57h122l35 127h57l-34 -127h176l35 127h57l-34 -127h99v-57h-114l-44 -165h108v-56h-123l-34 -125h-57l33 125h-177l-33 -125h-57l33 125h-98v56h113zM376 181l44 165h-176l-44 -165h176z" />
    <glyph glyph-name="exclam.ss05" horiz-adv-x="293" 
d="M127 725l146 -33l-133 -503h-13v536zM168 119q21 -22 21 -53t-21 -52.5t-51 -21.5q-31 0 -53 21.5t-22 52.5t22 53t53 22q30 0 51 -22z" />
    <glyph glyph-name="exclamdown.ss05" horiz-adv-x="300" 
d="M131.5 421.5q-20.5 21.5 -20.5 53.5q0 31 20.5 52t51.5 21q32 0 53.5 -21t21.5 -52t-21.5 -53t-53.5 -22q-31 0 -51.5 21.5zM173 -184l-146 33l133 502h13v-535z" />
    <glyph glyph-name="exclamdown.case.ss05" horiz-adv-x="300" 
d="M119 606q-21 22 -21 53t21 52.5t52 21.5t52.5 -21.5t21.5 -52.5t-21.5 -53t-52.5 -22t-52 22zM160 0l-146 33l134 503h12v-536z" />
    <glyph glyph-name="ellipsis.ss06" horiz-adv-x="833" 
d="M618.5 14.5q-22.5 22.5 -22.5 59.5q0 36 23 59.5t58 23.5q36 0 59 -23.5t23 -59.5t-22.5 -59t-59.5 -23q-36 0 -58.5 22.5zM348 12.5q-20 20.5 -20 52.5t20 53t52 21t52.5 -21t20.5 -53t-20.5 -52.5t-52.5 -20.5t-52 20.5zM91.5 11q-17.5 18 -17.5 47q0 30 17.5 48.5
t45.5 18.5q29 0 47.5 -19t18.5 -48t-18.5 -47t-47.5 -18q-28 0 -45.5 18z" />
    <glyph glyph-name="ellipsis.ss07" horiz-adv-x="833" 
d="M96 15q-23 23 -23 59t23.5 59.5t58.5 23.5q36 0 59 -23t23 -60t-22.5 -59.5t-59.5 -22.5q-36 0 -59 23zM380.5 12.5q-20.5 20.5 -20.5 52.5t20.5 53t52.5 21t52 -21t20 -53t-20 -52.5t-52 -20.5t-52.5 20.5zM648.5 11.5q-18.5 18.5 -18.5 46.5q0 29 18.5 48t46.5 19
q29 0 46.5 -18.5t17.5 -48.5q0 -29 -18 -47t-46 -18t-46.5 18.5z" />
    <glyph glyph-name="numbersign.tf" 
d="M197 251l44 223h-103v56h114l38 195h57l-38 -195h187l38 195h57l-38 -195h98v-56h-109l-44 -223h103v-56h-114l-38 -195h-57l38 195h-187l-38 -195h-57l38 195h-98v56h109zM441 251l44 223h-187l-44 -223h187z" />
    <glyph glyph-name="numbersign.tosf" 
d="M201 181l44 165h-112v57h127l35 127h57l-34 -127h176l35 127h57l-34 -127h94v-57h-109l-44 -165h113v-56h-128l-34 -125h-57l33 125h-177l-33 -125h-57l33 125h-93v56h108zM435 181l44 165h-176l-44 -165h176z" />
    <glyph glyph-name="parenleft" unicode="(" horiz-adv-x="321" 
d="M115.5 594q60.5 138 180.5 229l15 -15q-154 -188 -154 -533q0 -173 38 -303t116 -225l-15 -15q-241 184 -241 543q0 181 60.5 319z" />
    <glyph glyph-name="parenright" unicode=")" horiz-adv-x="321" 
d="M25 -268l-15 15q78 95 116 225t38 303q0 345 -154 533l15 15q120 -91 180.5 -229t60.5 -319q0 -359 -241 -543z" />
    <glyph glyph-name="braceleft" unicode="{" horiz-adv-x="299" 
d="M33 274q78 42 78 132q0 28 -7 62t-8 40q-17 70 -17 113q0 74 40 125.5t112 73.5l15 -15q-34 -19 -52.5 -59.5t-18.5 -94.5q0 -45 15 -116q1 -8 7 -42t6 -62q0 -58 -28 -96t-85 -61q57 -23 85 -60.5t28 -93.5q0 -23 -4 -47t-12 -61q-1 -6 -6.5 -31t-8 -46.5t-2.5 -39.5
q0 -52 20 -92.5t56 -60.5l-15 -15q-72 22 -112 73.5t-40 124.5q0 43 17 115q1 7 8 41t7 63q-2 90 -78 130z" />
    <glyph glyph-name="braceright" unicode="}" horiz-adv-x="299" 
d="M203 38q16 -74 16 -113q0 -73 -39.5 -124.5t-111.5 -73.5l-15 15q36 20 56 60.5t20 92.5q0 23 -4.5 51t-8 44t-4.5 22q-8 37 -12 61t-4 47q0 56 27.5 93.5t84.5 60.5q-57 23 -84.5 61t-27.5 96q0 28 6 62t7 42q15 71 15 116q0 54 -18.5 94.5t-52.5 59.5l15 15
q72 -22 111.5 -73.5t39.5 -125.5q0 -39 -16 -113q-15 -66 -15 -102q0 -90 78 -132q-78 -40 -78 -133q0 -35 15 -103z" />
    <glyph glyph-name="bracketleft" unicode="[" horiz-adv-x="287" 
d="M270 -265h-210v1075h210v-50h-122v-974h122v-51z" />
    <glyph glyph-name="bracketright" unicode="]" horiz-adv-x="287" 
d="M139 -214v974h-122v50h210v-1075h-210v51h122z" />
    <glyph glyph-name="parenleft.case" horiz-adv-x="322" 
d="M113.5 631.5q58.5 112.5 182.5 193.5l15 -15q-80 -84 -117 -191.5t-37 -256.5q0 -150 36.5 -257t117.5 -191l-15 -15q-124 80 -182.5 192.5t-58.5 270.5q0 157 58.5 269.5z" />
    <glyph glyph-name="parenright.case" horiz-adv-x="321" 
d="M207.5 91.5q-58.5 -112.5 -182.5 -192.5l-15 15q81 84 118 191.5t37 256.5t-37.5 256.5t-117.5 191.5l15 15q124 -81 182.5 -193.5t58.5 -269.5q0 -158 -58.5 -270.5z" />
    <glyph glyph-name="braceleft.case" horiz-adv-x="291" 
d="M33 362q76 42 76 117q0 18 -4.5 39t-9.5 41q-1 5 -8 33t-7 55q0 61 39 107t112 71l15 -15q-35 -25 -54 -62t-19 -78q0 -33 15 -87q5 -20 9.5 -41.5t4.5 -40.5q0 -94 -117 -139q117 -45 117 -137q0 -32 -17 -85q-9 -31 -13 -49t-4 -37q0 -40 20 -76t58 -64l-15 -15
q-73 25 -112 71t-39 107q0 33 15 87q5 20 9.5 41.5t4.5 40.5q0 74 -76 116z" />
    <glyph glyph-name="braceright.case" horiz-adv-x="291" 
d="M186.5 205.5q4.5 -21.5 9.5 -41.5q15 -54 15 -87q0 -61 -39 -107t-112 -71l-15 15q38 28 58 64t20 76q0 19 -4 37t-13 49q-17 53 -17 85q0 92 117 137q-117 45 -117 139q0 19 4.5 40.5t9.5 41.5q15 54 15 87q0 41 -19 78t-54 62l15 15q73 -25 112 -71t39 -107
q0 -27 -7 -55t-8 -33q-5 -20 -9.5 -41t-4.5 -39q0 -75 76 -117q-76 -42 -76 -116q0 -19 4.5 -40.5z" />
    <glyph glyph-name="bracketleft.case" horiz-adv-x="284" 
d="M267 -85h-207v895h207v-50h-119v-795h119v-50z" />
    <glyph glyph-name="bracketright.case" horiz-adv-x="284" 
d="M17 810h207v-895h-207v50h119v795h-119v50z" />
    <glyph glyph-name="hyphen" unicode="-" horiz-adv-x="423" 
d="M354 351v-62h-285v62h285z" />
    <glyph glyph-name="uni00AD" unicode="&#xad;" horiz-adv-x="423" 
d="M354 351v-62h-285v62h285z" />
    <glyph glyph-name="endash" unicode="&#x2013;" horiz-adv-x="553" 
d="M504 351v-62h-455v62h455z" />
    <glyph glyph-name="emdash" unicode="&#x2014;" horiz-adv-x="1008" 
d="M959 351v-62h-910v62h910z" />
    <glyph glyph-name="underscore" unicode="_" horiz-adv-x="507" 
d="M468 -54v-57h-429v57h429z" />
    <glyph glyph-name="hyphen.case" horiz-adv-x="423" 
d="M354 401v-62h-285v62h285z" />
    <glyph glyph-name="uni00AD.case" horiz-adv-x="423" 
d="M354 401v-62h-285v62h285z" />
    <glyph glyph-name="endash.case" horiz-adv-x="553" 
d="M504 401v-62h-455v62h455z" />
    <glyph glyph-name="emdash.case" horiz-adv-x="1008" 
d="M959 401v-62h-910v62h910z" />
    <glyph glyph-name="quotesinglbase" unicode="&#x201a;" horiz-adv-x="302" 
d="M67 -132q39 21 62 56.5t24 73.5h-16q-31 0 -52.5 20.5t-21.5 50.5q0 31 21.5 51.5t53.5 20.5q38 0 63 -30t25 -77q0 -59 -40.5 -110t-106.5 -74z" />
    <glyph glyph-name="quotedblbase" unicode="&#x201e;" horiz-adv-x="497" 
d="M261 -132q39 21 62 56.5t24 73.5h-16q-31 0 -52.5 20.5t-21.5 50.5q0 31 21.5 51.5t53.5 20.5q38 0 63 -30t25 -77q0 -59 -40.5 -110t-106.5 -74zM67 -132q39 21 62 56.5t24 73.5h-16q-31 0 -52.5 20.5t-21.5 50.5q0 31 21.5 51.5t53.5 20.5q38 0 63 -30t25 -77
q0 -59 -40.5 -110t-106.5 -74z" />
    <glyph glyph-name="quotedblleft" unicode="&#x201c;" horiz-adv-x="497" 
d="M223 747q-39 -22 -62.5 -57t-24.5 -72h17q31 0 52 -21t21 -51q0 -31 -21.5 -51.5t-53.5 -20.5q-38 0 -63 30t-25 77q0 59 40.5 110t107.5 74zM417 747q-39 -22 -62.5 -57t-23.5 -72h16q31 0 52.5 -21t21.5 -51q0 -31 -21.5 -51.5t-53.5 -20.5q-39 0 -64 30t-25 77
q0 59 41 110t107 74z" />
    <glyph glyph-name="quotedblright" unicode="&#x201d;" horiz-adv-x="497" 
d="M261 493q39 21 62 56.5t24 73.5h-16q-31 0 -52.5 20.5t-21.5 50.5q0 31 21.5 51.5t53.5 20.5q38 0 63 -30t25 -77q0 -59 -40.5 -110t-106.5 -74zM67 493q39 21 62 56.5t24 73.5h-16q-31 0 -52.5 20.5t-21.5 50.5q0 31 21.5 51.5t53.5 20.5q38 0 63 -30t25 -77
q0 -59 -40.5 -110t-106.5 -74z" />
    <glyph glyph-name="quoteleft" unicode="&#x2018;" horiz-adv-x="302" 
d="M225 747q-39 -21 -62 -56.5t-24 -72.5h16q31 0 52.5 -21t21.5 -51q0 -31 -21.5 -51.5t-53.5 -20.5q-38 0 -63 30t-25 77q0 59 40.5 110t106.5 74z" />
    <glyph glyph-name="quoteright" unicode="&#x2019;" horiz-adv-x="302" 
d="M70 492q39 21 62 56.5t24 73.5h-16q-31 0 -52.5 20.5t-21.5 50.5q0 31 21.5 51.5t53.5 20.5q38 0 63 -30t25 -77q0 -59 -40.5 -110t-106.5 -74z" />
    <glyph glyph-name="guillemotleft" unicode="&#xab;" horiz-adv-x="550" 
d="M43 283l201 245l33 -23l-111 -222l111 -223l-33 -23zM259 283l201 245l33 -23l-111 -222l111 -223l-33 -23z" />
    <glyph glyph-name="guillemotright" unicode="&#xbb;" horiz-adv-x="550" 
d="M292 282l-201 -245l-34 23l111 222l-111 223l34 23zM508 282l-202 -245l-33 23l111 222l-111 223l33 23z" />
    <glyph glyph-name="guilsinglleft" unicode="&#x2039;" horiz-adv-x="334" 
d="M43 283l201 245l33 -23l-111 -222l111 -223l-33 -23z" />
    <glyph glyph-name="guilsinglright" unicode="&#x203a;" horiz-adv-x="334" 
d="M57 60l111 223l-111 222l34 23l201 -245l-201 -246z" />
    <glyph glyph-name="quotedbl" unicode="&#x22;" horiz-adv-x="428" 
d="M49 760h148l-73 -275zM231 760h148l-73 -275z" />
    <glyph glyph-name="quotesingle" unicode="'" horiz-adv-x="246" 
d="M49 760h148l-73 -275z" />
    <glyph glyph-name="guillemotleft.case" horiz-adv-x="550" 
d="M43 343l201 245l33 -23l-111 -222l111 -223l-33 -23zM259 343l201 245l33 -23l-111 -222l111 -223l-33 -23z" />
    <glyph glyph-name="guillemotright.case" horiz-adv-x="550" 
d="M292 342l-201 -245l-34 23l111 222l-111 223l34 23zM508 342l-202 -245l-33 23l111 222l-111 223l33 23z" />
    <glyph glyph-name="guilsinglleft.case" horiz-adv-x="334" 
d="M43 343l201 245l33 -23l-111 -222l111 -223l-33 -23z" />
    <glyph glyph-name="guilsinglright.case" horiz-adv-x="334" 
d="M57 120l111 223l-111 222l34 23l201 -245l-201 -246z" />
    <glyph glyph-name="quotedbl.osf" horiz-adv-x="398" 
d="M34 580h148l-73 -275zM216 580h148l-73 -275z" />
    <glyph glyph-name="quotesingle.osf" horiz-adv-x="216" 
d="M34 580h148l-73 -275z" />
    <glyph glyph-name="quotedbl.tf" 
d="M100 760h148l-73 -275zM282 760h148l-73 -275z" />
    <glyph glyph-name="quotesingle.tf" 
d="M100 760h148l-73 -275z" />
    <glyph glyph-name="quotedbl.tosf" 
d="M70 580h148l-74 -275zM252 580h148l-74 -275z" />
    <glyph glyph-name="quotesingle.tosf" 
d="M70 580h148l-74 -275z" />
    <glyph glyph-name="uni2003" unicode="&#x2003;" horiz-adv-x="818" 
 />
    <glyph glyph-name="uni2002" unicode="&#x2002;" horiz-adv-x="436" 
 />
    <glyph glyph-name="uni200A" unicode="&#x200a;" horiz-adv-x="118" 
 />
    <glyph glyph-name="uni00A0" unicode="&#xa0;" horiz-adv-x="200" 
 />
    <glyph glyph-name="uni2009" unicode="&#x2009;" horiz-adv-x="143" 
 />
    <glyph glyph-name="uni0E3F" unicode="&#xe3f;" horiz-adv-x="697" 
d="M390 2v-142h-55v140h-5h-264l50 109v522l-79 94h284h14v134h55v-137q112 -9 168.5 -50.5t56.5 -114.5q0 -55 -33 -94t-100 -64q168 -40 168 -190q0 -189 -260 -207zM257 421h41q13 0 37 2v246q-7 1 -23 1h-55v-249zM390 660v-227q80 27 80 115t-80 112zM335 55v309
q-10 1 -32 1h-46v-310h65h13zM496 209q0 60 -26 96.5t-80 50.5v-294q106 25 106 147z" />
    <glyph glyph-name="uni20BF" unicode="&#x20bf;" horiz-adv-x="687" 
d="M110 109v522l-79 94h216v134h55v-134q47 0 78 -4v138h55v-145q81 -16 123 -56.5t42 -102.5q0 -55 -31.5 -94.5t-92.5 -61.5q168 -40 168 -190q0 -166 -209 -201v-148h-55v142q-17 -2 -55 -2h-23v-140h-55v140h-186zM251 670v-249h42q82 0 122 31.5t40 96.5q0 62 -36 91.5
t-112 29.5h-56zM251 365v-310h65q88 0 131.5 38t43.5 116q0 80 -47 118t-147 38h-46z" />
    <glyph glyph-name="cent" unicode="&#xa2;" horiz-adv-x="598" 
d="M577 137q-36 -69 -95 -106t-138 -41v-130h-55v131q-74 7 -130 42t-86.5 93.5t-30.5 134.5t31.5 138.5t87.5 101.5t128 46v132h55v-130q58 -3 104.5 -25.5t73.5 -58t27 -77.5q0 -34 -17 -51.5t-49 -17.5t-48.5 18.5t-19.5 57.5q-9 94 -90 94q-64 0 -101.5 -53t-37.5 -141
q0 -106 54.5 -165.5t149.5 -59.5q101 0 178 74z" />
    <glyph glyph-name="currency" unicode="&#xa4;" horiz-adv-x="556" 
d="M147 141l-65 -65l-40 39l65 66q-45 58 -45 130q0 36 12 69.5t33 61.5l-65 66l40 39l65 -65q27 21 61 33t69 12q74 0 132 -45l65 65l39 -39l-64 -66q44 -59 44 -131q0 -71 -44 -130l64 -66l-39 -39l-64 65q-59 -45 -133 -45q-72 0 -130 45zM358 172.5q37 21.5 58.5 58.5
t21.5 80t-21.5 80t-58.5 59t-81 22q-43 0 -79.5 -22t-58 -59t-21.5 -80t21.5 -80t58 -58.5t79.5 -21.5q44 0 81 21.5z" />
    <glyph glyph-name="dollar" unicode="$" horiz-adv-x="685" 
d="M75 214l98 -78q42 -33 80 -51v242q-198 75 -198 224q0 54 25 96.5t70.5 67t102.5 25.5v119h55v-123q38 -6 73 -21v144h55v-172q18 -10 27 -18l113 53v-218l-86 73q-29 26 -54 41v-197q106 -42 154 -95t48 -127q0 -85 -55 -141t-147 -66v-132h-55v129q-40 2 -73 10v-139
h-55v154q-29 10 -66 30l-112 -54v224zM253 683q-39 -4 -60 -26t-21 -59q0 -33 19 -58t62 -48v191zM381 441v213q-39 20 -73 27v-212zM381 46v234l-73 28v-247q38 -12 73 -15zM497 80.5q22 25.5 22 66.5q0 35 -18.5 60t-64.5 49v-207q39 6 61 31.5z" />
    <glyph glyph-name="dong" unicode="&#x20ab;" horiz-adv-x="700" 
d="M678 645v-49h-86v-508l73 -88h-201v121q-23 -61 -74 -96.5t-117 -35.5t-116.5 35t-78 99t-27.5 148q0 83 27.5 146t77.5 98t116 35q58 0 105 -27.5t74 -76.5v150h-175v49h172l-92 105h236v-105h86zM451 372q-17 41 -49 64t-73 23q-62 0 -97 -50.5t-35 -138.5
q0 -89 35.5 -139.5t96.5 -50.5q44 0 79 23t43 63v206zM59 -79h616v-57h-616v57z" />
    <glyph glyph-name="Euro" unicode="&#x20ac;" horiz-adv-x="679" 
d="M88 306q0 43 1 62h-69v55h76q15 89 58.5 157.5t108.5 106.5t144 38q60 0 111.5 -21t81.5 -58t30 -81q0 -31 -15 -48t-41 -17q-53 0 -58 73q-9 91 -93 91q-73 0 -122.5 -65.5t-62.5 -175.5h311l-36 -55h-278q0 -43 2 -62h239l-36 -55h-193q19 -86 71.5 -135t125.5 -49
q102 0 187 94l14 -12q-41 -85 -105 -128.5t-149 -43.5q-77 0 -139 33.5t-103 95.5t-54 145h-75v55h68z" />
    <glyph glyph-name="florin" unicode="&#x192;" horiz-adv-x="377" 
d="M29 -120.5q17 15.5 44 15.5q15 0 30 -4t18 -5q32 -10 50 -10q27 0 43.5 15t16.5 40q0 37 -44.5 62.5t-113.5 29.5l39 90v346h-93v71h88q-19 35 -19 75q0 68 45 111.5t116 43.5q46 0 74 -19.5t28 -51.5q0 -24 -16 -39t-41 -15q-13 0 -24 4.5t-24 12.5q-22 15 -39 15
q-25 0 -40 -16.5t-15 -44.5q0 -36 30.5 -56t85.5 -20h72v-71h-87v-425q26 -23 39.5 -52.5t13.5 -62.5q0 -66 -52 -107t-134 -41q-52 0 -80 18t-28 50q0 25 17 40.5z" />
    <glyph glyph-name="franc" unicode="&#x20a3;" horiz-adv-x="603" 
d="M257 669v-253h127l82 69v-195l-88 70h-121v-137h174v-49h-174v-80l79 -94h-270l50 109v65h-86v49h86v408l-79 94h524v-200l-127 144h-177z" />
    <glyph glyph-name="uni20B4" unicode="&#x20b4;" horiz-adv-x="729" 
d="M583 398q-35 -32 -92 -60h203v-55h-349l-17 -6q-76 -30 -108 -60.5t-32 -74.5q0 -45 35 -71t95 -26q51 0 108.5 20t114.5 59l97 69v-203l-113 54q-50 -26 -106 -40.5t-108 -14.5q-112 0 -176.5 51.5t-64.5 140.5q0 58 25 102h-61v55h105q38 34 94 60h-199v55h341l33 12
q68 27 97.5 59t29.5 74q0 41 -28.5 64.5t-77.5 23.5q-100 0 -232 -97l-86 -65v198l111 -51q105 69 221 69q98 0 153.5 -49t55.5 -134q0 -59 -26 -104h68v-55h-111z" />
    <glyph glyph-name="uni20AD" unicode="&#x20ad;" horiz-adv-x="716" 
d="M460 0l22 83l-163 254h-12l-45 -48v-195l79 -94h-270l50 109v228h-86v48h86v246l-80 94h270l-49 -109v-231h17l242 256l-57 84h207l-258 -273l43 -67h206v-48h-176l214 -337h-240z" />
    <glyph glyph-name="uni20BA" unicode="&#x20ba;" horiz-adv-x="649" 
d="M109 109v143l-68 -26v54l68 27v46l-68 -27v55l68 26v224l-79 94h270l-50 -109v-154l165 62v-54l-165 -62v-46l165 62v-54l-165 -63v-251h52q86 0 129.5 66t43.5 197h152q0 -155 -83.5 -237t-241.5 -82h-242z" />
    <glyph glyph-name="uni20B1" unicode="&#x20b1;" horiz-adv-x="738" 
d="M711 516h-66v-1q0 -25 -4 -44h70v-55h-90q-36 -68 -127 -104.5t-230 -37.5v-180l79 -94h-269l49 109v307h-87v55h87v45h-87v55h87v60l-79 94h311q118 0 190.5 -40t92.5 -114h73v-55zM264 571h225q-16 48 -56 73.5t-101 25.5h-68v-99zM498 516h-234v-45h231q3 17 3 35v10z
M477 416h-213v-90q165 4 213 90z" />
    <glyph glyph-name="uni20BD" unicode="&#x20bd;" horiz-adv-x="675" 
d="M543.5 373.5q-96.5 -58.5 -279.5 -59.5v-45h297v-55h-297v-120l79 -94h-269l49 109v105h-87v55h87v45h-87v55h87v262l-79 94h311q140 0 212.5 -46.5t72.5 -139.5q0 -107 -96.5 -165.5zM264 369q120 3 174.5 41t54.5 121q0 139 -161 139h-68v-301z" />
    <glyph glyph-name="uni20A8" unicode="&#x20a8;" horiz-adv-x="1290" 
d="M116 109v522l-79 94h306q136 0 207 -45.5t71 -132.5q0 -77 -54 -129.5t-155 -75.5q60 -15 103.5 -62t72.5 -128q18 -49 35 -67t46 -18q-4 -37 -29 -56t-67 -19q-53 0 -83 35.5t-53 122.5q-24 95 -65.5 135t-114.5 40v-231l79 -94h-270zM257 670v-291h35q88 0 138 41.5
t50 115.5q0 65 -39.5 99.5t-114.5 34.5h-69zM738 166l101 -57q102 -57 188 -57q87 0 87 58q0 34 -35.5 57t-120.5 43q-115 26 -168.5 71t-53.5 116t49 112t135 41q98 0 178 -52l92 41v-167l-84 52q-101 65 -178 65q-38 0 -58 -14.5t-20 -41.5q0 -34 35.5 -56.5t118.5 -40.5
q121 -25 176 -68.5t55 -116.5q0 -76 -54 -119t-150 -43q-95 0 -183 47l-110 -46v176z" />
    <glyph glyph-name="uni20B9" unicode="&#x20b9;" horiz-adv-x="610" 
d="M60 370h45q90 0 147.5 34.5t68.5 95.5h-276l30 55h248q-8 56 -54.5 85.5t-128.5 29.5h-95l30 55h520l-30 -55h-164q67 -40 73 -115h121l-30 -55h-96q-14 -66 -78 -109t-169 -60l352 -331h-177l-337 316v54z" />
    <glyph glyph-name="uni20AA" unicode="&#x20aa;" horiz-adv-x="1024" 
d="M66 0l50 109v522l-79 94h388q101 0 161 -20.5t87 -65t27 -120.5v-370h-131v365q0 84 -38.5 120t-129.5 36h-159v-670h-176zM973 725l-49 -109v-522l79 -94h-388q-101 0 -161 20.5t-87 65t-27 120.5v370h131v-365q0 -84 38.5 -120t128.5 -36h160v670h175z" />
    <glyph glyph-name="sterling" unicode="&#xa3;" horiz-adv-x="614" 
d="M47 14.5q-32 25.5 -32 69.5q0 47 36.5 76t97.5 29q23 0 56 -6q-1 65 -43 162h-118v56h87q-35 83 -35 144q0 92 59.5 143.5t165.5 51.5q68 0 120 -22t80 -61.5t28 -92.5q0 -35 -14 -54.5t-39 -19.5q-54 0 -54 80q0 55 -27 85t-76 30q-50 0 -76 -31.5t-26 -91.5
q0 -32 8.5 -68.5t28.5 -92.5h131v-56h-111q28 -84 28 -149q0 -27 -4 -46q89 -31 131 -31q37 0 61 17.5t40 57.5l29 -14q-12 -191 -150 -191q-72 0 -167 53q-51 -53 -128 -53q-55 0 -87 25.5zM97 52.5q11 -8.5 29 -8.5q20 0 38 10t31 28q-41 21 -68 21q-19 0 -30 -8t-11 -21
t11 -21.5z" />
    <glyph glyph-name="uni20B8" unicode="&#x20b8;" horiz-adv-x="662" 
d="M623 725v-62h-584v62h584zM261 109v439h-95l-127 -166v222h584v-222l-127 166h-94v-454l79 -94h-270z" />
    <glyph glyph-name="uni20A9" unicode="&#x20a9;" horiz-adv-x="1049" 
d="M178 321l-22 74h-93v56h77l-51 171l-84 103h279l-45 -103l50 -171h206l12 44l-39 128l-84 102h277l-46 -103l51 -171h211l51 172l-86 102h191l-49 -112l-49 -162h65v-56h-81l-22 -74h103v-56h-120l-79 -265h-149l-78 265h-76l-77 -265h-149l-78 265h-131v56h115zM457 321
l21 74h-174l23 -74h130zM514 321h44l-22 74zM839 321l22 74h-179l22 -74h135zM440 265h-97l49 -165zM823 265h-103l52 -170z" />
    <glyph glyph-name="yen" unicode="&#xa5;" horiz-adv-x="661" 
d="M268 109v128h-159v56h159v34l-13 23h-146v56h114l-128 204l-95 115h299l-47 -103l137 -225l143 237l-77 91h195l-194 -319h111v-56h-144l-14 -24v-33h158v-56h-158v-143l79 -94h-269z" />
    <glyph glyph-name="uni0E3F.osf" horiz-adv-x="662" 
d="M563 44.5q-58 -37.5 -182 -43.5v-141h-56v140h-265l49 105v331l-79 94h295v134h56v-135q112 -5 166.5 -36t54.5 -92q0 -85 -119 -115q70 -17 104 -49.5t34 -82.5q0 -72 -58 -109.5zM250 309h41q85 0 125.5 21t40.5 64q0 41 -35.5 61t-108.5 20h-63v-166zM467 155
q0 51 -40.5 74t-130.5 23h-46v-197h70q147 0 147 100z" />
    <glyph glyph-name="uni20BF.osf" horiz-adv-x="643" 
d="M109 105v331l-79 94h218v134h56v-134h38q27 0 39 -1v135h56v-140q165 -22 165 -123q0 -85 -119 -115q138 -33 138 -131q0 -59 -46.5 -97t-137.5 -51v-147h-56v141q-13 -1 -53 -1h-24v-140h-56v140h-188zM250 475v-166h41q166 0 166 86q0 41 -35.5 60.5t-108.5 19.5h-63z
M250 252v-197h70q147 0 147 100q0 50 -41 73.5t-130 23.5h-46z" />
    <glyph glyph-name="cent.osf" horiz-adv-x="598" 
d="M568 135q-76 -146 -246 -146q-98 0 -167 47l-63 -82l-42 34l63 83q-33 35 -50 82t-17 104q0 84 36.5 150.5t101.5 104t146 37.5q73 0 127 -31l54 70l42 -35l-50 -67q24 -23 37 -53t13 -64q0 -38 -17 -59t-48 -21q-43 0 -54 50l-13 46l-182 -246q24 -34 61.5 -52t85.5 -18
q97 0 172 73zM213 194l191 257q-25 37 -73 37q-64 0 -101.5 -53t-37.5 -143q0 -58 21 -98z" />
    <glyph glyph-name="dollar.osf" horiz-adv-x="596" 
d="M43 181l101 -62q113 -68 200 -68q91 0 91 60q0 22 -14 37.5t-47.5 29t-95.5 29.5q-125 31 -181.5 76t-56.5 115q0 62 42 101.5t118 46.5v106h55v-104q42 -1 83 -14v118h56v-137q22 -11 30 -17l95 42v-184l-84 63q-45 33 -94 50.5t-96 17.5q-82 0 -82 -55q0 -20 12.5 -34
t42.5 -26t86 -26q97 -23 153 -48.5t81 -59t25 -80.5q0 -68 -45 -111.5t-124 -54.5v-117h-56v114q-45 1 -83 9v-123h-55v139q-28 10 -47 22l-110 -46v191z" />
    <glyph glyph-name="dong.osf" horiz-adv-x="695" 
d="M678 645v-49h-86v-508l73 -88h-201v121q-23 -61 -74 -96.5t-117 -35.5t-116.5 35t-78 99t-27.5 148q0 83 27.5 146t77.5 98t116 35q58 0 105 -27.5t74 -76.5v150h-175v49h172l-92 105h236v-105h86zM451 372q-17 41 -49 64t-73 23q-62 0 -97 -50.5t-35 -138.5
q0 -89 35.5 -139.5t96.5 -50.5q44 0 79 23t43 63v206zM59 -79h616v-57h-616v57z" />
    <glyph glyph-name="Euro.osf" horiz-adv-x="635" 
d="M97 221q-2 31 -1 47h-76v45h80q11 70 49.5 123.5t98.5 83t134 29.5q58 0 105 -18t74 -48.5t27 -67.5q0 -29 -16.5 -45t-44.5 -16q-54 0 -62 64q-10 71 -80 71q-61 0 -99 -49t-41 -127h305l-35 -45h-269q0 -20 5 -47h236l-35 -45h-183q21 -52 63.5 -79.5t102.5 -27.5
q46 0 84.5 18t74.5 56l8 -8q-36 -74 -93.5 -110t-140.5 -36q-101 0 -170 49.5t-92 137.5h-86v45h77z" />
    <glyph glyph-name="florin.osf" horiz-adv-x="394" 
d="M112 0v307h-98v66h93q-12 21 -12 46q0 57 47.5 93.5t121.5 36.5q49 0 77.5 -17t28.5 -46q0 -22 -16.5 -34.5t-44.5 -12.5q-17 0 -45 8t-48 8q-28 0 -43.5 -9.5t-15.5 -26.5q0 -22 29 -34t82 -12h66v-66h-81v-307h-141z" />
    <glyph glyph-name="franc.osf" horiz-adv-x="614" 
d="M265 471v-164h143l62 53v-164l-74 54h-131v-72h134v-49h-134v-35l79 -94h-269l49 109v20h-86v49h86v255l-79 94h525v-190l-117 134h-188z" />
    <glyph glyph-name="uni20B4.osf" horiz-adv-x="690" 
d="M501 252h155v-56h-323q-62 -16 -86 -35.5t-24 -46.5q0 -31 24 -46.5t63 -15.5t83 13.5t102 42.5l101 49v-167l-110 51q-56 -27 -98 -39t-84 -12q-104 0 -158.5 40.5t-54.5 115.5q0 29 8 50h-65v56h98q28 29 67 49h-165v56h354q46 14 65 31.5t19 43.5q0 56 -97 56
q-83 0 -176 -53l-84 -47v152l94 -42q91 50 185 50q97 0 150.5 -39.5t53.5 -110.5q0 -21 -6 -41h64v-56h-94q-26 -30 -61 -49z" />
    <glyph glyph-name="uni20AD.osf" horiz-adv-x="663" 
d="M375 0l32 83l-102 156l-53 -50v-189h-190l49 109v140h-85v49h85v138l-79 94h270l-50 -109v-123h38l162 148l-57 84h216l-211 -200l23 -32h189v-49h-153l180 -249h-264z" />
    <glyph glyph-name="uni20BA.osf" horiz-adv-x="641" 
d="M109 110v39l-68 -26v55l68 26v41l-68 -27v55l68 26v137l-79 94h270l-50 -109v-66l145 56v-55l-145 -55v-41l145 56v-55l-145 -55v-150h18q186 0 190 195h151q-1 -123 -87.5 -187t-251.5 -64h-210z" />
    <glyph glyph-name="uni20B1.osf" horiz-adv-x="680" 
d="M655 366h-66q1 -6 1 -17q0 -16 -1 -23h66v-55h-85q-63 -102 -311 -105v-72l79 -94h-269l49 109v162h-87v55h87v40h-87v55h87v15l-79 94h281q100 0 165 -28t90 -81h80v-55zM259 421h166q-32 54 -118 54h-48v-54zM441 366h-182v-40h181q2 16 2 24q0 11 -1 16zM359.5 232.5
q39.5 12.5 59.5 38.5h-160v-53q61 2 100.5 14.5z" />
    <glyph glyph-name="uni20BD.osf" horiz-adv-x="637" 
d="M505.5 257q-84.5 -44 -236.5 -46v-30h246v-55h-246v-32l79 -94h-269l49 119v7h-87v55h87v30h-87v56h87v169l-79 94h281q131 0 195.5 -36t64.5 -112q0 -81 -84.5 -125zM269 267q84 0 129 27t45 82q0 99 -126 99h-48v-208z" />
    </font>
</defs>
</svg>
